<svg xmlns="http://www.w3.org/2000/svg" viewBox="0 0 900 550"><g fill="none" stroke-width="2"><path stroke="#84d5f6" d="M186.833 122.996a14.96 3.24-5 0 0-15.185-1.924 14.96 3.24-5 0 0-14.621 4.532 14.96 3.24-5 0 0 15.185 1.924 14.96 3.24-5 0 0 14.621-4.532m34.42 2.625a14.93 3.26 5 0 0-14.589-4.549 14.93 3.26 5 0 0-15.157 1.947 14.93 3.26 5 0 0 14.589 4.549 14.93 3.26 5 0 0 15.157-1.947m-67.647-.481a13.85 2.64-16.7 0 0-14.025 1.451 13.85 2.64-16.7 0 0-12.507 6.509 13.85 2.64-16.7 0 0 14.025-1.451 13.85 2.64-16.7 0 0 12.507-6.509" vector-effect="non-scaling-stroke"/><path stroke="#83d6f1" d="M251.406 133.16a14.15 2.56 16.8 0 0-12.806-6.54 14.15 2.56 16.8 0 0-14.286-1.64 14.15 2.56 16.8 0 0 12.806 6.54 14.15 2.56 16.8 0 0 14.286 1.64" vector-effect="non-scaling-stroke"/><path stroke="#82d5e0" d="M186.528 134.5a17.83 7.63-6.7 0 0-18.598-5.498 17.83 7.63-6.7 0 0-16.818 9.658 17.83 7.63-6.7 0 0 18.598 5.498 17.83 7.63-6.7 0 0 16.818-9.658m40.627 4.202a17.84 7.62 6.8 0 0-16.813-9.678 17.84 7.62 6.8 0 0-18.617 5.454 17.84 7.62 6.8 0 0 16.813 9.678 17.84 7.62 6.8 0 0 18.617-5.454" vector-effect="non-scaling-stroke"/><path stroke="#84d5f6" d="M123.608 133.59a12.57 1.72-26.1 0 0-12.045 3.985 12.57 1.72-26.1 0 0-10.531 7.075 12.57 1.72-26.1 0 0 12.045-3.985 12.57 1.72-26.1 0 0 10.531-7.075" vector-effect="non-scaling-stroke"/><path stroke="#83d6f1" d="M277.329 144.65a12.66 1.66 26.1 0 0-10.639-7.06 12.66 1.66 26.1 0 0-12.099-4.08 12.66 1.66 26.1 0 0 10.639 7.06 12.66 1.66 26.1 0 0 12.099 4.08" vector-effect="non-scaling-stroke"/><path stroke="#82d5e0" d="M262.512 148.466a16.79 6.35 21.4 0 0-13.315-12.038 16.79 6.35 21.4 0 0-17.95-.214 16.79 6.35 21.4 0 0 13.316 12.038 16.79 6.35 21.4 0 0 17.95.214m-115.577-12.214a16.74 6.35-21.4 0 0-17.903.196 16.74 6.35-21.4 0 0-13.269 12.02 16.74 6.35-21.4 0 0 17.903-.196 16.74 6.35-21.4 0 0 13.269-12.02m-33.976 7.982a15.07 4.24-34.5 0 0-14.822 5.042 15.07 4.24-34.5 0 0-10.018 12.03 15.07 4.24-34.5 0 0 14.822-5.042 15.07 4.24-34.5 0 0 10.018-12.03m177.2 17.146a15.04 4.24 34.6 0 0-9.972-12.03 15.04 4.24 34.6 0 0-14.788-5.05 15.04 4.24 34.6 0 0 9.972 12.03 15.04 4.24 34.6 0 0 14.788 5.05" vector-effect="non-scaling-stroke"/><path stroke="#92dbc1" d="M186.087 157.476a20.35 13.43-9.4 0 0-22.27-9.926 20.35 13.43-9.4 0 0-17.884 16.574 20.35 13.43-9.4 0 0 22.27 9.926 20.35 13.43-9.4 0 0 17.884-16.574m46.203 6.636a20.37 13.41 9.5 0 0-17.877-16.588 20.37 13.41 9.5 0 0-22.304 9.864 20.37 13.41 9.5 0 0 17.878 16.588 20.37 13.41 9.5 0 0 22.304-9.864m-92.524-7.187a19.09 11.31-29 0 0-22.18-.637 19.09 11.31-29 0 0-11.213 19.147 19.09 11.31-29 0 0 22.18.637 19.09 11.31-29 0 0 11.213-19.147m132.064 18.485a19.1 11.31 28.9 0 0-11.255-19.131 19.1 11.31 28.9 0 0-22.187.67 19.1 11.31 28.9 0 0 11.255 19.132 19.1 11.31 28.9 0 0 22.187-.67" vector-effect="non-scaling-stroke"/><path stroke="#87d5f1" d="M86.248 156.416a13.09 2.18-44.8 0 0-10.824 7.677 13.09 2.18-44.8 0 0-7.752 10.77 13.09 2.18-44.8 0 0 10.824-7.676 13.09 2.18-44.8 0 0 7.752-10.77m224.367 18.497a13.18 2.18 44.6 0 0-7.854-10.806 13.18 2.18 44.6 0 0-10.916-7.702 13.18 2.18 44.6 0 0 7.854 10.806 13.18 2.18 44.6 0 0 10.916 7.702" vector-effect="non-scaling-stroke"/><path stroke="#92dbc1" d="M100.825 163.976a17.07 7.84-44.5 0 0-17.67 6.372 17.07 7.84-44.5 0 0-6.68 17.556 17.07 7.84-44.5 0 0 17.67-6.372 17.07 7.84-44.5 0 0 6.68-17.556m200.912 23.943a17.06 7.79 44.6 0 0-6.677-17.526 17.06 7.79 44.6 0 0-17.617-6.432 17.06 7.79 44.6 0 0 6.677 17.526 17.06 7.79 44.6 0 0 17.617 6.432" vector-effect="non-scaling-stroke"/><path stroke="#82d5e0" d="M56.462 200.12a14.99 4.3 125 0 0 12.12-9.814 14.99 4.3 125 0 0 5.076-14.745 14.99 4.3 125 0 0-12.12 9.813 14.99 4.3 125 0 0-5.076 14.745m265.435.064a15.05 4.3 54.7 0 0-5.188-14.768 15.05 4.3 54.7 0 0-12.206-9.798 15.05 4.3 54.7 0 0 5.188 14.768 15.05 4.3 54.7 0 0 12.206 9.798" vector-effect="non-scaling-stroke"/><path stroke="#c2e2ad" d="M185.456 192.696a22.63 19.41-15.7 0 0-27.038-12.562 22.63 19.41-15.7 0 0-16.534 24.81 22.63 19.41-15.7 0 0 27.038 12.562 22.63 19.41-15.7 0 0 16.534-24.81m50.853 12.103a22.59 19.41 15.4 0 0-16.625-24.712 22.59 19.41 15.4 0 0-26.933 12.714 22.59 19.41 15.4 0 0 16.625 24.712 22.59 19.41 15.4 0 0 26.933-12.714m-104.853-16.703a21.24 16.4-43.7 0 0-26.686 2.817 21.24 16.4-43.7 0 0-4.026 26.531 21.24 16.4-43.7 0 0 26.686-2.817 21.24 16.4-43.7 0 0 4.026-26.531M277.377 217.5a21.23 16.37 43.9 0 0-3.946-26.515 21.23 16.37 43.9 0 0-26.648-2.926 21.23 16.37 43.9 0 0 3.946 26.516 21.23 16.37 43.9 0 0 26.648 2.926" vector-effect="non-scaling-stroke"/><path stroke="#908f90" d="M521.8 187.12c-60.96 6.7-59.79 98.21 2.97 101.57q25.38 1.37 41.84-17.16a.64.6 44 0 0-.04-.85l-12.54-12.71a1.21 1.19-43 0 0-1.65-.04c-9.38 8.21-18.72 12.89-31.2 10.01-27.66-6.37-29.29-49.14-3.17-59.31 11.86-4.61 25.25.35 34.12 9.11a.5.39 43.6 0 0 .66.06l13.05-15.21a.63.55-46.7 0 0 .03-.79c-11.48-11.95-27.98-16.45-44.07-14.68m157.6 47.35c-2.13 36.83 29.89 61.79 65.39 52.49 9.68-2.54 17.68-8.05 24.39-15.35a.57.56 44.3 0 0-.02-.78l-12.94-13.3a.59.48-42.9 0 0-.74.05c-11.25 9.87-23.95 15.17-37.8 8.02-22.43-11.57-20.62-48.2 3.2-57.08 11.82-4.4 24.9.5 33.81 9.17a.54.5 43.3 0 0 .76.01l13.05-15.21a.63.58 43.3 0 0-.06-.81c-13.81-13.97-34.02-17.82-52.66-12.84-21.05 5.62-35.14 24.13-36.38 45.63" vector-effect="non-scaling-stroke"/><path stroke="#87d5f1" d="M44.873 210.9a12.78 1.58 118.7 0 0 7.523-10.451 12.78 1.58 118.7 0 0 4.751-11.969 12.78 1.58 118.7 0 0-7.523 10.451 12.78 1.58 118.7 0 0-4.751 11.969" vector-effect="non-scaling-stroke"/><path stroke="#908f90" d="M644.29 251.64c11.99-4.51 18.76-14 20.13-26.43 2.68-24.34-14.77-36.82-37.41-36.74q-21.68.07-43.31-.02a.55.48 90 0 0-.48.55l.02 97.75a.51.5 0 0 0 .51.5H604a.74.73 89.6 0 0 .73-.75l-.18-30.25a.7.45 89.4 0 1 .45-.71l16 .2a1.28 1.03 70.3 0 1 .93.57l20.15 30.39a1.06.42 61.1 0 0 .67.55H667q.67 0 .29-.55l-23.38-34.37a.58.42-25 0 1 .38-.69" vector-effect="non-scaling-stroke"/><path stroke="#84d5f6" d="M333.275 210.893a12.52 1.63 61.6 0 0-4.521-11.788 12.52 1.63 61.6 0 0-7.389-10.238 12.52 1.63 61.6 0 0 4.521 11.788 12.52 1.63 61.6 0 0 7.389 10.238" vector-effect="non-scaling-stroke"/><path stroke="#908f90" d="M412.75 188.77a.27.27 0 0 0-.27-.27h-20.96a.27.27 0 0 0-.27.27v98.22a.27.27 0 0 0 .27.27h20.96a.27.27 0 0 0 .27-.27v-98.22m47 .01a.27.27 0 0 0-.27-.27h-21.02a.27.27 0 0 0-.27.27v98.2a.27.27 0 0 0 .27.27h21.02a.27.27 0 0 0 .27-.27v-98.2" vector-effect="non-scaling-stroke"/><path stroke="#92dbc1" d="M69.218 226.357a19.13 11.39 120.3 0 0 19.486-10.77 19.13 11.39 120.3 0 0-.182-22.264 19.13 11.39 120.3 0 0-19.486 10.77 19.13 11.39 120.3 0 0 .182 22.264m239.855-.037a19.1 11.41 59.4 0 0 .098-22.248 19.1 11.41 59.4 0 0-19.544-10.632 19.1 11.41 59.4 0 0-.098 22.248 19.1 11.41 59.4 0 0 19.544 10.632" vector-effect="non-scaling-stroke"/><path stroke="#82d5e0" d="M48.013 233.885a16.76 6.48 112.4 0 0 12.378-13.026 16.76 6.48 112.4 0 0 .396-17.964 16.76 6.48 112.4 0 0-12.378 13.026 16.76 6.48 112.4 0 0-.396 17.964m282.257-.032a16.76 6.48 67.4 0 0-.458-17.963 16.76 6.48 67.4 0 0-12.423-12.983 16.76 6.48 67.4 0 0 .459 17.963 16.76 6.48 67.4 0 0 12.423 12.983" vector-effect="non-scaling-stroke"/><path stroke="#84d5f6" d="M36.82 239.356a13.04 2.82 106.3 0 0 6.367-11.725 13.04 2.82 106.3 0 0 .953-13.307 13.04 2.82 106.3 0 0-6.367 11.724 13.04 2.82 106.3 0 0-.953 13.308m304.529.042a13.05 2.85 73.9 0 0-.88-13.328 13.05 2.85 73.9 0 0-6.358-11.748 13.05 2.85 73.9 0 0 .88 13.328 13.05 2.85 73.9 0 0 6.358 11.748" vector-effect="non-scaling-stroke"/><path stroke="#d4e79d" d="M233.686 264.486a23.92 23.3 42 0 0-2.185-33.321 23.92 23.3 42 0 0-33.367 1.31 23.92 23.3 42 0 0 2.185 33.32 23.92 23.3 42 0 0 33.367-1.31m-53.582-31.952a23.91 23.29-41.8 0 0-33.348-1.425 23.91 23.29-41.8 0 0-2.3 33.299 23.91 23.29-41.8 0 0 33.348 1.425 23.91 23.29-41.8 0 0 2.3-33.299" vector-effect="non-scaling-stroke"/><path stroke="#c2e2ad" d="M105.094 271.475a22.63 19.6 107.9 0 0 25.607-15.51 22.63 19.6 107.9 0 0-11.695-27.56 22.63 19.6 107.9 0 0-25.607 15.51 22.63 19.6 107.9 0 0 11.695 27.56m168.061.015a22.67 19.57 72 0 0 11.607-27.608 22.67 19.57 72 0 0-25.617-15.513 22.67 19.57 72 0 0-11.607 27.608 22.67 19.57 72 0 0 25.617 15.513" vector-effect="non-scaling-stroke"/><path stroke="#92dbc1" d="M69.557 272.674a20.46 13.6 100.4 0 0 17.07-17.669 20.46 13.6 100.4 0 0-9.684-22.579 20.46 13.6 100.4 0 0-17.07 17.669 20.46 13.6 100.4 0 0 9.684 22.579m239.196-.019a20.43 13.58 79.3 0 0 9.55-22.596 20.43 13.58 79.3 0 0-17.136-17.554 20.43 13.58 79.3 0 0-9.55 22.596 20.43 13.58 79.3 0 0 17.136 17.554" vector-effect="non-scaling-stroke"/><path stroke="#82d5e0" d="M46 273.39a17.84 7.83 97.7 0 0 10.15-16.63 17.84 7.83 97.7 0 0-5.37-18.73 17.84 7.83 97.7 0 0-10.15 16.63A17.84 7.83 97.7 0 0 46 273.39m286.219-.04a17.83 7.86 82.3 0 0 5.4-18.723 17.83 7.86 82.3 0 0-10.178-16.616 17.83 7.86 82.3 0 0-5.4 18.722 17.83 7.86 82.3 0 0 10.178 16.616" vector-effect="non-scaling-stroke"/><path stroke="#84d5f6" d="M33.928 273.669a14.21 3.15 93.8 0 0 4.085-13.97 14.21 3.15 93.8 0 0-2.201-14.388 14.21 3.15 93.8 0 0-4.085 13.97 14.21 3.15 93.8 0 0 2.201 14.388m310.37-.022a14.24 3.16 86.1 0 0 2.185-14.422 14.24 3.16 86.1 0 0-4.122-13.992 14.24 3.16 86.1 0 0-2.184 14.422 14.24 3.16 86.1 0 0 4.121 13.992" vector-effect="non-scaling-stroke"/><path stroke="#83d6f1" d="M35.773 304.889a14.23 3.14 86.2 0 0 2.19-14.407 14.23 3.14 86.2 0 0-4.076-13.99 14.23 3.14 86.2 0 0-2.19 14.406 14.23 3.14 86.2 0 0 4.076 13.99" vector-effect="non-scaling-stroke"/><path stroke="#82d5e0" d="M50.747 312.233a17.9 7.81 82.4 0 0 5.374-18.776 17.9 7.81 82.4 0 0-10.108-16.71 17.9 7.81 82.4 0 0-5.374 18.776 17.9 7.81 82.4 0 0 10.108 16.71m276.711-.063a17.85 7.84 97.7 0 0 10.161-16.64 17.85 7.84 97.7 0 0-5.377-18.74 17.85 7.84 97.7 0 0-10.161 16.64 17.85 7.84 97.7 0 0 5.377 18.74" vector-effect="non-scaling-stroke"/><path stroke="#84d5f6" d="M342.326 304.846a14.1 3.22 94 0 0 4.196-13.841 14.1 3.22 94 0 0-2.228-14.29 14.1 3.22 94 0 0-4.196 13.84 14.1 3.22 94 0 0 2.228 14.29" vector-effect="non-scaling-stroke"/><path stroke="#92dbc1" d="M77.016 317.73a20.47 13.59 79.4 0 0 9.592-22.62 20.47 13.59 79.4 0 0-17.124-17.62 20.47 13.59 79.4 0 0-9.592 22.62 20.47 13.59 79.4 0 0 17.123 17.62m224.087-.023a20.48 13.6 100.8 0 0 17.197-17.569 20.48 13.6 100.8 0 0-9.521-22.665 20.48 13.6 100.8 0 0-17.197 17.569 20.48 13.6 100.8 0 0 9.521 22.665" vector-effect="non-scaling-stroke"/><path stroke="#c2e2ad" d="M119.14 321.766a22.67 19.58 71.8 0 0 11.52-27.651 22.67 19.58 71.8 0 0-25.68-15.42 22.67 19.58 71.8 0 0-11.52 27.65 22.67 19.58 71.8 0 0 25.68 15.42m140.098.07a22.7 19.56 107.7 0 0 25.536-15.678 22.7 19.56 107.7 0 0-11.732-27.572 22.7 19.56 107.7 0 0-25.536 15.678 22.7 19.56 107.7 0 0 11.732 27.572" vector-effect="non-scaling-stroke"/><path stroke="#d4e79d" d="M180.223 317.479a23.92 23.28 41.4 0 0-2.548-33.282 23.92 23.28 41.4 0 0-33.338 1.644 23.92 23.28 41.4 0 0 2.548 33.282 23.92 23.28 41.4 0 0 33.338-1.644m53.697-31.596a23.92 23.32-41.3 0 0-33.361-1.732 23.92 23.32-41.3 0 0-2.58 33.306 23.92 23.32-41.3 0 0 33.362 1.733 23.92 23.32-41.3 0 0 2.58-33.307" vector-effect="non-scaling-stroke"/><path stroke="gray" d="M766.74 306.79a.73.73 0 0 0-.73-.73h-.02a.73.73 0 0 0-.73.73v20.38a.73.73 0 0 0 .73.73h.02a.73.73 0 0 0 .73-.73v-20.38m-216.64 5.47q-.91-5.25 4.11-4.47a1.1.88-57.9 0 0 .83-.29c.75-.68-.03-1.08-.68-1.15q-6.34-.65-5.86 5.66a.64.52-8.6 0 1-.52.58q-4.16.88.04 1.54a.64.56-86.4 0 1 .48.62v12.5a1.06.28 34.5 0 0 .58.67q.18.13.42.08a.79.62 85.7 0 0 .5-.75v-12.5a.79.76-81.4 0 1 .99-.76q2.04.65 4-.17c.91-.38.12-1.04-.41-1.04q-2-.01-4.02-.07a.54.48 86.2 0 1-.46-.45m-157.35-4.7a.69.69 0 0 0-.69-.69h-.12a.69.69 0 0 0-.69.69v19.76a.69.69 0 0 0 .69.69h.12a.69.69 0 0 0 .69-.69v-19.76m56.77.35a1.07 1.07 0 0 0-1.07-1.07 1.07 1.07 0 0 0-1.07 1.07 1.07 1.07 0 0 0 1.07 1.07 1.07 1.07 0 0 0 1.07-1.07" vector-effect="non-scaling-stroke"/><path stroke="#908f90" d="M572.652 307.544a.66.66 0 0 0-.657-.664h-.06a.66.66 0 0 0-.663.656l-.104 19.72a.66.66 0 0 0 .657.664h.06a.66.66 0 0 0 .663-.656l.104-19.72" vector-effect="non-scaling-stroke"/><path stroke="gray" d="M685.599 309.187a1.24 1.04 85.9 0 0 .948-1.311 1.24 1.04 85.9 0 0-1.126-1.163 1.24 1.04 85.9 0 0-.948 1.311 1.24 1.04 85.9 0 0 1.126 1.163m60.141-.207c-10.67 8.15.93 25.69 12.8 16.79q2.19-1.64.4-1.87a1.16.93-59.1 0 0-.86.32c-6.89 6.42-16.92-.5-14.75-8.91 1.74-6.73 9.14-9.33 14.51-4.81a1.76 1.27 59.8 0 0 .87.39q2.29.18.22-1.58c-3.68-3.14-9.33-3.27-13.19-.33m84.232.13a1.21 1.03 89.9 0 0 1.028-1.212 1.21 1.03 89.9 0 0-1.032-1.208 1.21 1.03 89.9 0 0-1.028 1.212 1.21 1.03 89.9 0 0 1.032 1.208M437.25 314h4.25a.81.67 8.8 0 0 .72-.43c.53-1.28-4.51-.83-5.15-.85a.54.37-89.5 0 1-.36-.54l.04-3.68a1.01.91 19.2 0 0-.43-.78c-1.13-.8-.9 4.11-.91 4.41a.6.46 90 0 1-.42.55q-4.21.37-.02 1.38a.78.46-89.5 0 1 .39.68c.3 4.1-2.26 15.65 6.15 12.8q1.24-.42.45-.93a1.45 1.18-29.6 0 0-.96-.16q-1.76.33-3.34-.3a1.05.68-84.9 0 1-.47-.89l-.39-10.76a.48.45 88.8 0 1 .45-.5m19.44.56q.08 4.81.24 9.63c.11 3.51 4.59 5.36 6.6 2.84q1.04-1.29-.73-.75c-5.04 1.53-4.49-1.91-4.55-5.41q-.06-3.09.07-6.22a.61.58 88.4 0 1 .51-.57c.52-.06 5.74.33 4.57-1.01a1.31.75-10.9 0 0-.9-.31l-3.75-.01a.55.47 89.4 0 1-.47-.54c-.02-.62.27-4.48-.65-4.44a.76.64 89.7 0 0-.62.75l-.01 2.97a1.42 1.12-10 0 1-1.02 1.15q-3.23.94.29 1.44a.49.48 4.1 0 1 .42.48m31.81-1.94q-4.22 1.16.19 1.48a.6.45-84.1 0 1 .4.66q-.68 5.4.05 10.81a1.79 1.09-80.3 0 0 .35.88c1.96 2.22 7.39 1.55 5.71.17a1.27.9-25.3 0 0-.95-.17q-1.86.38-3.45-.45a1.2.47-86.9 0 1-.33-1l-.18-10.25a.65.62 87.2 0 1 .57-.66c.96-.07 4.99.74 4.77-.86a.65.56-3.6 0 0-.63-.48h-4.24a.57.57 0 0 1-.57-.57l.05-3.68a.81.71-79.2 0 0-.43-.73c-1.23-.51-.82 3.83-.85 4.41a.62.42-9.6 0 1-.46.44m184.03 1.88.28 11.24a1.75 1.68-78.2 0 0 .94 1.5q2.29 1.13 4.75.58a.94.92-85.4 0 0 .65-.57c.67-1.69-5.22 1.08-5.16-3.73q.06-4.48-.09-8.63a1.1.88-.7 0 1 1.11-.91h3.47a.67.61-2.3 0 0 .67-.66c-.09-.99-3.57-.45-4.89-.71a.52.5-80.2 0 1-.4-.59c.87-5.51-2.02-5.22-1.19-.05a.6.5 80.7 0 1-.4.68q-4.03.58-.31 1.5a.69.26 11.1 0 1 .57.35" vector-effect="non-scaling-stroke"/><path stroke="#83d6f1" d="M44.19 335.92a13.12 2.81 73.8 0 0-.962-13.384 13.12 2.81 73.8 0 0-6.358-11.815 13.12 2.81 73.8 0 0 .962 13.383 13.12 2.81 73.8 0 0 6.358 11.815" vector-effect="non-scaling-stroke"/><path stroke="#84d5f6" d="M333.964 335.846a12.98 2.84 106.5 0 0 6.409-11.64 12.98 2.84 106.5 0 0 .964-13.252 12.98 2.84 106.5 0 0-6.41 11.64 12.98 2.84 106.5 0 0-.964 13.252" vector-effect="non-scaling-stroke"/><path stroke="gray" d="M686.218 313.069a.72.72 0 0 0-.722-.719h-.04a.72.72 0 0 0-.718.721l.024 14.2a.72.72 0 0 0 .722.719h.04a.72.72 0 0 0 .718-.721l-.024-14.2m144.532-.039a.73.73 0 0 0-.73-.73h-.04a.73.73 0 0 0-.73.73v14.24a.73.73 0 0 0 .73.73h.04a.73.73 0 0 0 .73-.73v-14.24m8.3.91q-.1-1.49-1.06-1.39a.73.52 88.4 0 0-.48.71l-.01 13.99a.65.61 6.5 0 0 .51.6q1.33.3 1.16-1.63-.44-4.96.11-8.5.57-3.68 4.29-3.89c7.08-.39 5.17 8.86 5.2 13.1a.77.39 86.8 0 0 .48.82q.23-.06.43.09.53.41.55-.64c.09-5.3 2.04-16.23-7.43-14.62q-.97.17-3.31 1.59a.29.29 71.9 0 1-.44-.23m-437.22.75q-.06-1.39-1.23-2.03a.41.4 14.7 0 0-.6.34v14.25a1.06.26 35 0 0 .59.67q.17.13.41.08a.85.58 86.6 0 0 .48-.8c.02-2.88-.78-9.4 1.12-11.58 2.79-3.22 7.94-2.29 8.59 2.39q.63 4.49.12 8.99a1.07.37 39.4 0 0 .45.73q.46.45.79.08a1.28 1.18 66.4 0 0 .3-.87c-.25-5.53 1.57-17.77-9.11-13.85a1.88 1.58-77.5 0 0-.77.59l-.85 1.11q-.28.37-.29-.1m25.86 9.5c-1.85 4.14-5.54 2.32-8.55.97-1.52-.68-1.96.55-.68 1.3 3.97 2.32 11.59 2.8 10.4-4.22a1.12 1.12 11.6 0 0-.51-.77q-2.9-1.83-6.21-2.84c-5.32-1.61-.05-6.29 4.72-3.87 1.36.68 2.9-.23.96-1.22-3.75-1.92-11.45-.74-8.55 4.99a1.64 1.28 81.8 0 0 .76.73l6.42 2.53q1.96.78 1.24 2.4m21.528-11.001a.63.63 0 0 0-.631-.63l-.22.001a.63.63 0 0 0-.63.631l.025 13.98a.63.63 0 0 0 .631.63l.22-.001a.63.63 0 0 0 .63-.631l-.025-13.98M479.79 326.3c.67 2.78 1.56 1.55 1.57-.08q.07-6.36-.11-12.75a1.12.91-76.7 0 0-.39-.81q-.97-.71-.92 1.09c.1 3.67.92 9.42-1.94 11.82q-3.37 2.82-7.17-.69a1.4 1.29-73.8 0 1-.42-.84c-.32-2.6-.1-11.57-1.16-11.4a.68.56 86.7 0 0-.48.66c.01 3.1-.83 9.76 1.03 12.24q3.73 4.97 9.49.58a.32.32-25 0 1 .5.18m24.95-13.54c-11.45 3.46-1.77 22.89 8.12 12.69a.54.53 62.5 0 0 .14-.45q-.02-.2-.18-.32a.77.52-35.6 0 0-.73.02c-4.62 2.48-9.05 3.56-10.87-2.95a.81.8-7.7 0 1 .78-1.01l10.93-.02a.59.57.5 0 0 .59-.56c.02-4.78-3.82-8.9-8.78-7.4m38.58 7.5a7.75 7.75 0 0 0-7.75-7.75 7.75 7.75 0 0 0-7.75 7.75 7.75 7.75 0 0 0 7.75 7.75 7.75 7.75 0 0 0 7.75-7.75m37.79-6.17q.14-1.52-1.08-1.46a1.13.28 89.9 0 0-.28 1.12V327a1.17.38 37.4 0 0 .51.74q.3.28.68.21a.99.37 88.5 0 0 .32-.93c-.01-4.16-1.58-11.43 3.82-12.92 7.49-2.07 6.38 7.57 6.14 13.16a.81.59-82.5 0 0 .41.75c.66.21.88-.4.88-.97-.03-3.59.82-9.87-1.28-12.6-1.73-2.23-5.49-2.71-8.13-.79q-.6.43-1.31.66a.53.3-11.6 0 1-.68-.22m19.18 3.46c-2.31-4.54 5.43-3.62 7.35-2.53a.67.56 33.8 0 0 .79-.08c1.47-1.72-6.74-3.91-9.15-.5q-1.32 1.85.07 4.29a1.41.8 73.7 0 0 .62.6l5.26 1.95q3.58 1.33 2.27 3.46c-1.91 3.11-5.58 2.05-8.33.4a.72.62 36.5 0 0-.82.06c-1.99 1.98 6.61 3.75 9.34 1.47q2.56-2.15.13-5.54a2.02 1.02 7.8 0 0-.87-.6l-5.89-2.32a1.54 1.26 1.4 0 1-.77-.66m15.97-2.57-.28-1.73a.95.66-89.5 0 0-.48-.7c-1.18-.4-.77 12.32-.73 19.15a1.12.86-76.4 0 0 .37.84c1.91 1.42.87-6.58.84-7.12q-.05-.94.58-.24c8.38 9.24 18.76-5.46 9.55-11.54q-4.49-2.97-9.44 1.47-.34.3-.41-.13m20.49 5.78 10.93.02a.48.48-88.1 0 0 .48-.45c.58-10.52-14.1-10.42-13.65.33.27 6.37 8.54 10.76 13.01 4.8a.77.55-49.8 0 0 .07-.86q-.31-.32-.86.13-5.17 4.25-9.76-.42-1.14-1.16-.78-3.01a.67.55-83.1 0 1 .56-.54m16.81-3.97c-3.94 7.67 5.76 15.22 12.28 9.02q1.04-.99-.05-1.37a.88.72-54 0 0-.83.22q-3.73 3.45-7.61 1.18c-7.35-4.3-.57-16.35 7.07-10.41.45.35 1.36.56 1.65.06a.72.55 37 0 0-.23-.8c-4.16-3.54-9.73-2.88-12.28 2.1m53.84 3.49a7.74 7.74 0 0 0-7.74-7.74 7.74 7.74 0 0 0-7.74 7.74 7.74 7.74 0 0 0 7.74 7.74 7.74 7.74 0 0 0 7.74-7.74m7.29-6.08c-.67-2.54-1.75-1.66-1.73.19q.06 6.41.05 12.8a.86.09 49.1 0 0 .43.62q.23.27.56.19a.8.65 84.6 0 0 .5-.75v-9.01q0-2.72 2.53-3.7c9.2-3.54 7.48 8.13 7.49 12.79a.74.54-80.1 0 0 .3.61q.2.1.43.06a.79.49-88.9 0 0 .44-.68q.36-3.55.29-7.16c-.12-6.48-4.64-10.3-10.78-5.77a.34.32 64.4 0 1-.51-.19m62.47-1.29c-10.41 3.5-1.64 22.32 8.36 12.78.26-.24.35-.99.1-1.18a.93.47-39.9 0 0-.89.21q-6.49 4.94-10.54-1.96-1.18-2.02.53-2.01l10.84.07a.63.51 1.9 0 0 .62-.47c.45-5.47-3.84-9.18-9.02-7.44m34.15 1.04q-.09-.98-.96-1.24a.55.47-83.2 0 0-.6.55v13.99a.52.5 1.2 0 0 .5.5l.51.01a.77.51-88.3 0 0 .54-.76l.28-10.33a1.38.7-35 0 1 .43-.8c2.13-2.22 6.1-3.07 8.18-.29 1.76 2.35 1.06 8.68 1.08 11.64a.53.48 90 0 0 .48.53h.5a.58.48-89.4 0 0 .48-.57c.15-8.04 1.28-18.43-10.96-12.94a.35.32 75.2 0 1-.46-.29" vector-effect="non-scaling-stroke"/><path stroke="#908f90" d="M869.18 324.97c-.1 6.68-6.29 7.04-11.05 4.54-.6-.31-2-.66-1.65.61a1.33 1.15 10 0 0 .61.75q5.22 3.04 10.75.51 2.6-1.19 2.61-4.14l.04-13.74a.95.3 89.2 0 0-.33-.99q-1.04.15-1.05 1.32-.01 1.05-1.04.38-7.1-4.6-11.11 1.38c-5.13 7.65 4.89 14.56 11.32 8.96q.92-.8.9.42" vector-effect="non-scaling-stroke"/><path stroke="gray" d="M801.76 326.3q.26 1.1 1.31 1.28a.45.42-86.5 0 0 .49-.47q-.1-4.56-.17-9.1c-.09-5.93-6.36-6.17-10.6-4.54-.48.19-1.2.93-.56 1.34a1.14.7-32.8 0 0 .92-.02c3.37-1.4 9.15-1.39 8.83 3.7a.44.43 7.6 0 1-.53.39c-17.83-3.59-9.97 15.73-.14 7.27a.28.28 63 0 1 .45.15" vector-effect="non-scaling-stroke"/><path stroke="#82d5e0" d="M60.833 347.29a16.81 6.48 67.5 0 0-.446-18.01 16.81 6.48 67.5 0 0-12.42-13.05 16.81 6.48 67.5 0 0 .446 18.01 16.81 6.48 67.5 0 0 12.42 13.05m256.574-.044a16.75 6.47 112.4 0 0 12.365-13.02 16.75 6.47 112.4 0 0 .4-17.952 16.75 6.47 112.4 0 0-12.364 13.02 16.75 6.47 112.4 0 0-.4 17.952" vector-effect="non-scaling-stroke"/><path stroke="#92dbc1" d="M88.56 356.78a19.13 11.4 59.6 0 0 .153-22.269 19.13 11.4 59.6 0 0-19.513-10.73 19.13 11.4 59.6 0 0-.153 22.268 19.13 11.4 59.6 0 0 19.513 10.73m201.06-.003a19.11 11.44 120.5 0 0 19.557-10.66 19.11 11.44 120.5 0 0-.158-22.272 19.11 11.44 120.5 0 0-19.556 10.66 19.11 11.44 120.5 0 0 .158 22.272" vector-effect="non-scaling-stroke"/><path stroke="#c2e2ad" d="M131.4 362.125a21.27 16.42 44 0 0-3.894-26.587 21.27 16.42 44 0 0-26.706-2.963 21.27 16.42 44 0 0 3.894 26.587 21.27 16.42 44 0 0 26.706 2.963m145.954-29.505a21.22 16.43-44 0 0-26.677 2.921 21.22 16.43-44 0 0-3.851 26.56 21.22 16.43-44 0 0 26.677-2.922 21.22 16.43-44 0 0 3.851-26.56m-41.067 12.585a22.6 19.4-15.7 0 0-27.007-12.56 22.6 19.4-15.7 0 0-16.507 24.792 22.6 19.4-15.7 0 0 27.007 12.56 22.6 19.4-15.7 0 0 16.507-24.792M185.5 357.116a22.62 19.37 14.9 0 0-16.88-24.535 22.62 19.37 14.9 0 0-26.84 12.903 22.62 19.37 14.9 0 0 16.88 24.535 22.62 19.37 14.9 0 0 26.84-12.903" vector-effect="non-scaling-stroke"/><path stroke="#83d6f1" d="M321.338 361.423a12.6 1.55 118.5 0 0 7.374-10.333 12.6 1.55 118.5 0 0 4.65-11.813 12.6 1.55 118.5 0 0-7.374 10.333 12.6 1.55 118.5 0 0-4.65 11.813m-264.387-.114a12.54 1.59 61.2 0 0-4.648-11.755 12.54 1.59 61.2 0 0-7.434-10.223 12.54 1.59 61.2 0 0 4.648 11.755 12.54 1.59 61.2 0 0 7.434 10.223" vector-effect="non-scaling-stroke"/><path stroke="gray" d="M441.18 361.06q.06 1.32.95 1.84a.35.31-74.3 0 0 .48-.3c.43-7.01 1.14-22.79-.78-21.21a1.22.75 78.6 0 0-.32.86l.01 8q0 .6-.51.12c-10.95-10.22-18.94 10.4-6.91 12.75q3.63.7 6.73-2.21.33-.31.35.15m281.57-13.14q-4.08 1.01-.01 1.41a.63.58 3.5 0 1 .58.6c-.09 3.5-.67 14.67 1.03 13.12a1.12 1-24.1 0 0 .36-.8l-.21-12.5a.65.61.5 0 1 .67-.62l4.33.1a.65.64 6.4 0 0 .65-.51c.26-1.18-3.71-.67-4.98-.8a.6.59 1.2 0 1-.54-.55q-.3-4.8 4.84-4.36 1.42.12.74-.91a1.23 1.19-13.8 0 0-.91-.53q-6.46-.54-5.98 5.95a.69.28-12.9 0 1-.57.4m-130.21-3.67q.46-.23.71-.75a.98.5 41.3 0 0-.34-.87q-1.81-1.84-1.1 1.19a.58.49 70.8 0 0 .73.43m121.974.051a1.23 1 104.4 0 0 1.275-.942 1.23 1 104.4 0 0-.663-1.44 1.23 1 104.4 0 0-1.275.942 1.23 1 104.4 0 0 .663 1.44m20.396-.041a1.17 1.02 102.8 0 0 1.255-.914 1.17 1.02 102.8 0 0-.736-1.367 1.17 1.02 102.8 0 0-1.254.915 1.17 1.02 102.8 0 0 .736 1.367m56.582-.016a1.18.95 85 0 0 .843-1.258 1.18.95 85 0 0-1.049-1.093 1.18.95 85 0 0-.843 1.259 1.18.95 85 0 0 1.049 1.092M650.86 360.84q7.55 5.22 14.2-.57.81-.7.1-1.31a.62.52-45.9 0 0-.77.08c-8.83 8.44-20.37-2.94-13.36-12.23q4.72-6.25 12.89-1.01c.5.32 1.62.87 1.33-.42a1.41 1.04 18.1 0 0-.54-.76c-10.33-7.44-21.43 3.09-15.84 13.95q.71 1.38 1.99 2.27M463 354.5h5.75a1.1.85 66.8 0 1 .77.43c.61.81 6.66 9.88 7.55 7.86a1.04.64 44.6 0 0-.22-.89l-5.5-7.03a.43.33-25.8 0 1 .28-.56q7.09-2.46 4.29-8.69c-1.96-4.38-10.64-3.11-14.45-3.12a.51.5 0 0 0-.51.5l-.22 19.25a.73.48 89.5 0 0 .5.75l.95-.06a.96.32 89.6 0 0 .31-.94v-7a.5.5 0 0 1 .5-.5m115.93-4.69q-.05 4.66.32 9.34c.46 5.83 7.42 4.27 6.34 2.67a.8.65-22.1 0 0-.81-.25c-6.21 1.59-4.3-8.24-4.26-11.78a.53.52-.6 0 1 .51-.51c.14 0 6.65.33 4.89-1.07a1.51.57-7.2 0 0-.92-.22l-4.18-.03a.74.44-86.8 0 1-.41-.79c.03-.39.64-5.09-.84-4a1.22.85-26 0 0-.51.91l.24 3.16a.61.41 84.3 0 1-.34.63q-4.3.57-.5 1.53a.61.36 10.6 0 1 .47.41m125.82-.56 4-.01a1.11.71 9.6 0 0 .86-.36c.8-1.31-3.93-.86-4.3-.9a1.35 1.35 5.6 0 1-1.2-1.46q.35-4.09-1.02-3.15a1.17.66 81.2 0 0-.33.88l-.01 3.5a.58.32-7.9 0 1-.49.37q-4.15.72-.01 1.24a.65.57-87.1 0 1 .5.64c-.02 4.35-2.07 13.64 5.25 13.18q1.46-.09 1.4-1.06a.49.43-10 0 0-.6-.36c-6.61 1.62-4.58-8.45-4.5-11.96a.56.45-89.4 0 1 .45-.55m77.28 12.24a2.6 2.01-81.5 0 1-1.26-2.25l-.01-9.49a.5.49-90 0 1 .49-.5h4.5a.65.53 1.4 0 0 .64-.5c.09-1.08-4.52-.77-5.26-.83a.5.49 5.8 0 1-.45-.54c.1-1.11.38-4.15-.65-4.33a.46.45-84.8 0 0-.53.45l.01 3.75a.97.76 80.4 0 1-.45.83q-.6.29-1.31.17a.8.56 13 0 0-.84.34q-.22.63 1.87.78a.8.8 2.9 0 1 .75.83c-.1 3.77-1.97 15.53 5.8 12.76a1.03.67-12.3 0 0 .69-.7q.03-.47-.33-.69a1.14.52-26.1 0 0-.87.02q-1.42.47-2.79-.1M518.5 349.25l4.25-.01a.85.54 4.8 0 0 .77-.4c.35-1.24-4.3-.86-4.97-.87a.55.47 0 0 1-.55-.47v-3.25a1.05.38-88.4 0 0-.31-.94q-.34-.1-.69-.06a.69.6 83.7 0 0-.52.75l.32 3.5q.13 1.43-1.06.74-1.3-.75-1.62.55a.58.36-1.9 0 0 .68.39q2.31-.32 1.68 2.31c-.66 2.77-.96 14.31 6.25 11.42a1.25.91-6.7 0 0 .69-.64c.29-.82-.47-.74-.99-.62-6.13 1.53-4.49-7.35-4.38-11.83a.58.45-89.4 0 1 .45-.57m197.028-.981a.62.62 0 0 0-.622-.619h-.04a.62.62 0 0 0-.619.621l.026 14.32a.62.62 0 0 0 .62.619h.04a.62.62 0 0 0 .62-.621l-.025-14.32M402.52 361.49q-.21 1.82 1.15 1.53a.99.34 85.2 0 0 .24-.96q-.31-4.03-.11-8.06c.32-6.35-6.34-7.4-10.91-5.29a.65.34-28.9 0 0-.46.69q.44.44 3.2-.07.43-.08 1.87-.11 4.21-.08 5.04 4.03a.83.82 1.7 0 1-1.02.95c-16.79-4.29-10.53 15.9.28 7.06q.83-.68.72.23m9.86-10.28q4.44-4.36 8.61-.03a1.62.72-84 0 1 .33 1.01q.19 3.08.14 9.8-.01 1.35 1.07 1.12a.65.58 84.1 0 0 .46-.64c-.04-3.48.79-9.21-1.03-12.07q-3.19-4.99-9.43-1.12a.76.68 68.8 0 1-1.05-.53q-.16-.67-.72-1.01-.51-.31-.51.76v14a.79.6-86.2 0 0 .5.75q.37.07.55-.19a1.13.15-53.6 0 0 .45-.81v-10a1.69.63-38.2 0 1 .63-1.04m68.8 2.63c-1.62 7.75 6.65 12.25 12.7 7.49q1.24-.98.26-1.39a.95.88 37.7 0 0-.88.08q-6.91 4.75-10.7-2.39a1.11 1.07 75.5 0 1 .92-1.63l10.69.03a.7.54 1.7 0 0 .69-.5c.78-9.01-11.74-11-13.68-1.69m19.56-4.5c-4.39 4.39 3.91 6.63 6.26 7.55 3.08 1.2 2.04 4.33-.8 4.79q-3.27.54-6.02-1.43a.52.44 34.1 0 0-.71.08c-1.43 2.4 11.07 5.76 10.82-1.77q-.07-2.26-2.3-3.05l-5.52-1.95a1.21 1 82.6 0 1-.64-.6c-2.42-4.88 4.27-3.95 6.95-2.83a1.56 1.13 40.8 0 0 .94.08q1.08-.34-.09-1.03c-2.77-1.65-6.42-2.31-8.89.16m33.157 13.928a7.83 7.6 97.8 0 0 8.593-6.727 7.83 7.6 97.8 0 0-6.467-8.789 7.83 7.6 97.8 0 0-8.593 6.727 7.83 7.6 97.8 0 0 6.467 8.789m16.453-12.448q-.78 1.01-.69-.26.2-2.75-.68-2.69a.64.52 88.1 0 0-.48.63v14a.53.5 1.8 0 0 .5.5l.26.01a.71.49 89 0 0 .5-.75c-.27-5.73-.55-12.3 6.04-12.95a.77.65 1.5 0 0 .65-.52c.79-3.5-5.7 1.51-6.1 2.03m20.46 10.98c.98 3.52 1.48-.59 1.44-1.1-.52-7.83.85-15.96-10.97-12.01a1.2.75-7 0 0-.73.59c-.25.7.83.69 1.29.54 3.4-1.06 10.08-1.04 8.62 4.15a.6.47 16.3 0 1-.71.28q-4.05-1.21-8.02.23-1.81.66-2.14 2.59c-1.21 7.16 6.21 7.16 10.67 4.51a.37.37 66.6 0 1 .55.22m22.202-13.449a.6.6 0 0 0-.599-.6l-.3-.001a.6.6 0 0 0-.6.599l-.025 14.06a.6.6 0 0 0 .599.6l.3.001a.6.6 0 0 0 .6-.599l.025-14.06m12.911 14.964a7.82 7.61 93.5 0 0 8.073-7.34 7.82 7.61 93.5 0 0-7.119-8.27 7.82 7.61 93.5 0 0-8.073 7.34 7.82 7.61 93.5 0 0 7.119 8.27m14.527-.255a.64.6 5.9 0 0 .77-.58l-.08-9.03q-.03-3.55 3.83-4.26c8.01-1.46 6.03 8.46 6.02 12.81a1.04.4-87.7 0 0 .32.94q.34.1.69.06a.89.51 89.7 0 0 .47-.82c.12-3.35.88-11.72-2.38-13.5q-4.54-2.49-7.73.74-1.05 1.05-1.12-.17-.08-1.2-1.16-1.48a.92.29-88.6 0 0-.33.98v13.75a.52.46-84.6 0 0 .36.5l.34.06m51.3-7.02 11 .12a.73.63 89.5 0 0 .64-.75q-.2-6.9-5.98-7.54c-13.76-1.52-7.65 23.49 4.76 13.33q.63-.52.52-1.08a.46.38-21.1 0 0-.64-.22q-1.06.56-2.09 1.18c-3.52 2.14-9.01.12-8.69-4.52a.55.47-87.6 0 1 .48-.52m18.48-5.06.02-2.48a.79.6-86.2 0 0-.5-.75q-.36-.06-.57.18a1.37.49-42.5 0 0-.43.82v13.75a.5.5 0 0 0 .5.5h.5a.57.48-89.4 0 0 .48-.56c.09-5.48-1.19-11.44 5.82-13.23q1.73-.44.58-1.31a1.02.91-33.7 0 0-.9-.13q-2.99.96-5.09 3.29-.42.46-.41-.08m45.782-2.469a.73.73 0 0 0-.729-.731h-.04a.73.73 0 0 0-.731.729l-.024 13.8a.73.73 0 0 0 .729.731h.04a.73.73 0 0 0 .731-.729l.024-13.8m6.468 3.719c-3.79 7.81 6.13 14.97 12.54 8.6a.67.45-44.1 0 0 .16-.77l-.23-.26a.82.4-37.9 0 0-.86.18q-5.13 3.91-8.88.15c-5.98-6 2.35-15.14 8.7-9.22a1.09.73 54.1 0 0 .86.32c.83-.19.44-1.02-.01-1.4-4.3-3.61-9.82-2.66-12.28 2.4m27.89-.79q1.86 3.48-2.59 2.38c-3.74-.93-10.52 1.7-7.7 6.82 1.96 3.58 7 3.13 9.84.94a.72.52-40.7 0 1 .83-.07q.21.2.25.51a1.34.36 87.1 0 0 .28.87c.78.82.98-.13.98-.72-.01-3.43 1.16-11.82-2.6-13.63q-3.86-1.86-8.29.25a.74.32-26.9 0 0-.55.66q.16.22.44.31a1.38.58 27.3 0 0 .88.07c2.54-.98 6.71-1.24 8.23 1.61m21.893-3.229a.43.43 0 0 0-.43-.43l-.64-.002a.43.43 0 0 0-.43.43l-.026 14.38a.43.43 0 0 0 .43.43l.64.002a.43.43 0 0 0 .43-.43l.026-14.38m12.51 15.087a7.8 7.59 88.8 0 0 7.425-7.957 7.8 7.59 88.8 0 0-7.751-7.64 7.8 7.59 88.8 0 0-7.425 7.958 7.8 7.59 88.8 0 0 7.751 7.64m14.567-12.719q4.44-3.41 8.14.65a1.59.59-86.4 0 1 .3.99q.17 2.9.19 10.03 0 1.77 1.18.77a1.08.94 70.4 0 0 .33-.84c-.42-6.23 1.41-19.38-10.76-12.87a.53.3-21.8 0 1-.72-.1q-.01-1.56-1.22-1.31a1.12.14 89.3 0 0-.12 1.09l.07 13.26a.73.59-85.2 0 0 .47.69q1.29.27 1.15-1.45-.45-5.64.37-10.19a1.3.37-33.2 0 1 .62-.72" vector-effect="non-scaling-stroke"/><path stroke="#82d5e0" d="M73.696 374.53a14.93 4.3 54.8 0 0-5.092-14.679 14.93 4.3 54.8 0 0-12.12-9.721 14.93 4.3 54.8 0 0 5.092 14.679 14.93 4.3 54.8 0 0 12.12 9.721m230.856.065a15.04 4.26 125.1 0 0 12.133-9.856 15.04 4.26 125.1 0 0 5.163-14.754 15.04 4.26 125.1 0 0-12.133 9.856 15.04 4.26 125.1 0 0-5.163 14.754" vector-effect="non-scaling-stroke"/><path stroke="#92dbc1" d="M100.847 386.162a17.07 7.83 44.3 0 0-6.748-17.526 17.07 7.83 44.3 0 0-17.686-6.318 17.07 7.83 44.3 0 0 6.748 17.526 17.07 7.83 44.3 0 0 17.686 6.318m200.873-23.859a17.09 7.83-44.4 0 0-17.688 6.363 17.09 7.83-44.4 0 0-6.732 17.551 17.09 7.83-44.4 0 0 17.688-6.363 17.09 7.83-44.4 0 0 6.732-17.551m-161.964 30.966a19.12 11.3 29.1 0 0-11.21-19.173 19.12 11.3 29.1 0 0-22.202.575 19.12 11.3 29.1 0 0 11.21 19.173 19.12 11.3 29.1 0 0 22.202-.575m132.077-18.515a19.09 11.3-28.9 0 0-22.174-.667 19.09 11.3-28.9 0 0-11.252 19.119 19.09 11.3-28.9 0 0 22.174.667 19.09 11.3-28.9 0 0 11.252-19.119" vector-effect="non-scaling-stroke"/><path stroke="#87d5f1" d="M86.336 393.775a13.21 2.14 44.6 0 0-7.903-10.799 13.21 2.14 44.6 0 0-10.909-7.751 13.21 2.14 44.6 0 0 7.903 10.799 13.21 2.14 44.6 0 0 10.909 7.751" vector-effect="non-scaling-stroke"/><path stroke="#84d5f6" d="M310.623 375.327a13.15 2.14-44.6 0 0-10.866 7.71 13.15 2.14-44.6 0 0-7.86 10.756 13.15 2.14-44.6 0 0 10.866-7.71 13.15 2.14-44.6 0 0 7.86-10.756" vector-effect="non-scaling-stroke"/><path stroke="#92dbc1" d="M186.146 392.7a20.39 13.4 9.4 0 0-17.927-16.55 20.39 13.4 9.4 0 0-22.305 9.89 20.39 13.4 9.4 0 0 17.927 16.55 20.39 13.4 9.4 0 0 22.305-9.89m46.121-6.657a20.37 13.41-9.4 0 0-22.287-9.903 20.37 13.41-9.4 0 0-17.906 16.557 20.37 13.41-9.4 0 0 22.286 9.903 20.37 13.41-9.4 0 0 17.906-16.557" vector-effect="non-scaling-stroke"/><path stroke="#82d5e0" d="M112.85 405.853a14.98 4.26 34.4 0 0-9.953-11.978 14.98 4.26 34.4 0 0-14.767-4.948 14.98 4.26 34.4 0 0 9.953 11.978 14.98 4.26 34.4 0 0 14.767 4.948m177.175-16.998a14.98 4.23-34.5 0 0-14.74 4.999 14.98 4.23-34.5 0 0-9.95 11.97 14.98 4.23-34.5 0 0 14.74-4.998 14.98 4.23-34.5 0 0 9.95-11.97m-143.108 25.105a16.71 6.38 21.6 0 0-13.188-12.083 16.71 6.38 21.6 0 0-17.886-.22 16.71 6.38 21.6 0 0 13.188 12.084 16.71 6.38 21.6 0 0 17.886.22m115.43-12.256a16.71 6.36-21.5 0 0-17.878.207 16.71 6.36-21.5 0 0-13.216 12.041 16.71 6.36-21.5 0 0 17.878-.207 16.71 6.36-21.5 0 0 13.216-12.041" vector-effect="non-scaling-stroke"/><path stroke="#83d6f1" d="M277.062 405.573a12.63 1.67-26 0 0-12.084 4.036 12.63 1.67-26 0 0-10.62 7.038 12.63 1.67-26 0 0 12.084-4.036 12.63 1.67-26 0 0 10.62-7.038m-153.216 11.154a12.79 1.68 26.2 0 0-10.734-7.154 12.79 1.68 26.2 0 0-12.218-4.14 12.79 1.68 26.2 0 0 10.734 7.154 12.79 1.68 26.2 0 0 12.218 4.14" vector-effect="non-scaling-stroke"/><path stroke="#82d5e0" d="M186.505 415.688a17.8 7.62 6.8 0 0-16.773-9.674 17.8 7.62 6.8 0 0-18.577 5.458 17.8 7.62 6.8 0 0 16.773 9.674 17.8 7.62 6.8 0 0 18.577-5.458m40.524-4.192a17.78 7.63-6.7 0 0-18.55-5.504 17.78 7.63-6.7 0 0-16.768 9.652 17.78 7.63-6.7 0 0 18.55 5.504 17.78 7.63-6.7 0 0 16.768-9.652" vector-effect="non-scaling-stroke"/><path stroke="#84d5f6" d="M153.744 425.146a14.02 2.67 16.9 0 0-12.638-6.63 14.02 2.67 16.9 0 0-14.19-1.522 14.02 2.67 16.9 0 0 12.638 6.63 14.02 2.67 16.9 0 0 14.19 1.522" vector-effect="non-scaling-stroke"/><path stroke="#87d5f1" d="M251.146 417.013a13.99 2.62-16.9 0 0-14.148 1.56 13.99 2.62-16.9 0 0-12.624 6.574 13.99 2.62-16.9 0 0 14.148-1.56 13.99 2.62-16.9 0 0 12.624-6.574" vector-effect="non-scaling-stroke"/><path stroke="#84d5f6" d="M186.807 427.098a15.03 3.22 4.8 0 0-14.708-4.467 15.03 3.22 4.8 0 0-15.246 1.951 15.03 3.22 4.8 0 0 14.708 4.467 15.03 3.22 4.8 0 0 15.246-1.951m6.883 1.712q14.03 1.81 27.29-3.01 2-.72-.14-1.92c-5.57-3.11-22.16-1.18-27.97 1.51a1.16 1.08-5.7 0 0-.61.69q-.77 2.45 1.43 2.73" vector-effect="non-scaling-stroke"/><path stroke="#908f90" d="m604.69 208.42-.11 27.3a.51.49-89.4 0 0 .48.51q19.13.19 23.73-.08c19.4-1.14 19.02-28.43-2.79-27.95q-10.5.23-20.87-.2a.42.42 1.3 0 0-.44.42" vector-effect="non-scaling-stroke"/><path stroke="gray" d="M511.94 318.94c-.54-6.49-9.28-7.21-10.65-.08a.53.48-83.7 0 0 .46.64h9.75a.52.45 87.6 0 0 .44-.56m24.077 7.714a6.39 6.14 85.9 0 0 5.667-6.813 6.39 6.14 85.9 0 0-6.58-5.935 6.39 6.14 85.9 0 0-5.668 6.813 6.39 6.14 85.9 0 0 6.58 5.935m86.133.076a6.41 5.99 90.1 0 0 6.001-6.4 6.41 5.99 90.1 0 0-5.979-6.42 6.41 5.99 90.1 0 0-6.001 6.4 6.41 5.99 90.1 0 0 5.979 6.42m24.521-7.75c-.67-6.67-9.46-7.04-10.53.11a.48.38-84.9 0 0 .36.55l9.75-.11a.5.43 86.4 0 0 .42-.55m53.38 7.699a6.41 6.12 86.6 0 0 5.73-6.762 6.41 6.12 86.6 0 0-6.49-6.036 6.41 6.12 86.6 0 0-5.73 6.762 6.41 6.12 86.6 0 0 6.49 6.036m84.46-6.989a.57.54 81.9 0 0 .51-.73c-1.97-6.93-10.02-6.79-10.84.13a.51.47 3 0 0 .51.52l9.82.08" vector-effect="non-scaling-stroke"/><path stroke="#908f90" d="M869.013 320.253a5.85 5.53 7.3 0 0-5.1-6.228 5.85 5.53 7.3 0 0-6.506 4.742 5.85 5.53 7.3 0 0 5.1 6.228 5.85 5.53 7.3 0 0 6.506-4.742" vector-effect="non-scaling-stroke"/><path stroke="gray" d="M802.131 322.2a5.08 3.48-10.1 0 0-5.611-2.536 5.08 3.48-10.1 0 0-4.391 4.317 5.08 3.48-10.1 0 0 5.611 2.535 5.08 3.48-10.1 0 0 4.391-4.317M435.69 361.887a6.43 5.96 88.4 0 0 5.778-6.593 6.43 5.96 88.4 0 0-6.138-6.261 6.43 5.96 88.4 0 0-5.778 6.593 6.43 5.96 88.4 0 0 6.137 6.262m26.721-17.898.18 8.5a.54.49.7 0 0 .52.48c3.86.12 13.71 1.28 11.98-5.98q-.67-2.81-3.6-2.93l-8.49-.36a.56.3 1.8 0 0-.59.29m-59.809 13.365a5.19 3.47-10.6 0 0-5.74-2.456 5.19 3.47-10.6 0 0-4.462 4.366 5.19 3.47-10.6 0 0 5.74 2.456 5.19 3.47-10.6 0 0 4.462-4.366m90.879-3.305c-1.53-6.77-9.21-6.79-10.95.07a.51.49-82.6 0 0 .47.63h10a.57.51 82.8 0 0 .48-.7m41.344 7.868a6.42 6.11 91.3 0 0 6.254-6.28 6.42 6.11 91.3 0 0-5.962-6.556 6.42 6.11 91.3 0 0-6.254 6.28 6.42 6.11 91.3 0 0 5.962 6.556m36.164-4.42a5.24 3.48-8.8 0 0-5.71-2.637 5.24 3.48-8.8 0 0-4.646 4.24 5.24 3.48-8.8 0 0 5.71 2.638 5.24 3.48-8.8 0 0 4.646-4.24m35.627 4.437a6.45 6.16 88 0 0 5.931-6.661 6.45 6.16 88 0 0-6.381-6.231 6.45 6.16 88 0 0-5.931 6.661 6.45 6.16 88 0 0 6.381 6.231m72.305-12.346q-1.32-.84-3.23-.44-4.16.86-4.51 5.08a.57.48 1.9 0 0 .57.52H681a.76.45-1.8 0 0 .78-.5q-.31-3.06-2.86-4.66m92.18 7.746a5.19 3.51-10.7 0 0-5.752-2.485 5.19 3.51-10.7 0 0-4.448 4.413 5.19 3.51-10.7 0 0 5.752 2.485 5.19 3.51-10.7 0 0 4.448-4.413m33.712 4.621a6.47 6.16 88.3 0 0 5.965-6.65 6.47 6.16 88.3 0 0-6.349-6.284 6.47 6.16 88.3 0 0-5.965 6.65 6.47 6.16 88.3 0 0 6.349 6.284" vector-effect="non-scaling-stroke"/></g><path fill="#fff" d="M0 0h900v550H0V0Zm186.833 122.996a14.96 3.24-5 0 0-15.185-1.924 14.96 3.24-5 0 0-14.621 4.532 14.96 3.24-5 0 0 15.185 1.924 14.96 3.24-5 0 0 14.621-4.532Zm34.42 2.625a14.93 3.26 5 0 0-14.589-4.549 14.93 3.26 5 0 0-15.157 1.947 14.93 3.26 5 0 0 14.589 4.549 14.93 3.26 5 0 0 15.157-1.947Zm-67.647-.48a13.85 2.64-16.7 0 0-14.025 1.45 13.85 2.64-16.7 0 0-12.507 6.509 13.85 2.64-16.7 0 0 14.025-1.451 13.85 2.64-16.7 0 0 12.507-6.509Zm97.8 8.019a14.15 2.56 16.8 0 0-12.806-6.54 14.15 2.56 16.8 0 0-14.286-1.64 14.15 2.56 16.8 0 0 12.806 6.54 14.15 2.56 16.8 0 0 14.286 1.64Zm-64.878 1.34a17.83 7.63-6.7 0 0-18.598-5.498 17.83 7.63-6.7 0 0-16.818 9.658 17.83 7.63-6.7 0 0 18.598 5.498 17.83 7.63-6.7 0 0 16.818-9.658Zm40.627 4.202a17.84 7.62 6.8 0 0-16.813-9.678 17.84 7.62 6.8 0 0-18.617 5.454 17.84 7.62 6.8 0 0 16.813 9.678 17.84 7.62 6.8 0 0 18.617-5.454Zm-103.547-5.112a12.57 1.72-26.1 0 0-12.045 3.985 12.57 1.72-26.1 0 0-10.531 7.075 12.57 1.72-26.1 0 0 12.045-3.985 12.57 1.72-26.1 0 0 10.531-7.075Zm153.721 11.06a12.66 1.66 26.1 0 0-10.639-7.06 12.66 1.66 26.1 0 0-12.099-4.08 12.66 1.66 26.1 0 0 10.639 7.06 12.66 1.66 26.1 0 0 12.099 4.08Zm-14.817 3.816a16.79 6.35 21.4 0 0-13.315-12.038 16.79 6.35 21.4 0 0-17.95-.214 16.79 6.35 21.4 0 0 13.316 12.038 16.79 6.35 21.4 0 0 17.95.214Zm-115.576-12.214a16.74 6.35-21.4 0 0-17.903.196 16.74 6.35-21.4 0 0-13.269 12.02 16.74 6.35-21.4 0 0 17.903-.196 16.74 6.35-21.4 0 0 13.269-12.02Zm-33.976 7.982a15.07 4.24-34.5 0 0-14.822 5.042 15.07 4.24-34.5 0 0-10.018 12.03 15.07 4.24-34.5 0 0 14.822-5.042 15.07 4.24-34.5 0 0 10.018-12.03Zm177.2 17.146a15.04 4.24 34.6 0 0-9.972-12.03 15.04 4.24 34.6 0 0-14.788-5.05 15.04 4.24 34.6 0 0 9.972 12.03 15.04 4.24 34.6 0 0 14.788 5.05Zm-104.073-3.904a20.35 13.43-9.4 0 0-22.27-9.926 20.35 13.43-9.4 0 0-17.884 16.574 20.35 13.43-9.4 0 0 22.27 9.926 20.35 13.43-9.4 0 0 17.884-16.574Zm46.204 6.636a20.37 13.41 9.5 0 0-17.878-16.588 20.37 13.41 9.5 0 0-22.304 9.864 20.37 13.41 9.5 0 0 17.878 16.588 20.37 13.41 9.5 0 0 22.304-9.864Zm-92.524-7.187a19.09 11.31-29 0 0-22.18-.637 19.09 11.31-29 0 0-11.213 19.147 19.09 11.31-29 0 0 22.18.637 19.09 11.31-29 0 0 11.213-19.147Zm132.064 18.486a19.1 11.31 28.9 0 0-11.255-19.132 19.1 11.31 28.9 0 0-22.187.67 19.1 11.31 28.9 0 0 11.255 19.132 19.1 11.31 28.9 0 0 22.187-.67ZM86.248 156.416a13.09 2.18-44.8 0 0-10.824 7.677 13.09 2.18-44.8 0 0-7.752 10.77 13.09 2.18-44.8 0 0 10.824-7.676 13.09 2.18-44.8 0 0 7.752-10.77Zm224.367 18.498a13.18 2.18 44.6 0 0-7.854-10.806 13.18 2.18 44.6 0 0-10.916-7.702 13.18 2.18 44.6 0 0 7.854 10.806 13.18 2.18 44.6 0 0 10.916 7.702Zm-209.79-10.938a17.07 7.84-44.5 0 0-17.67 6.372 17.07 7.84-44.5 0 0-6.68 17.556 17.07 7.84-44.5 0 0 17.67-6.372 17.07 7.84-44.5 0 0 6.68-17.556Zm200.912 23.943a17.06 7.79 44.6 0 0-6.677-17.526 17.06 7.79 44.6 0 0-17.617-6.432 17.06 7.79 44.6 0 0 6.677 17.526 17.06 7.79 44.6 0 0 17.617 6.432Zm-245.275 12.2a14.99 4.3 125 0 0 12.12-9.813 14.99 4.3 125 0 0 5.076-14.745 14.99 4.3 125 0 0-12.12 9.813 14.99 4.3 125 0 0-5.076 14.745Zm265.435.064a15.05 4.3 54.7 0 0-5.188-14.768 15.05 4.3 54.7 0 0-12.206-9.798 15.05 4.3 54.7 0 0 5.188 14.768 15.05 4.3 54.7 0 0 12.206 9.798Zm-136.441-7.487a22.63 19.41-15.7 0 0-27.038-12.562 22.63 19.41-15.7 0 0-16.534 24.81 22.63 19.41-15.7 0 0 27.038 12.562 22.63 19.41-15.7 0 0 16.534-24.81Zm50.853 12.103a22.59 19.41 15.4 0 0-16.625-24.712 22.59 19.41 15.4 0 0-26.933 12.714 22.59 19.41 15.4 0 0 16.625 24.712 22.59 19.41 15.4 0 0 26.933-12.714Zm-104.853-16.703a21.24 16.4-43.7 0 0-26.686 2.817 21.24 16.4-43.7 0 0-4.026 26.531 21.24 16.4-43.7 0 0 26.686-2.817 21.24 16.4-43.7 0 0 4.026-26.531ZM277.377 217.5a21.23 16.37 43.9 0 0-3.946-26.516 21.23 16.37 43.9 0 0-26.648-2.926 21.23 16.37 43.9 0 0 3.946 26.516 21.23 16.37 43.9 0 0 26.648 2.926ZM521.8 187.12c-60.96 6.7-59.79 98.21 2.97 101.57q25.38 1.37 41.84-17.16a.64.6 44 0 0-.04-.85l-12.54-12.71a1.21 1.19-43 0 0-1.65-.04c-9.38 8.21-18.72 12.89-31.2 10.01-27.66-6.37-29.29-49.14-3.17-59.31 11.86-4.61 25.25.35 34.12 9.11a.5.39 43.6 0 0 .66.06l13.05-15.21a.63.55-46.7 0 0 .03-.79c-11.48-11.95-27.98-16.45-44.07-14.68Zm157.6 47.35c-2.13 36.83 29.89 61.79 65.39 52.49 9.68-2.54 17.68-8.05 24.39-15.35a.57.56 44.3 0 0-.02-.78l-12.94-13.3a.59.48-42.9 0 0-.74.05c-11.25 9.87-23.95 15.17-37.8 8.02-22.43-11.57-20.62-48.2 3.2-57.08 11.82-4.4 24.9.5 33.81 9.17a.54.5 43.3 0 0 .76.01l13.05-15.21a.63.58 43.3 0 0-.06-.81c-13.81-13.97-34.02-17.82-52.66-12.84-21.05 5.62-35.14 24.13-36.38 45.63ZM44.873 210.9a12.78 1.58 118.7 0 0 7.523-10.451 12.78 1.58 118.7 0 0 4.751-11.969 12.78 1.58 118.7 0 0-7.523 10.451 12.78 1.58 118.7 0 0-4.751 11.969Zm599.417 40.74c11.99-4.51 18.76-14 20.13-26.43 2.68-24.34-14.77-36.82-37.41-36.74q-21.68.07-43.31-.02a.55.48 90 0 0-.48.55l.02 97.75a.51.5 0 0 0 .51.5H604a.74.73 89.6 0 0 .73-.75l-.18-30.25a.7.45 89.4 0 1 .45-.71l16 .2a1.28 1.03 70.3 0 1 .93.57l20.15 30.39a1.06.42 61.1 0 0 .67.55H667q.67 0 .29-.55l-23.38-34.37a.58.42-25 0 1 .38-.69Zm-311.015-40.747a12.52 1.63 61.6 0 0-4.521-11.788 12.52 1.63 61.6 0 0-7.389-10.238 12.52 1.63 61.6 0 0 4.521 11.788 12.52 1.63 61.6 0 0 7.389 10.238Zm79.475-22.123a.27.27 0 0 0-.27-.27h-20.96a.27.27 0 0 0-.27.27v98.22a.27.27 0 0 0 .27.27h20.96a.27.27 0 0 0 .27-.27v-98.22Zm47 .01a.27.27 0 0 0-.27-.27h-21.02a.27.27 0 0 0-.27.27v98.2a.27.27 0 0 0 .27.27h21.02a.27.27 0 0 0 .27-.27v-98.2ZM69.218 226.357a19.13 11.39 120.3 0 0 19.486-10.77 19.13 11.39 120.3 0 0-.182-22.264 19.13 11.39 120.3 0 0-19.486 10.77 19.13 11.39 120.3 0 0 .182 22.264Zm239.855-.037a19.1 11.41 59.4 0 0 .098-22.248 19.1 11.41 59.4 0 0-19.544-10.632 19.1 11.41 59.4 0 0-.098 22.248 19.1 11.41 59.4 0 0 19.544 10.632Zm-261.06 7.565a16.76 6.48 112.4 0 0 12.378-13.026 16.76 6.48 112.4 0 0 .396-17.964 16.76 6.48 112.4 0 0-12.378 13.026 16.76 6.48 112.4 0 0-.396 17.964Zm282.258-.032a16.76 6.48 67.4 0 0-.459-17.963 16.76 6.48 67.4 0 0-12.423-12.983 16.76 6.48 67.4 0 0 .459 17.963 16.76 6.48 67.4 0 0 12.423 12.983Zm-293.45 5.503a13.04 2.82 106.3 0 0 6.366-11.725 13.04 2.82 106.3 0 0 .953-13.307 13.04 2.82 106.3 0 0-6.367 11.724 13.04 2.82 106.3 0 0-.953 13.308Zm304.528.042a13.05 2.85 73.9 0 0-.88-13.328 13.05 2.85 73.9 0 0-6.358-11.748 13.05 2.85 73.9 0 0 .88 13.328 13.05 2.85 73.9 0 0 6.358 11.748Zm-107.663 25.088a23.92 23.3 42 0 0-2.185-33.321 23.92 23.3 42 0 0-33.367 1.31 23.92 23.3 42 0 0 2.185 33.32 23.92 23.3 42 0 0 33.367-1.31Zm-53.582-31.953a23.91 23.29-41.8 0 0-33.348-1.425 23.91 23.29-41.8 0 0-2.3 33.299 23.91 23.29-41.8 0 0 33.348 1.425 23.91 23.29-41.8 0 0 2.3-33.299Zm-75.01 38.942a22.63 19.6 107.9 0 0 25.607-15.51 22.63 19.6 107.9 0 0-11.695-27.56 22.63 19.6 107.9 0 0-25.607 15.51 22.63 19.6 107.9 0 0 11.695 27.56Zm168.061.015a22.67 19.57 72 0 0 11.607-27.608 22.67 19.57 72 0 0-25.617-15.513 22.67 19.57 72 0 0-11.607 27.608 22.67 19.57 72 0 0 25.617 15.513Zm-203.598 1.184a20.46 13.6 100.4 0 0 17.07-17.669 20.46 13.6 100.4 0 0-9.684-22.579 20.46 13.6 100.4 0 0-17.07 17.669 20.46 13.6 100.4 0 0 9.684 22.579Zm239.196-.02a20.43 13.58 79.3 0 0 9.55-22.595 20.43 13.58 79.3 0 0-17.136-17.554 20.43 13.58 79.3 0 0-9.55 22.596 20.43 13.58 79.3 0 0 17.136 17.554ZM46 273.39a17.84 7.83 97.7 0 0 10.15-16.63 17.84 7.83 97.7 0 0-5.37-18.728 17.84 7.83 97.7 0 0-10.15 16.63A17.84 7.83 97.7 0 0 46 273.389Zm286.219-.04a17.83 7.86 82.3 0 0 5.4-18.722 17.83 7.86 82.3 0 0-10.178-16.616 17.83 7.86 82.3 0 0-5.4 18.722 17.83 7.86 82.3 0 0 10.178 16.616Zm-298.29.32a14.21 3.15 93.8 0 0 4.084-13.97 14.21 3.15 93.8 0 0-2.201-14.388 14.21 3.15 93.8 0 0-4.085 13.97 14.21 3.15 93.8 0 0 2.201 14.388Zm310.37-.022a14.24 3.16 86.1 0 0 2.184-14.422 14.24 3.16 86.1 0 0-4.122-13.992 14.24 3.16 86.1 0 0-2.184 14.422 14.24 3.16 86.1 0 0 4.121 13.992ZM35.772 304.889a14.23 3.14 86.2 0 0 2.19-14.407 14.23 3.14 86.2 0 0-4.076-13.99 14.23 3.14 86.2 0 0-2.19 14.406 14.23 3.14 86.2 0 0 4.076 13.99Zm14.974 7.344a17.9 7.81 82.4 0 0 5.374-18.776 17.9 7.81 82.4 0 0-10.108-16.71 17.9 7.81 82.4 0 0-5.374 18.776 17.9 7.81 82.4 0 0 10.108 16.71Zm276.711-.064a17.85 7.84 97.7 0 0 10.161-16.638 17.85 7.84 97.7 0 0-5.377-18.74 17.85 7.84 97.7 0 0-10.161 16.639 17.85 7.84 97.7 0 0 5.377 18.74Zm14.868-7.323a14.1 3.22 94 0 0 4.196-13.841 14.1 3.22 94 0 0-2.228-14.29 14.1 3.22 94 0 0-4.196 13.84 14.1 3.22 94 0 0 2.228 14.29ZM77.016 317.73a20.47 13.59 79.4 0 0 9.592-22.62 20.47 13.59 79.4 0 0-17.124-17.622 20.47 13.59 79.4 0 0-9.592 22.62 20.47 13.59 79.4 0 0 17.123 17.622Zm224.086-.024a20.48 13.6 100.8 0 0 17.197-17.569 20.48 13.6 100.8 0 0-9.521-22.665 20.48 13.6 100.8 0 0-17.197 17.569 20.48 13.6 100.8 0 0 9.521 22.665Zm-181.961 4.059a22.67 19.58 71.8 0 0 11.52-27.651 22.67 19.58 71.8 0 0-25.682-15.42 22.67 19.58 71.8 0 0-11.52 27.65 22.67 19.58 71.8 0 0 25.682 15.42Zm140.097.07a22.7 19.56 107.7 0 0 25.536-15.68 22.7 19.56 107.7 0 0-11.732-27.571 22.7 19.56 107.7 0 0-25.536 15.678 22.7 19.56 107.7 0 0 11.732 27.572Zm-79.015-4.357a23.92 23.28 41.4 0 0-2.548-33.282 23.92 23.28 41.4 0 0-33.338 1.644 23.92 23.28 41.4 0 0 2.548 33.282 23.92 23.28 41.4 0 0 33.338-1.644Zm53.697-31.596a23.92 23.32-41.3 0 0-33.361-1.732 23.92 23.32-41.3 0 0-2.58 33.306 23.92 23.32-41.3 0 0 33.362 1.733 23.92 23.32-41.3 0 0 2.58-33.307Zm532.82 20.907a.73.73 0 0 0-.73-.73h-.02a.73.73 0 0 0-.73.73v20.38a.73.73 0 0 0 .73.73h.02a.73.73 0 0 0 .73-.73v-20.38Zm-216.64 5.47q-.91-5.25 4.11-4.47a1.1.88-57.9 0 0 .83-.29c.75-.68-.03-1.08-.68-1.15q-6.34-.65-5.86 5.66a.64.52-8.6 0 1-.52.58q-4.16.88.04 1.54a.64.56-86.4 0 1 .48.62v12.5a1.06.28 34.5 0 0 .58.67q.18.13.42.08a.79.62 85.7 0 0 .5-.75v-12.5a.79.76-81.4 0 1 .99-.76q2.04.65 4-.17c.91-.38.12-1.04-.41-1.04q-2-.01-4.02-.07a.54.48 86.2 0 1-.46-.45Zm-157.35-4.7a.69.69 0 0 0-.69-.69h-.12a.69.69 0 0 0-.69.69v19.76a.69.69 0 0 0 .69.69h.12a.69.69 0 0 0 .69-.69v-19.76Zm56.77.35a1.07 1.07 0 0 0-1.07-1.07 1.07 1.07 0 0 0-1.07 1.07 1.07 1.07 0 0 0 1.07 1.07 1.07 1.07 0 0 0 1.07-1.07Zm123.132-.366a.66.66 0 0 0-.657-.664h-.06a.66.66 0 0 0-.663.656l-.104 19.72a.66.66 0 0 0 .657.664h.06a.66.66 0 0 0 .663-.656l.104-19.72Zm112.947 1.643a1.24 1.04 85.9 0 0 .948-1.311 1.24 1.04 85.9 0 0-1.126-1.163 1.24 1.04 85.9 0 0-.948 1.311 1.24 1.04 85.9 0 0 1.126 1.163Zm60.141-.207c-10.67 8.15.93 25.69 12.8 16.79q2.19-1.64.4-1.87a1.16.93-59.1 0 0-.86.32c-6.89 6.42-16.92-.5-14.75-8.91 1.74-6.73 9.14-9.33 14.51-4.81a1.76 1.27 59.8 0 0 .87.39q2.29.18.22-1.58c-3.68-3.14-9.33-3.27-13.19-.33Zm84.232.13a1.21 1.03 89.9 0 0 1.028-1.212 1.21 1.03 89.9 0 0-1.032-1.208 1.21 1.03 89.9 0 0-1.028 1.212 1.21 1.03 89.9 0 0 1.032 1.208ZM437.25 314h4.25a.81.67 8.8 0 0 .72-.43c.53-1.28-4.51-.83-5.15-.85a.54.37-89.5 0 1-.36-.54l.04-3.68a1.01.91 19.2 0 0-.43-.78c-1.13-.8-.9 4.11-.91 4.41a.6.46 90 0 1-.42.55q-4.21.37-.02 1.38a.78.46-89.5 0 1 .39.68c.3 4.1-2.26 15.65 6.15 12.8q1.24-.42.45-.93a1.45 1.18-29.6 0 0-.96-.16q-1.76.33-3.34-.3a1.05.68-84.9 0 1-.47-.89l-.39-10.76a.48.45 88.8 0 1 .45-.5Zm19.44.56q.08 4.81.24 9.63c.11 3.51 4.59 5.36 6.6 2.84q1.04-1.29-.73-.75c-5.04 1.53-4.49-1.91-4.55-5.41q-.06-3.09.07-6.22a.61.58 88.4 0 1 .51-.57c.52-.06 5.74.33 4.57-1.01a1.31.75-10.9 0 0-.9-.31l-3.75-.01a.55.47 89.4 0 1-.47-.54c-.02-.62.27-4.48-.65-4.44a.76.64 89.7 0 0-.62.75l-.01 2.97a1.42 1.12-10 0 1-1.02 1.15q-3.23.94.29 1.44a.49.48 4.1 0 1 .42.48Zm31.81-1.94q-4.22 1.16.19 1.48a.6.45-84.1 0 1 .4.66q-.68 5.4.05 10.81a1.79 1.09-80.3 0 0 .35.88c1.96 2.22 7.39 1.55 5.71.17a1.27.9-25.3 0 0-.95-.17q-1.86.38-3.45-.45a1.2.47-86.9 0 1-.33-1l-.18-10.25a.65.62 87.2 0 1 .57-.66c.96-.07 4.99.74 4.77-.86a.65.56-3.6 0 0-.63-.48h-4.24a.57.57 0 0 1-.57-.57l.05-3.68a.81.71-79.2 0 0-.43-.73c-1.23-.51-.82 3.83-.85 4.41a.62.42-9.6 0 1-.46.44Zm184.03 1.88.28 11.24a1.75 1.68-78.2 0 0 .94 1.5q2.29 1.13 4.75.58a.94.92-85.4 0 0 .65-.57c.67-1.69-5.22 1.08-5.16-3.73q.06-4.48-.09-8.63a1.1.88-.7 0 1 1.11-.91h3.47a.67.61-2.3 0 0 .67-.66c-.09-.99-3.57-.45-4.89-.71a.52.5-80.2 0 1-.4-.59c.87-5.51-2.02-5.22-1.19-.05a.6.5 80.7 0 1-.4.68q-4.03.58-.31 1.5a.69.26 11.1 0 1 .57.35ZM44.19 335.92a13.12 2.81 73.8 0 0-.962-13.384 13.12 2.81 73.8 0 0-6.358-11.815 13.12 2.81 73.8 0 0 .962 13.383 13.12 2.81 73.8 0 0 6.358 11.815Zm289.774-.075a12.98 2.84 106.5 0 0 6.409-11.638 12.98 2.84 106.5 0 0 .964-13.252 12.98 2.84 106.5 0 0-6.41 11.638 12.98 2.84 106.5 0 0-.964 13.252Zm352.254-22.776a.72.72 0 0 0-.722-.719h-.04a.72.72 0 0 0-.718.721l.024 14.2a.72.72 0 0 0 .722.719h.04a.72.72 0 0 0 .718-.721l-.024-14.2Zm144.532-.039a.73.73 0 0 0-.73-.73h-.04a.73.73 0 0 0-.73.73v14.24a.73.73 0 0 0 .73.73h.04a.73.73 0 0 0 .73-.73v-14.24Zm8.3.91q-.1-1.49-1.06-1.39a.73.52 88.4 0 0-.48.71l-.01 13.99a.65.61 6.5 0 0 .51.6q1.33.3 1.16-1.63-.44-4.96.11-8.5.57-3.68 4.29-3.89c7.08-.39 5.17 8.86 5.2 13.1a.77.39 86.8 0 0 .48.82q.23-.06.43.09.53.41.55-.64c.09-5.3 2.04-16.23-7.43-14.62q-.97.17-3.31 1.59a.29.29 71.9 0 1-.44-.23Zm-437.22.75q-.06-1.39-1.23-2.03a.41.4 14.7 0 0-.6.34v14.25a1.06.26 35 0 0 .59.67q.17.13.41.08a.85.58 86.6 0 0 .48-.8c.02-2.88-.78-9.4 1.12-11.58 2.79-3.22 7.94-2.29 8.59 2.39q.63 4.49.12 8.99a1.07.37 39.4 0 0 .45.73q.46.45.79.08a1.28 1.18 66.4 0 0 .3-.87c-.25-5.53 1.57-17.77-9.11-13.85a1.88 1.58-77.5 0 0-.77.59l-.85 1.11q-.28.37-.29-.1Zm25.86 9.5c-1.85 4.14-5.54 2.32-8.55.97-1.52-.68-1.96.55-.68 1.3 3.97 2.32 11.59 2.8 10.4-4.22a1.12 1.12 11.6 0 0-.51-.77q-2.9-1.83-6.21-2.84c-5.32-1.61-.05-6.29 4.72-3.87 1.36.68 2.9-.23.96-1.22-3.75-1.92-11.45-.74-8.55 4.99a1.64 1.28 81.8 0 0 .76.73l6.42 2.53q1.96.78 1.24 2.4Zm21.528-11.001a.63.63 0 0 0-.631-.63l-.22.001a.63.63 0 0 0-.63.631l.025 13.98a.63.63 0 0 0 .631.63l.22-.001a.63.63 0 0 0 .63-.631l-.025-13.98ZM479.79 326.3c.67 2.78 1.56 1.55 1.57-.08q.07-6.36-.11-12.75a1.12.91-76.7 0 0-.39-.81q-.97-.71-.92 1.09c.1 3.67.92 9.42-1.94 11.82q-3.37 2.82-7.17-.69a1.4 1.29-73.8 0 1-.42-.84c-.32-2.6-.1-11.57-1.16-11.4a.68.56 86.7 0 0-.48.66c.01 3.1-.83 9.76 1.03 12.24q3.73 4.97 9.49.58a.32.32-25 0 1 .5.18Zm24.95-13.54c-11.45 3.46-1.77 22.89 8.12 12.69a.54.53 62.5 0 0 .14-.45q-.02-.2-.18-.32a.77.52-35.6 0 0-.73.02c-4.62 2.48-9.05 3.56-10.87-2.95a.81.8-7.7 0 1 .78-1.01l10.93-.02a.59.57.5 0 0 .59-.56c.02-4.78-3.82-8.9-8.78-7.4Zm38.58 7.5a7.75 7.75 0 0 0-7.75-7.75 7.75 7.75 0 0 0-7.75 7.75 7.75 7.75 0 0 0 7.75 7.75 7.75 7.75 0 0 0 7.75-7.75Zm37.79-6.17q.14-1.52-1.08-1.46a1.13.28 89.9 0 0-.28 1.12V327a1.17.38 37.4 0 0 .51.74q.3.28.68.21a.99.37 88.5 0 0 .32-.93c-.01-4.16-1.58-11.43 3.82-12.92 7.49-2.07 6.38 7.57 6.14 13.16a.81.59-82.5 0 0 .41.75c.66.21.88-.4.88-.97-.03-3.59.82-9.87-1.28-12.6-1.73-2.23-5.49-2.71-8.13-.79q-.6.43-1.31.66a.53.3-11.6 0 1-.68-.22Zm19.18 3.46c-2.31-4.54 5.43-3.62 7.35-2.53a.67.56 33.8 0 0 .79-.08c1.47-1.72-6.74-3.91-9.15-.5q-1.32 1.85.07 4.29a1.41.8 73.7 0 0 .62.6l5.26 1.95q3.58 1.33 2.27 3.46c-1.91 3.11-5.58 2.05-8.33.4a.72.62 36.5 0 0-.82.06c-1.99 1.98 6.61 3.75 9.34 1.47q2.56-2.15.13-5.54a2.02 1.02 7.8 0 0-.87-.6l-5.89-2.32a1.54 1.26 1.4 0 1-.77-.66Zm15.97-2.57-.28-1.73a.95.66-89.5 0 0-.48-.7c-1.18-.4-.77 12.32-.73 19.15a1.12.86-76.4 0 0 .37.84c1.91 1.42.87-6.58.84-7.12q-.05-.94.58-.24c8.38 9.24 18.76-5.46 9.55-11.54q-4.49-2.97-9.44 1.47-.34.3-.41-.13Zm20.49 5.78 10.93.02a.48.48-88.1 0 0 .48-.45c.58-10.52-14.1-10.42-13.65.33.27 6.37 8.54 10.76 13.01 4.8a.77.55-49.8 0 0 .07-.86q-.31-.32-.86.13-5.17 4.25-9.76-.42-1.14-1.16-.78-3.01a.67.55-83.1 0 1 .56-.54Zm16.81-3.97c-3.94 7.67 5.76 15.22 12.28 9.02q1.04-.99-.05-1.37a.88.72-54 0 0-.83.22q-3.73 3.45-7.61 1.18c-7.35-4.3-.57-16.35 7.07-10.41.45.35 1.36.56 1.65.06a.72.55 37 0 0-.23-.8c-4.16-3.54-9.73-2.88-12.28 2.1Zm53.84 3.49a7.74 7.74 0 0 0-7.74-7.74 7.74 7.74 0 0 0-7.74 7.74 7.74 7.74 0 0 0 7.74 7.74 7.74 7.74 0 0 0 7.74-7.74Zm7.29-6.08c-.67-2.54-1.75-1.66-1.73.19q.06 6.41.05 12.8a.86.09 49.1 0 0 .43.62q.23.27.56.19a.8.65 84.6 0 0 .5-.75v-9.01q0-2.72 2.53-3.7c9.2-3.54 7.48 8.13 7.49 12.79a.74.54-80.1 0 0 .3.61q.2.1.43.06a.79.49-88.9 0 0 .44-.68q.36-3.55.29-7.16c-.12-6.48-4.64-10.3-10.78-5.77a.34.32 64.4 0 1-.51-.19Zm62.47-1.29c-10.41 3.5-1.64 22.32 8.36 12.78.26-.24.35-.99.1-1.18a.93.47-39.9 0 0-.89.21q-6.49 4.94-10.54-1.96-1.18-2.02.53-2.01l10.84.07a.63.51 1.9 0 0 .62-.47c.45-5.47-3.84-9.18-9.02-7.44Zm34.15 1.04q-.09-.98-.96-1.24a.55.47-83.2 0 0-.6.55v13.99a.52.5 1.2 0 0 .5.5l.51.01a.77.51-88.3 0 0 .54-.76l.28-10.33a1.38.7-35 0 1 .43-.8c2.13-2.22 6.1-3.07 8.18-.29 1.76 2.35 1.06 8.68 1.08 11.64a.53.48 90 0 0 .48.53h.5a.58.48-89.4 0 0 .48-.57c.15-8.04 1.28-18.43-10.96-12.94a.35.32 75.2 0 1-.46-.29Zm57.87 11.02c-.1 6.68-6.29 7.04-11.05 4.54-.6-.31-2-.66-1.65.61a1.33 1.15 10 0 0 .61.75q5.22 3.04 10.75.51 2.6-1.19 2.61-4.14l.04-13.74a.95.3 89.2 0 0-.33-.99q-1.04.15-1.05 1.32-.01 1.05-1.04.38-7.1-4.6-11.11 1.38c-5.13 7.65 4.89 14.56 11.32 8.96q.92-.8.9.42Zm-67.42 1.33q.26 1.1 1.31 1.28a.45.42-86.5 0 0 .49-.47q-.1-4.56-.17-9.1c-.09-5.93-6.36-6.17-10.6-4.54-.48.19-1.2.93-.56 1.34a1.14.7-32.8 0 0 .92-.02c3.37-1.4 9.15-1.39 8.83 3.7a.44.43 7.6 0 1-.53.39c-17.83-3.59-9.97 15.73-.14 7.27a.28.28 63 0 1 .45.15ZM60.833 347.29a16.81 6.48 67.5 0 0-.446-18.01 16.81 6.48 67.5 0 0-12.42-13.05 16.81 6.48 67.5 0 0 .446 18.01 16.81 6.48 67.5 0 0 12.42 13.05Zm256.574-.044a16.75 6.47 112.4 0 0 12.365-13.02 16.75 6.47 112.4 0 0 .4-17.952 16.75 6.47 112.4 0 0-12.364 13.02 16.75 6.47 112.4 0 0-.4 17.952ZM88.56 356.78a19.13 11.4 59.6 0 0 .153-22.269 19.13 11.4 59.6 0 0-19.513-10.73 19.13 11.4 59.6 0 0-.153 22.268 19.13 11.4 59.6 0 0 19.513 10.73Zm201.06-.004a19.11 11.44 120.5 0 0 19.557-10.66 19.11 11.44 120.5 0 0-.158-22.272 19.11 11.44 120.5 0 0-19.556 10.66 19.11 11.44 120.5 0 0 .158 22.272Zm-158.22 5.35a21.27 16.42 44 0 0-3.894-26.588 21.27 16.42 44 0 0-26.706-2.963 21.27 16.42 44 0 0 3.894 26.587 21.27 16.42 44 0 0 26.706 2.963Zm145.954-29.507a21.22 16.43-44 0 0-26.677 2.922 21.22 16.43-44 0 0-3.851 26.56 21.22 16.43-44 0 0 26.677-2.922 21.22 16.43-44 0 0 3.851-26.56Zm-41.067 12.585a22.6 19.4-15.7 0 0-27.007-12.56 22.6 19.4-15.7 0 0-16.507 24.792 22.6 19.4-15.7 0 0 27.007 12.56 22.6 19.4-15.7 0 0 16.507-24.792Zm-50.788 11.912a22.62 19.37 14.9 0 0-16.878-24.535 22.62 19.37 14.9 0 0-26.84 12.903 22.62 19.37 14.9 0 0 16.878 24.535 22.62 19.37 14.9 0 0 26.84-12.903Zm135.839 4.307a12.6 1.55 118.5 0 0 7.374-10.333 12.6 1.55 118.5 0 0 4.65-11.813 12.6 1.55 118.5 0 0-7.374 10.333 12.6 1.55 118.5 0 0-4.65 11.813ZM56.95 361.31a12.54 1.59 61.2 0 0-4.648-11.755 12.54 1.59 61.2 0 0-7.434-10.223 12.54 1.59 61.2 0 0 4.648 11.755 12.54 1.59 61.2 0 0 7.434 10.223Zm384.229-.249q.06 1.32.95 1.84a.35.31-74.3 0 0 .48-.3c.43-7.01 1.14-22.79-.78-21.21a1.22.75 78.6 0 0-.32.86l.01 8q0 .6-.51.12c-10.95-10.22-18.94 10.4-6.91 12.75q3.63.7 6.73-2.21.33-.31.35.15Zm281.57-13.14q-4.08 1.01-.01 1.41a.63.58 3.5 0 1 .58.6c-.09 3.5-.67 14.67 1.03 13.12a1.12 1-24.1 0 0 .36-.8l-.21-12.5a.65.61.5 0 1 .67-.62l4.33.1a.65.64 6.4 0 0 .65-.51c.26-1.18-3.71-.67-4.98-.8a.6.59 1.2 0 1-.54-.55q-.3-4.8 4.84-4.36 1.42.12.74-.91a1.23 1.19-13.8 0 0-.91-.53q-6.46-.54-5.98 5.95a.69.28-12.9 0 1-.57.4Zm-130.21-3.67q.46-.23.71-.75a.98.5 41.3 0 0-.34-.87q-1.81-1.84-1.1 1.19a.58.49 70.8 0 0 .73.43Zm121.974.051a1.23 1 104.4 0 0 1.275-.942 1.23 1 104.4 0 0-.663-1.44 1.23 1 104.4 0 0-1.275.942 1.23 1 104.4 0 0 .663 1.44Zm20.397-.04a1.17 1.02 102.8 0 0 1.254-.915 1.17 1.02 102.8 0 0-.736-1.367 1.17 1.02 102.8 0 0-1.254.915 1.17 1.02 102.8 0 0 .736 1.367Zm56.582-.016a1.18.95 85 0 0 .843-1.258 1.18.95 85 0 0-1.049-1.093 1.18.95 85 0 0-.843 1.259 1.18.95 85 0 0 1.049 1.092ZM650.86 360.84q7.55 5.22 14.2-.57.81-.7.1-1.31a.62.52-45.9 0 0-.77.08c-8.83 8.44-20.37-2.94-13.36-12.23q4.72-6.25 12.89-1.01c.5.32 1.62.87 1.33-.42a1.41 1.04 18.1 0 0-.54-.76c-10.33-7.44-21.43 3.09-15.84 13.95q.71 1.38 1.99 2.27ZM463 354.5h5.75a1.1.85 66.8 0 1 .77.43c.61.81 6.66 9.88 7.55 7.86a1.04.64 44.6 0 0-.22-.89l-5.5-7.03a.43.33-25.8 0 1 .28-.56q7.09-2.46 4.29-8.69c-1.96-4.38-10.64-3.11-14.45-3.12a.51.5 0 0 0-.51.5l-.22 19.25a.73.48 89.5 0 0 .5.75l.95-.06a.96.32 89.6 0 0 .31-.94v-7a.5.5 0 0 1 .5-.5Zm115.93-4.69q-.05 4.66.32 9.34c.46 5.83 7.42 4.27 6.34 2.67a.8.65-22.1 0 0-.81-.25c-6.21 1.59-4.3-8.24-4.26-11.78a.53.52-.6 0 1 .51-.51c.14 0 6.65.33 4.89-1.07a1.51.57-7.2 0 0-.92-.22l-4.18-.03a.74.44-86.8 0 1-.41-.79c.03-.39.64-5.09-.84-4a1.22.85-26 0 0-.51.91l.24 3.16a.61.41 84.3 0 1-.34.63q-4.3.57-.5 1.53a.61.36 10.6 0 1 .47.41Zm125.82-.56 4-.01a1.11.71 9.6 0 0 .86-.36c.8-1.31-3.93-.86-4.3-.9a1.35 1.35 5.6 0 1-1.2-1.46q.35-4.09-1.02-3.15a1.17.66 81.2 0 0-.33.88l-.01 3.5a.58.32-7.9 0 1-.49.37q-4.15.72-.01 1.24a.65.57-87.1 0 1 .5.64c-.02 4.35-2.07 13.64 5.25 13.18q1.46-.09 1.4-1.06a.49.43-10 0 0-.6-.36c-6.61 1.62-4.58-8.45-4.5-11.96a.56.45-89.4 0 1 .45-.55Zm77.28 12.24a2.6 2.01-81.5 0 1-1.26-2.25l-.01-9.49a.5.49-90 0 1 .49-.5h4.5a.65.53 1.4 0 0 .64-.5c.09-1.08-4.52-.77-5.26-.83a.5.49 5.8 0 1-.45-.54c.1-1.11.38-4.15-.65-4.33a.46.45-84.8 0 0-.53.45l.01 3.75a.97.76 80.4 0 1-.45.83q-.6.29-1.31.17a.8.56 13 0 0-.84.34q-.22.63 1.87.78a.8.8 2.9 0 1 .75.83c-.1 3.77-1.97 15.53 5.8 12.76a1.03.67-12.3 0 0 .69-.7q.03-.47-.33-.69a1.14.52-26.1 0 0-.87.02q-1.42.47-2.79-.1ZM518.5 349.25l4.25-.01a.85.54 4.8 0 0 .77-.4c.35-1.24-4.3-.86-4.97-.87a.55.47 0 0 1-.55-.47v-3.25a1.05.38-88.4 0 0-.31-.94q-.34-.1-.69-.06a.69.6 83.7 0 0-.52.75l.32 3.5q.13 1.43-1.06.74-1.3-.75-1.62.55a.58.36-1.9 0 0 .68.39q2.31-.32 1.68 2.31c-.66 2.77-.96 14.31 6.25 11.42a1.25.91-6.7 0 0 .69-.64c.29-.82-.47-.74-.99-.62-6.13 1.53-4.49-7.35-4.38-11.83a.58.45-89.4 0 1 .45-.57Zm197.028-.981a.62.62 0 0 0-.622-.619h-.04a.62.62 0 0 0-.619.621l.026 14.32a.62.62 0 0 0 .62.619h.04a.62.62 0 0 0 .62-.621l-.025-14.32ZM402.52 361.49q-.21 1.82 1.15 1.53a.99.34 85.2 0 0 .24-.96q-.31-4.03-.11-8.06c.32-6.35-6.34-7.4-10.91-5.29a.65.34-28.9 0 0-.46.69q.44.44 3.2-.07.43-.08 1.87-.11 4.21-.08 5.04 4.03a.83.82 1.7 0 1-1.02.95c-16.79-4.29-10.53 15.9.28 7.06q.83-.68.72.23Zm9.86-10.28q4.44-4.36 8.61-.03a1.62.72-84 0 1 .33 1.01q.19 3.08.14 9.8-.01 1.35 1.07 1.12a.65.58 84.1 0 0 .46-.64c-.04-3.48.79-9.21-1.03-12.07q-3.19-4.99-9.43-1.12a.76.68 68.8 0 1-1.05-.53q-.16-.67-.72-1.01-.51-.31-.51.76v14a.79.6-86.2 0 0 .5.75q.37.07.55-.19a1.13.15-53.6 0 0 .45-.81v-10a1.69.63-38.2 0 1 .63-1.04Zm68.8 2.63c-1.62 7.75 6.65 12.25 12.7 7.49q1.24-.98.26-1.39a.95.88 37.7 0 0-.88.08q-6.91 4.75-10.7-2.39a1.11 1.07 75.5 0 1 .92-1.63l10.69.03a.7.54 1.7 0 0 .69-.5c.78-9.01-11.74-11-13.68-1.69Zm19.56-4.5c-4.39 4.39 3.91 6.63 6.26 7.55 3.08 1.2 2.04 4.33-.8 4.79q-3.27.54-6.02-1.43a.52.44 34.1 0 0-.71.08c-1.43 2.4 11.07 5.76 10.82-1.77q-.07-2.26-2.3-3.05l-5.52-1.95a1.21 1 82.6 0 1-.64-.6c-2.42-4.88 4.27-3.95 6.95-2.83a1.56 1.13 40.8 0 0 .94.08q1.08-.34-.09-1.03c-2.77-1.65-6.42-2.31-8.89.16Zm33.157 13.928a7.83 7.6 97.8 0 0 8.593-6.727 7.83 7.6 97.8 0 0-6.467-8.789 7.83 7.6 97.8 0 0-8.593 6.727 7.83 7.6 97.8 0 0 6.467 8.789Zm16.453-12.448q-.78 1.01-.69-.26.2-2.75-.68-2.69a.64.52 88.1 0 0-.48.63v14a.53.5 1.8 0 0 .5.5l.26.01a.71.49 89 0 0 .5-.75c-.27-5.73-.55-12.3 6.04-12.95a.77.65 1.5 0 0 .65-.52c.79-3.5-5.7 1.51-6.1 2.03Zm20.46 10.98c.98 3.52 1.48-.59 1.44-1.1-.52-7.83.85-15.96-10.97-12.01a1.2.75-7 0 0-.73.59c-.25.7.83.69 1.29.54 3.4-1.06 10.08-1.04 8.62 4.15a.6.47 16.3 0 1-.71.28q-4.05-1.21-8.02.23-1.81.66-2.14 2.59c-1.21 7.16 6.21 7.16 10.67 4.51a.37.37 66.6 0 1 .55.22Zm22.202-13.449a.6.6 0 0 0-.599-.6l-.3-.001a.6.6 0 0 0-.6.599l-.025 14.06a.6.6 0 0 0 .599.6l.3.001a.6.6 0 0 0 .6-.599l.025-14.06Zm12.91 14.964a7.82 7.61 93.5 0 0 8.074-7.34 7.82 7.61 93.5 0 0-7.119-8.27 7.82 7.61 93.5 0 0-8.073 7.34 7.82 7.61 93.5 0 0 7.119 8.27Zm14.528-.255a.64.6 5.9 0 0 .77-.58l-.08-9.03q-.03-3.55 3.83-4.26c8.01-1.46 6.03 8.46 6.02 12.81a1.04.4-87.7 0 0 .32.94q.34.1.69.06a.89.51 89.7 0 0 .47-.82c.12-3.35.88-11.72-2.38-13.5q-4.54-2.49-7.73.74-1.05 1.05-1.12-.17-.08-1.2-1.16-1.48a.92.29-88.6 0 0-.33.98v13.75a.52.46-84.6 0 0 .36.5l.34.06Zm51.3-7.02 11 .12a.73.63 89.5 0 0 .64-.75q-.2-6.9-5.98-7.54c-13.76-1.52-7.65 23.49 4.76 13.33q.63-.52.52-1.08a.46.38-21.1 0 0-.64-.22q-1.06.56-2.09 1.18c-3.52 2.14-9.01.12-8.69-4.52a.55.47-87.6 0 1 .48-.52Zm18.48-5.06.02-2.48a.79.6-86.2 0 0-.5-.75q-.36-.06-.57.18a1.37.49-42.5 0 0-.43.82v13.75a.5.5 0 0 0 .5.5h.5a.57.48-89.4 0 0 .48-.56c.09-5.48-1.19-11.44 5.82-13.23q1.73-.44.58-1.31a1.02.91-33.7 0 0-.9-.13q-2.99.96-5.09 3.29-.42.46-.41-.08Zm45.782-2.469a.73.73 0 0 0-.729-.731h-.04a.73.73 0 0 0-.731.729l-.024 13.8a.73.73 0 0 0 .729.731h.04a.73.73 0 0 0 .731-.729l.024-13.8Zm6.468 3.719c-3.79 7.81 6.13 14.97 12.54 8.6a.67.45-44.1 0 0 .16-.77l-.23-.26a.82.4-37.9 0 0-.86.18q-5.13 3.91-8.88.15c-5.98-6 2.35-15.14 8.7-9.22a1.09.73 54.1 0 0 .86.32c.83-.19.44-1.02-.01-1.4-4.3-3.61-9.82-2.66-12.28 2.4Zm27.89-.79q1.86 3.48-2.59 2.38c-3.74-.93-10.52 1.7-7.7 6.82 1.96 3.58 7 3.13 9.84.94a.72.52-40.7 0 1 .83-.07q.21.2.25.51a1.34.36 87.1 0 0 .28.87c.78.82.98-.13.98-.72-.01-3.43 1.16-11.82-2.6-13.63q-3.86-1.86-8.29.25a.74.32-26.9 0 0-.55.66q.16.22.44.31a1.38.58 27.3 0 0 .88.07c2.54-.98 6.71-1.24 8.23 1.61Zm21.893-3.229a.43.43 0 0 0-.43-.43l-.64-.002a.43.43 0 0 0-.43.43l-.026 14.38a.43.43 0 0 0 .43.43l.64.002a.43.43 0 0 0 .43-.43l.026-14.38Zm12.51 15.087a7.8 7.59 88.8 0 0 7.425-7.957 7.8 7.59 88.8 0 0-7.751-7.64 7.8 7.59 88.8 0 0-7.425 7.958 7.8 7.59 88.8 0 0 7.751 7.64Zm14.567-12.718q4.44-3.41 8.14.65a1.59.59-86.4 0 1 .3.99q.17 2.9.19 10.03 0 1.77 1.18.77a1.08.94 70.4 0 0 .33-.84c-.42-6.23 1.41-19.38-10.76-12.87a.53.3-21.8 0 1-.72-.1q-.01-1.56-1.22-1.31a1.12.14 89.3 0 0-.12 1.09l.07 13.26a.73.59-85.2 0 0 .47.69q1.29.27 1.15-1.45-.45-5.64.37-10.19a1.3.37-33.2 0 1 .62-.72ZM73.696 374.53a14.93 4.3 54.8 0 0-5.092-14.679 14.93 4.3 54.8 0 0-12.12-9.721 14.93 4.3 54.8 0 0 5.092 14.679 14.93 4.3 54.8 0 0 12.12 9.721Zm230.856.065a15.04 4.26 125.1 0 0 12.133-9.856 15.04 4.26 125.1 0 0 5.163-14.754 15.04 4.26 125.1 0 0-12.133 9.856 15.04 4.26 125.1 0 0-5.163 14.754Zm-203.705 11.567a17.07 7.83 44.3 0 0-6.748-17.526 17.07 7.83 44.3 0 0-17.686-6.318 17.07 7.83 44.3 0 0 6.748 17.526 17.07 7.83 44.3 0 0 17.686 6.318Zm200.873-23.86a17.09 7.83-44.4 0 0-17.688 6.364 17.09 7.83-44.4 0 0-6.732 17.551 17.09 7.83-44.4 0 0 17.688-6.363 17.09 7.83-44.4 0 0 6.732-17.551ZM139.756 393.27a19.12 11.3 29.1 0 0-11.21-19.173 19.12 11.3 29.1 0 0-22.202.575 19.12 11.3 29.1 0 0 11.21 19.173 19.12 11.3 29.1 0 0 22.202-.575Zm132.077-18.515a19.09 11.3-28.9 0 0-22.174-.667 19.09 11.3-28.9 0 0-11.252 19.119 19.09 11.3-28.9 0 0 22.174.667 19.09 11.3-28.9 0 0 11.252-19.119Zm-185.497 19.02a13.21 2.14 44.6 0 0-7.903-10.799 13.21 2.14 44.6 0 0-10.909-7.751 13.21 2.14 44.6 0 0 7.903 10.799 13.21 2.14 44.6 0 0 10.909 7.751Zm224.287-18.448a13.15 2.14-44.6 0 0-10.866 7.71 13.15 2.14-44.6 0 0-7.86 10.756 13.15 2.14-44.6 0 0 10.866-7.71 13.15 2.14-44.6 0 0 7.86-10.756ZM186.146 392.7a20.39 13.4 9.4 0 0-17.927-16.55 20.39 13.4 9.4 0 0-22.305 9.89 20.39 13.4 9.4 0 0 17.927 16.55 20.39 13.4 9.4 0 0 22.305-9.89Zm46.12-6.657a20.37 13.41-9.4 0 0-22.286-9.903 20.37 13.41-9.4 0 0-17.906 16.557 20.37 13.41-9.4 0 0 22.286 9.903 20.37 13.41-9.4 0 0 17.906-16.557Zm-119.416 19.81a14.98 4.26 34.4 0 0-9.953-11.978 14.98 4.26 34.4 0 0-14.767-4.948 14.98 4.26 34.4 0 0 9.953 11.978 14.98 4.26 34.4 0 0 14.767 4.948Zm177.175-16.998a14.98 4.23-34.5 0 0-14.74 4.999 14.98 4.23-34.5 0 0-9.95 11.97 14.98 4.23-34.5 0 0 14.74-4.998 14.98 4.23-34.5 0 0 9.95-11.97Zm-143.108 25.106a16.71 6.38 21.6 0 0-13.188-12.083 16.71 6.38 21.6 0 0-17.886-.22 16.71 6.38 21.6 0 0 13.188 12.084 16.71 6.38 21.6 0 0 17.886.22Zm115.43-12.255a16.71 6.36-21.5 0 0-17.878.207 16.71 6.36-21.5 0 0-13.216 12.041 16.71 6.36-21.5 0 0 17.878-.207 16.71 6.36-21.5 0 0 13.216-12.041Zm14.715 3.867a12.63 1.67-26 0 0-12.084 4.036 12.63 1.67-26 0 0-10.62 7.038 12.63 1.67-26 0 0 12.084-4.036 12.63 1.67-26 0 0 10.62-7.038Zm-153.216 11.154a12.79 1.68 26.2 0 0-10.734-7.154 12.79 1.68 26.2 0 0-12.218-4.14 12.79 1.68 26.2 0 0 10.734 7.154 12.79 1.68 26.2 0 0 12.218 4.14Zm62.659-1.04a17.8 7.62 6.8 0 0-16.773-9.673 17.8 7.62 6.8 0 0-18.577 5.458 17.8 7.62 6.8 0 0 16.773 9.674 17.8 7.62 6.8 0 0 18.577-5.458Zm40.524-4.191a17.78 7.63-6.7 0 0-18.55-5.504 17.78 7.63-6.7 0 0-16.768 9.652 17.78 7.63-6.7 0 0 18.55 5.504 17.78 7.63-6.7 0 0 16.768-9.652Zm-73.285 13.65a14.02 2.67 16.9 0 0-12.638-6.63 14.02 2.67 16.9 0 0-14.19-1.522 14.02 2.67 16.9 0 0 12.638 6.63 14.02 2.67 16.9 0 0 14.19 1.522Zm97.402-8.133a13.99 2.62-16.9 0 0-14.148 1.56 13.99 2.62-16.9 0 0-12.624 6.574 13.99 2.62-16.9 0 0 14.148-1.56 13.99 2.62-16.9 0 0 12.624-6.574Zm-64.339 10.085a15.03 3.22 4.8 0 0-14.708-4.467 15.03 3.22 4.8 0 0-15.246 1.951 15.03 3.22 4.8 0 0 14.708 4.467 15.03 3.22 4.8 0 0 15.246-1.951Zm6.883 1.712q14.03 1.81 27.29-3.01 2-.72-.14-1.92c-5.57-3.11-22.16-1.18-27.97 1.51a1.16 1.08-5.7 0 0-.61.69q-.77 2.45 1.43 2.73Z"/><ellipse fill="#08abec" rx="14.96" ry="3.24" transform="rotate(-5 1509.434 -1906.772)"/><ellipse fill="#08abec" rx="14.93" ry="3.26" transform="rotate(5 -1320.508 2425.6)"/><ellipse fill="#08abec" rx="13.85" ry="2.64" transform="rotate(-16.7 510.025 -413.517)"/><ellipse fill="#06ace2" rx="14.15" ry="2.56" transform="rotate(16.8 -318.1 869.927)"/><ellipse fill="#04abc0" rx="17.83" ry="7.63" transform="rotate(-6.7 1251.057 -1373.747)"/><ellipse fill="#04abc0" rx="17.84" ry="7.62" transform="rotate(6.8 -1044.816 1830.933)"/><ellipse fill="#08abec" rx="12.57" ry="1.72" transform="rotate(-26.1 356.262 -172.73)"/><ellipse fill="#06ace2" rx="12.66" ry="1.66" transform="rotate(26.1 -167.036 643.255)"/><ellipse fill="#04abc0" rx="16.79" ry="6.35" transform="rotate(21.4 -253.217 724.458)"/><ellipse fill="#04abc0" rx="16.74" ry="6.35" transform="rotate(-21.4 442.385 -276.395)"/><ellipse fill="#04abc0" rx="15.07" ry="4.24" transform="rotate(-34.5 296.27 -85.51)"/><ellipse fill="#04abc0" rx="15.04" ry="4.24" transform="rotate(34.6 -106.466 522.344)"/><ellipse fill="#24b683" rx="20.35" ry="13.43" transform="rotate(-9.4 1060.93 -929.21)"/><ellipse fill="#24b683" rx="20.37" ry="13.41" transform="rotate(9.5 -861.183 1357.248)"/><ellipse fill="#24b683" rx="19.09" ry="11.31" transform="rotate(-29 382.82 -154.848)"/><ellipse fill="#24b683" rx="19.1" ry="11.31" transform="rotate(28.9 -194.89 578.09)"/><ellipse fill="#0fabe2" rx="13.09" ry="2.18" transform="rotate(-44.8 239.416 -10.54)"/><ellipse fill="#0fabe2" rx="13.18" ry="2.18" transform="rotate(44.6 -51.345 450.067)"/><ellipse fill="#24b683" rx="17.07" ry="7.84" transform="rotate(-44.5 259.352 -20.375)"/><ellipse fill="#24b683" rx="17.06" ry="7.79" transform="rotate(44.6 -69.698 441.017)"/><ellipse fill="#04abc0" rx="14.99" ry="4.3" transform="rotate(125 -16.362 110.854)"/><ellipse fill="#04abc0" rx="15.05" ry="4.3" transform="rotate(54.7 -25.036 396.708)"/><ellipse fill="#85c55b" rx="22.63" ry="19.41" transform="rotate(-15.7 802.866 -494.147)"/><ellipse fill="#85c55b" rx="22.59" ry="19.41" transform="rotate(15.4 -627.913 892.75)"/><ellipse fill="#85c55b" rx="21.24" ry="16.4" transform="rotate(-43.7 310.89 -43.384)"/><ellipse fill="#85c55b" rx="21.23" ry="16.37" transform="rotate(43.9 -120.54 426.542)"/><path fill="#211f20" d="M524.77 288.69c-62.76-3.36-63.93-94.87-2.97-101.57 16.09-1.77 32.59 2.73 44.07 14.68a.63.55-46.7 0 1-.03.79l-13.05 15.21a.5.39 43.6 0 1-.66-.06c-8.87-8.76-22.26-13.72-34.12-9.11-26.12 10.17-24.49 52.94 3.17 59.31 12.48 2.88 21.82-1.8 31.2-10.01a1.21 1.19-43 0 1 1.65.04l12.54 12.71a.64.6 44 0 1 .04.85q-16.46 18.53-41.84 17.16Zm220.02-1.73c-35.5 9.3-67.52-15.66-65.39-52.49 1.24-21.5 15.33-40.01 36.38-45.63 18.64-4.98 38.85-1.13 52.66 12.84a.63.58 43.3 0 1 .06.81l-13.05 15.21a.54.5 43.3 0 1-.76-.01c-8.91-8.67-21.99-13.57-33.81-9.17-23.82 8.88-25.63 45.51-3.2 57.08 13.85 7.15 26.55 1.85 37.8-8.02a.59.48-42.9 0 1 .74-.05l12.94 13.3a.57.56 44.3 0 1 .02.78c-6.71 7.3-14.71 12.81-24.39 15.35Z"/><ellipse fill="#0fabe2" rx="12.78" ry="1.58" transform="rotate(118.7 -33.66 114.959)"/><path fill="#211f20" d="m643.91 252.33 23.38 34.37q.38.55-.29.55h-24.25a1.06.42 61.1 0 1-.67-.55l-20.15-30.39a1.28 1.03 70.3 0 0-.93-.57l-16-.2a.7.45 89.4 0 0-.45.71l.18 30.25a.74.73 89.6 0 1-.73.75h-20.25a.51.5 0 0 1-.51-.5l-.02-97.75a.55.48-90 0 1 .48-.55q21.63.09 43.31.02c22.64-.08 40.09 12.4 37.41 36.74-1.37 12.43-8.14 21.92-20.13 26.43a.58.42-25 0 0-.38.69Zm-39.22-43.91-.11 27.3a.51.49-89.4 0 0 .48.51q19.13.19 23.73-.08c19.4-1.14 19.02-28.43-2.79-27.95q-10.5.23-20.87-.2a.42.42 1.3 0 0-.44.42Z"/><ellipse fill="#08abec" rx="12.52" ry="1.63" transform="rotate(61.6 -3.99 374.482)"/><rect width="21.5" height="98.76" x="391.25" y="188.5" fill="#211f20" rx=".27"/><rect width="21.56" height="98.74" x="438.19" y="188.51" fill="#211f20" rx=".27"/><ellipse fill="#24b683" rx="19.13" ry="11.39" transform="rotate(120.3 -20.775 127.55)"/><ellipse fill="#24b683" rx="19.1" ry="11.41" transform="rotate(59.4 -34.304 367.348)"/><ellipse fill="#04abc0" rx="16.76" ry="6.48" transform="rotate(112.4 -45.9 127.404)"/><ellipse fill="#04abc0" rx="16.76" ry="6.48" transform="rotate(67.4 -1.808 351.971)"/><path fill="#fff" d="M604.69 208.42a.42.42 1.3 0 1 .44-.42q10.37.43 20.87.2c21.81-.48 22.19 26.81 2.79 27.95q-4.6.27-23.73.08a.51.49-89.4 0 1-.48-.51l.11-27.3Z"/><ellipse fill="#08abec" rx="13.04" ry="2.82" transform="rotate(106.3 -64.763 128.589)"/><ellipse fill="#08abec" rx="13.05" ry="2.85" transform="rotate(73.9 18.065 337.929)"/><ellipse fill="#a9cf3a" rx="23.92" ry="23.3" transform="rotate(42 -215.701 405.472)"/><ellipse fill="#a9cf3a" rx="23.91" ry="23.29" transform="rotate(-41.8 406.48 -88.25)"/><ellipse fill="#85c55b" rx="22.63" ry="19.6" transform="rotate(107.9 -34.938 165.75)"/><ellipse fill="#85c55b" rx="22.67" ry="19.57" transform="rotate(72 -38.925 308.127)"/><ellipse fill="#24b683" rx="20.46" ry="13.6" transform="rotate(100.4 -68.583 156.79)"/><ellipse fill="#24b683" rx="20.43" ry="13.58" transform="rotate(79.3 .093 310.28)"/><ellipse fill="#04abc0" rx="17.84" ry="7.83" transform="rotate(97.7 -87.537 148.999)"/><ellipse fill="#04abc0" rx="17.83" ry="7.86" transform="rotate(82.3 18.627 316.553)"/><ellipse fill="#08abec" rx="14.21" ry="3.15" transform="rotate(93.8 -103.978 146.06)"/><ellipse fill="#08abec" rx="14.24" ry="3.16" transform="rotate(86.1 32.8 313.486)"/><ellipse fill="#06ace2" rx="14.23" ry="3.14" transform="rotate(86.2 -137.904 163.955)"/><ellipse fill="#04abc0" rx="17.9" ry="7.81" transform="rotate(82.4 -144.007 174.877)"/><ellipse fill="#04abc0" rx="17.85" ry="7.84" transform="rotate(97.7 36.253 291.367)"/><ellipse fill="#08abec" rx="14.1" ry="3.22" transform="rotate(94 36.077 305.46)"/><ellipse fill="#24b683" rx="20.47" ry="13.59" transform="rotate(79.4 -142.611 192.92)"/><ellipse fill="#24b683" rx="20.48" ry="13.6" transform="rotate(100.8 29.376 274.93)"/><ellipse fill="#85c55b" rx="22.67" ry="19.58" transform="rotate(71.8 -151.346 227.517)"/><ellipse fill="#85c55b" rx="22.7" ry="19.56" transform="rotate(107.7 23.41 247.32)"/><ellipse fill="#a9cf3a" rx="23.92" ry="23.28" transform="rotate(41.4 -318.02 365.56)"/><ellipse fill="#a9cf3a" rx="23.92" ry="23.32" transform="rotate(-41.3 508.204 -135.668)"/><rect width="1.48" height="21.84" x="765.26" y="306.06" rx=".73"/><path d="M550.56 312.71q2.02.06 4.02.07c.53 0 1.32.66.41 1.04q-1.96.82-4 .17a.79.76-81.4 0 0-.99.76v12.5a.79.62 85.7 0 1-.5.75q-.24.05-.42-.08a1.06.28 34.5 0 1-.58-.67v-12.5a.64.56-86.4 0 0-.48-.62q-4.2-.66-.04-1.54a.64.52-8.6 0 0 .52-.58q-.48-6.31 5.86-5.66c.65.07 1.43.47.68 1.15a1.1.88-57.9 0 1-.83.29q-5.02-.78-4.11 4.47a.54.48 86.2 0 0 .46.45Z"/><rect width="1.5" height="21.14" x="391.25" y="306.87" rx=".69"/><circle cx="448.45" cy="307.91" r="1.07"/><rect width="1.38" height="21.04" x="-.69" y="-10.52" fill="#211f20" rx=".66" transform="rotate(.3 -60332.841 109385.215)"/><ellipse rx="1.24" ry="1.04" transform="rotate(85.9 177.348 522.178)"/><path d="M758.54 325.77c-11.87 8.9-23.47-8.64-12.8-16.79 3.86-2.94 9.51-2.81 13.19.33q2.07 1.76-.22 1.58a1.76 1.27 59.8 0 1-.87-.39c-5.37-4.52-12.77-1.92-14.51 4.81-2.17 8.41 7.86 15.33 14.75 8.91a1.16.93-59.1 0 1 .86-.32q1.79.23-.4 1.87Z"/><ellipse rx="1.21" ry="1.03" transform="rotate(89.9 260.766 569.66)"/><path d="m436.8 314.5.39 10.76a1.05.68-84.9 0 0 .47.89q1.58.63 3.34.3a1.45 1.18-29.6 0 1 .96.16q.79.51-.45.93c-8.41 2.85-5.85-8.7-6.15-12.8a.78.46-89.5 0 0-.39-.68q-4.19-1.01.02-1.38a.6.46 90 0 0 .42-.55c.01-.3-.22-5.21.91-4.41a1.01.91 19.2 0 1 .43.78l-.04 3.68a.54.37-89.5 0 0 .36.54c.64.02 5.68-.43 5.15.85a.81.67 8.8 0 1-.72.43h-4.25a.48.45 88.8 0 0-.45.5Zm19.47-.42q-3.52-.5-.29-1.44a1.42 1.12-10 0 0 1.02-1.15l.01-2.97a.76.64 89.7 0 1 .62-.75c.92-.04.63 3.82.65 4.44a.55.47 89.4 0 0 .47.54l3.75.01a1.31.75-10.9 0 1 .9.31c1.17 1.34-4.05.95-4.57 1.01a.61.58 88.4 0 0-.51.57q-.13 3.13-.07 6.22c.06 3.5-.49 6.94 4.55 5.41q1.77-.54.73.75c-2.01 2.52-6.49.67-6.6-2.84q-.16-4.82-.24-9.63a.49.48 4.1 0 0-.42-.48Zm32.69-1.9c.03-.58-.38-4.92.85-4.41a.81.71-79.2 0 1 .43.73l-.05 3.68a.57.57 0 0 0 .57.57H495a.65.56-3.6 0 1 .63.48c.22 1.6-3.81.79-4.77.86a.65.62 87.2 0 0-.57.66l.18 10.25a1.2.47-86.9 0 0 .33 1q1.59.83 3.45.45a1.27.9-25.3 0 1 .95.17c1.68 1.38-3.75 2.05-5.71-.17a1.79 1.09-80.3 0 1-.35-.88q-.73-5.41-.05-10.81a.6.45-84.1 0 0-.4-.66q-4.41-.32-.19-1.48a.62.42-9.6 0 0 .46-.44Zm183 1.97q-3.72-.92.31-1.5a.6.5 80.7 0 0 .4-.68c-.83-5.17 2.06-5.46 1.19.05a.52.5-80.2 0 0 .4.59c1.32.26 4.8-.28 4.89.71a.67.61-2.3 0 1-.67.66h-3.47a1.1.88-.7 0 0-1.11.91q.15 4.15.09 8.63c-.06 4.81 5.83 2.04 5.16 3.73a.94.92-85.4 0 1-.65.57q-2.46.55-4.75-.58a1.75 1.68-78.2 0 1-.94-1.5l-.28-11.24a.69.26 11.1 0 0-.57-.35Z"/><ellipse fill="#06ace2" rx="13.12" ry="2.81" transform="rotate(73.8 -195.046 188.65)"/><ellipse fill="#08abec" rx="12.98" ry="2.84" transform="rotate(106.5 48.078 287.768)"/><rect width="1.48" height="15.64" x="-.74" y="-7.82" rx=".72" transform="rotate(-.1 183786.596 -392596.654)"/><rect width="1.5" height="15.7" x="829.25" y="312.3" rx=".73"/><path d="M839.49 314.17q2.34-1.42 3.31-1.59c9.47-1.61 7.52 9.32 7.43 14.62q-.02 1.05-.55.64-.2-.15-.43-.09a.77.39 86.8 0 1-.48-.82c-.03-4.24 1.88-13.49-5.2-13.1q-3.72.21-4.29 3.89-.55 3.54-.11 8.5.17 1.93-1.16 1.63a.65.61 6.5 0 1-.51-.6l.01-13.99a.73.52 88.4 0 1 .48-.71q.96-.1 1.06 1.39a.29.29 71.9 0 0 .44.23Zm-437.37.62.85-1.11a1.88 1.58-77.5 0 1 .77-.59c10.68-3.92 8.86 8.32 9.11 13.85a1.28 1.18 66.4 0 1-.3.87q-.33.37-.79-.08a1.07.37 39.4 0 1-.45-.73q.51-4.5-.12-8.99c-.65-4.68-5.8-5.61-8.59-2.39-1.9 2.18-1.1 8.7-1.12 11.58a.85.58 86.6 0 1-.48.8q-.24.05-.41-.08a1.06.26 35 0 1-.59-.67V313a.41.4 14.7 0 1 .6-.34q1.17.64 1.23 2.03.01.47.29.1Zm25.57 9.4q.72-1.62-1.24-2.4l-6.42-2.53a1.64 1.28 81.8 0 1-.76-.73c-2.9-5.73 4.8-6.91 8.55-4.99 1.94.99.4 1.9-.96 1.22-4.77-2.42-10.04 2.26-4.72 3.87q3.31 1.01 6.21 2.84a1.12 1.12 11.6 0 1 .51.77c1.19 7.02-6.43 6.54-10.4 4.22-1.28-.75-.84-1.98.68-1.3 3.01 1.35 6.7 3.17 8.55-.97Z"/><rect width="1.48" height="15.24" x="-.74" y="-7.62" rx=".63" transform="rotate(-.1 183673.825 -256805.686)"/><path d="M479.29 326.12q-5.76 4.39-9.49-.58c-1.86-2.48-1.02-9.14-1.03-12.24a.68.56 86.7 0 1 .48-.66c1.06-.17.84 8.8 1.16 11.4a1.4 1.29-73.8 0 0 .42.84q3.8 3.51 7.17.69c2.86-2.4 2.04-8.15 1.94-11.82q-.05-1.8.92-1.09a1.12.91-76.7 0 1 .39.81q.18 6.39.11 12.75c-.01 1.63-.9 2.86-1.57.08a.32.32-25 0 0-.5-.18Zm33.57-.67c-9.89 10.2-19.57-9.23-8.12-12.69 4.96-1.5 8.8 2.62 8.78 7.4a.59.57.5 0 1-.59.56l-10.93.02a.81.8-7.7 0 0-.78 1.01c1.82 6.51 6.25 5.43 10.87 2.95a.77.52-35.6 0 1 .73-.02q.16.12.18.32a.54.53 62.5 0 1-.14.45Zm-.92-6.51c-.54-6.49-9.28-7.21-10.65-.08a.53.48-83.7 0 0 .46.64h9.75a.52.45 87.6 0 0 .44-.56Zm31.38 1.32a7.75 7.75 0 0 1-7.75 7.75 7.75 7.75 0 0 1-7.75-7.75 7.75 7.75 0 0 1 7.75-7.75 7.75 7.75 0 0 1 7.75 7.75Zm-7.303 6.394a6.39 6.14 85.9 0 0 5.667-6.813 6.39 6.14 85.9 0 0-6.58-5.935 6.39 6.14 85.9 0 0-5.668 6.813 6.39 6.14 85.9 0 0 6.58 5.935Zm45.773-12.344q.71-.23 1.31-.66c2.64-1.92 6.4-1.44 8.13.79 2.1 2.73 1.25 9.01 1.28 12.6 0 .57-.22 1.18-.88.97a.81.59-82.5 0 1-.41-.75c.24-5.59 1.35-15.23-6.14-13.16-5.4 1.49-3.83 8.76-3.82 12.92a.99.37 88.5 0 1-.32.93q-.38.07-.68-.21a1.17.38 37.4 0 1-.51-.74v-13.25a1.13.28 89.9 0 1 .28-1.12q1.22-.06 1.08 1.46a.53.3-11.6 0 0 .68.22Zm25.85.71c-1.92-1.09-9.66-2.01-7.35 2.53a1.54 1.26 1.4 0 0 .77.66l5.89 2.32a2.02 1.02 7.8 0 1 .87.6q2.43 3.39-.13 5.54c-2.73 2.28-11.33.51-9.34-1.47a.72.62 36.5 0 1 .82-.06c2.75 1.65 6.42 2.71 8.33-.4q1.31-2.13-2.27-3.46l-5.26-1.95a1.41.8 73.7 0 1-.62-.6q-1.39-2.44-.07-4.29c2.41-3.41 10.62-1.22 9.15.5a.67.56 33.8 0 1-.79.08Zm9.03.09q4.95-4.44 9.44-1.47c9.21 6.08-1.17 20.78-9.55 11.54q-.63-.7-.58.24c.03.54 1.07 8.54-.84 7.12a1.12.86-76.4 0 1-.37-.84c-.04-6.83-.45-19.55.73-19.15a.95.66-89.5 0 1 .48.7l.28 1.73q.07.43.41.13Zm5.479 11.62a6.41 5.99 90.1 0 0 6.001-6.4 6.41 5.99 90.1 0 0-5.979-6.42 6.41 5.99 90.1 0 0-6.001 6.4 6.41 5.99 90.1 0 0 5.979 6.42Zm14.041-5.43q-.36 1.85.78 3.01 4.59 4.67 9.76.42.55-.45.86-.13a.77.55-49.8 0 1-.07.86c-4.47 5.96-12.74 1.57-13.01-4.8-.45-10.75 14.23-10.85 13.65-.33a.48.48-88.1 0 1-.48.45l-10.93-.02a.67.55-83.1 0 0-.56.54Zm10.48-2.32c-.67-6.67-9.46-7.04-10.53.11a.48.38-84.9 0 0 .36.55l9.75-.11a.5.43 86.4 0 0 .42-.55Zm19.17 6.83c-6.52 6.2-16.22-1.35-12.28-9.02 2.55-4.98 8.12-5.64 12.28-2.1a.72.55 37 0 1 .23.8c-.29.5-1.2.29-1.65-.06-7.64-5.94-14.42 6.11-7.07 10.41q3.88 2.27 7.61-1.18a.88.72-54 0 1 .83-.22q1.09.38.05 1.37Zm41.56-5.53a7.74 7.74 0 0 1-7.74 7.74 7.74 7.74 0 0 1-7.74-7.74 7.74 7.74 0 0 1 7.74-7.74 7.74 7.74 0 0 1 7.74 7.74Zm-7.35 6.399a6.41 6.12 86.6 0 0 5.73-6.762 6.41 6.12 86.6 0 0-6.49-6.036 6.41 6.12 86.6 0 0-5.73 6.762 6.41 6.12 86.6 0 0 6.49 6.036Zm15.15-12.289c6.14-4.53 10.66-.71 10.78 5.77q.07 3.61-.29 7.16a.79.49-88.9 0 1-.44.68q-.23.04-.43-.06a.74.54-80.1 0 1-.3-.61c-.01-4.66 1.71-16.33-7.49-12.79q-2.53.98-2.53 3.7v9.01a.8.65 84.6 0 1-.5.75q-.33.08-.56-.19a.86.09 49.1 0 1-.43-.62q.01-6.39-.05-12.8c-.02-1.85 1.06-2.73 1.73-.19a.34.32 64.4 0 0 .51.19Zm70.32 11.3c-10 9.54-18.77-9.28-8.36-12.78 5.18-1.74 9.47 1.97 9.02 7.44a.63.51 1.9 0 1-.62.47l-10.84-.07q-1.71-.01-.53 2.01 4.05 6.9 10.54 1.96a.93.47-39.9 0 1 .89-.21c.25.19.16.94-.1 1.18Zm-1.01-6a.57.54 81.9 0 0 .51-.73c-1.97-6.93-10.02-6.79-10.84.13a.51.47 3 0 0 .51.52l9.82.08Zm27.26-5.45c12.24-5.49 11.11 4.9 10.96 12.94a.58.48-89.4 0 1-.48.57h-.5a.53.48 90 0 1-.48-.53c-.02-2.96.68-9.29-1.08-11.64-2.08-2.78-6.05-1.93-8.18.29a1.38.7-35 0 0-.43.8L811.3 327a.77.51-88.3 0 1-.54.76l-.51-.01a.52.5 1.2 0 1-.5-.5v-13.99a.55.47-83.2 0 1 .6-.55q.87.26.96 1.24a.35.32 75.2 0 0 .46.29Z"/><path fill="#211f20" d="M869.18 324.97q.02-1.22-.9-.42c-6.43 5.6-16.45-1.31-11.32-8.96q4.01-5.98 11.11-1.38 1.03.67 1.04-.38.01-1.17 1.05-1.32a.95.3 89.2 0 1 .33.99l-.04 13.74q-.01 2.95-2.61 4.14-5.53 2.53-10.75-.51a1.33 1.15 10 0 1-.61-.75c-.35-1.27 1.05-.92 1.65-.61 4.76 2.5 10.95 2.14 11.05-4.54Zm-.167-4.717a5.85 5.53 7.3 0 0-5.1-6.228 5.85 5.53 7.3 0 0-6.506 4.742 5.85 5.53 7.3 0 0 5.1 6.228 5.85 5.53 7.3 0 0 6.506-4.742Z"/><path d="M801.31 326.15c-9.83 8.46-17.69-10.86.14-7.27a.44.43 7.6 0 0 .53-.39c.32-5.09-5.46-5.1-8.83-3.7a1.14.7-32.8 0 1-.92.02c-.64-.41.08-1.15.56-1.34 4.24-1.63 10.51-1.39 10.6 4.54q.07 4.54.17 9.1a.45.42-86.5 0 1-.49.47q-1.05-.18-1.31-1.28a.28.28 63 0 0-.45-.15Zm.821-3.95a5.08 3.48-10.1 0 0-5.611-2.536 5.08 3.48-10.1 0 0-4.391 4.317 5.08 3.48-10.1 0 0 5.611 2.535 5.08 3.48-10.1 0 0 4.391-4.317Z"/><path fill="#fff" d="M501.29 318.86c1.37-7.13 10.11-6.41 10.65.08a.52.45 87.6 0 1-.44.56h-9.75a.53.48-83.7 0 1-.46-.64Zm134.85.23c1.07-7.15 9.86-6.78 10.53-.11a.5.43 86.4 0 1-.42.55l-9.75.11a.48.38-84.9 0 1-.36-.55Zm148.37.6-9.82-.08a.51.47 3 0 1-.51-.52c.82-6.92 8.87-7.06 10.84-.13a.57.54 81.9 0 1-.51.73Z"/><ellipse fill="#fff" rx="6.39" ry="6.14" transform="rotate(85.9 95.75 447.802)"/><ellipse fill="#fff" rx="6.41" ry="5.99" transform="rotate(90.1 151.2 470.698)"/><ellipse fill="#fff" rx="6.41" ry="6.12" transform="rotate(86.6 179.899 531.376)"/><ellipse fill="#fff" rx="5.85" ry="5.53" transform="rotate(7.3 -2072.752 6925.696)"/><ellipse fill="#04abc0" rx="16.81" ry="6.48" transform="rotate(67.5 -221.057 206.588)"/><ellipse fill="#04abc0" rx="16.75" ry="6.47" transform="rotate(112.4 50.848 274.26)"/><ellipse fill="#fff" rx="5.08" ry="3.48" transform="rotate(-10.1 2226.657 -4348.738)"/><ellipse fill="#24b683" rx="19.13" ry="11.4" transform="rotate(59.6 -257.641 239.006)"/><ellipse fill="#24b683" rx="19.11" ry="11.44" transform="rotate(120.5 52.408 255.693)"/><ellipse fill="#85c55b" rx="21.27" ry="16.42" transform="rotate(44 -371.81 317.354)"/><ellipse fill="#85c55b" rx="21.22" ry="16.43" transform="rotate(-44 560.918 -150.668)"/><ellipse fill="#85c55b" rx="22.6" ry="19.4" transform="rotate(-15.7 1381.344 -602.344)"/><ellipse fill="#85c55b" rx="22.62" ry="19.37" transform="rotate(14.9 -1261.431 801.354)"/><ellipse fill="#06ace2" rx="12.6" ry="1.55" transform="rotate(118.5 59.457 272.551)"/><ellipse fill="#06ace2" rx="12.54" ry="1.59" transform="rotate(61.2 -270.724 218.202)"/><path d="M440.83 360.91q-3.1 2.91-6.73 2.21c-12.03-2.35-4.04-22.97 6.91-12.75q.51.48.51-.12l-.01-8a1.22.75 78.6 0 1 .32-.86c1.92-1.58 1.21 14.2.78 21.21a.35.31-74.3 0 1-.48.3q-.89-.52-.95-1.84-.02-.46-.35-.15Zm-5.14.977a6.43 5.96 88.4 0 0 5.778-6.593 6.43 5.96 88.4 0 0-6.138-6.261 6.43 5.96 88.4 0 0-5.778 6.593 6.43 5.96 88.4 0 0 6.137 6.262Zm287.63-14.367q-.48-6.49 5.98-5.95a1.23 1.19-13.8 0 1 .91.53q.68 1.03-.74.91-5.14-.44-4.84 4.36a.6.59 1.2 0 0 .54.55c1.27.13 5.24-.38 4.98.8a.65.64 6.4 0 1-.65.51l-4.33-.1a.65.61.5 0 0-.67.62l.21 12.5a1.12 1-24.1 0 1-.36.8c-1.7 1.55-1.12-9.62-1.03-13.12a.63.58 3.5 0 0-.58-.6q-4.07-.4.01-1.41a.69.28-12.9 0 0 .57-.4Zm-131.51-3.7q-.71-3.03 1.1-1.19a.98.5 41.3 0 1 .34.87q-.25.52-.71.75a.58.49 70.8 0 1-.73-.43Z"/><ellipse rx="1.23" ry="1" transform="rotate(104.4 224.338 448.79)"/><ellipse rx="1.17" ry="1.02" transform="rotate(102.8 230.63 465)"/><ellipse rx="1.18" ry=".95" transform="rotate(85 208.497 603.36)"/><path d="M650.86 360.84q-1.28-.89-1.99-2.27c-5.59-10.86 5.51-21.39 15.84-13.95a1.41 1.04 18.1 0 1 .54.76c.29 1.29-.83.74-1.33.42q-8.17-5.24-12.89 1.01c-7.01 9.29 4.53 20.67 13.36 12.23a.62.52-45.9 0 1 .77-.08q.71.61-.1 1.31-6.65 5.79-14.2.57ZM462.5 355v7a.96.32 89.6 0 1-.31.94l-.95.06a.73.48 89.5 0 1-.5-.75l.22-19.25a.51.5 0 0 1 .51-.5c3.81.01 12.49-1.26 14.45 3.12q2.8 6.23-4.29 8.69a.43.33-25.8 0 0-.28.56l5.5 7.03a1.04.64 44.6 0 1 .22.89c-.89 2.02-6.94-7.05-7.55-7.86a1.1.85 66.8 0 0-.77-.43H463a.5.5 0 0 0-.5.5Zm-.09-11.01.18 8.5a.54.49.7 0 0 .52.48c3.86.12 13.71 1.28 11.98-5.98q-.67-2.81-3.6-2.93l-8.49-.36a.56.3 1.8 0 0-.59.29Zm116.05 5.41q-3.8-.96.5-1.53a.61.41 84.3 0 0 .34-.63l-.24-3.16a1.22.85-26 0 1 .51-.91c1.48-1.09.87 3.61.84 4a.74.44-86.8 0 0 .41.79l4.18.03a1.51.57-7.2 0 1 .92.22c1.76 1.4-4.75 1.07-4.89 1.07a.53.52-.6 0 0-.51.51c-.04 3.54-1.95 13.37 4.26 11.78a.8.65-22.1 0 1 .81.25c1.08 1.6-5.88 3.16-6.34-2.67q-.37-4.68-.32-9.34a.61.36 10.6 0 0-.47-.41Zm125.84.4c-.08 3.51-2.11 13.58 4.5 11.96a.49.43-10 0 1 .6.36q.06.97-1.4 1.06c-7.32.46-5.27-8.83-5.25-13.18a.65.57-87.1 0 0-.5-.64q-4.14-.52.01-1.24a.58.32-7.9 0 0 .49-.37l.01-3.5a1.17.66 81.2 0 1 .33-.88q1.37-.94 1.02 3.15a1.35 1.35 5.6 0 0 1.2 1.46c.37.04 5.1-.41 4.3.9a1.11.71 9.6 0 1-.86.36l-4 .01a.56.45-89.4 0 0-.45.55Zm77.73 11.69q1.37.57 2.79.1a1.14.52-26.1 0 1 .87-.02q.36.22.33.69a1.03.67-12.3 0 1-.69.7c-7.77 2.77-5.9-8.99-5.8-12.76a.8.8 2.9 0 0-.75-.83q-2.09-.15-1.87-.78a.8.56 13 0 1 .84-.34q.71.12 1.31-.17a.97.76 80.4 0 0 .45-.83l-.01-3.75a.46.45-84.8 0 1 .53-.45c1.03.18.75 3.22.65 4.33a.5.49 5.8 0 0 .45.54c.74.06 5.35-.25 5.26.83a.65.53 1.4 0 1-.64.5h-4.5a.5.49-90 0 0-.49.5l.01 9.49a2.6 2.01-81.5 0 0 1.26 2.25Zm-263.98-11.67c-.11 4.48-1.75 13.36 4.38 11.83.52-.12 1.28-.2.99.62a1.25.91-6.7 0 1-.69.64c-7.21 2.89-6.91-8.65-6.25-11.42q.63-2.63-1.68-2.31a.58.36-1.9 0 1-.68-.39q.32-1.3 1.62-.55 1.19.69 1.06-.74l-.32-3.5a.69.6 83.7 0 1 .52-.75q.35-.04.69.06a1.05.38-88.4 0 1 .31.94v3.25a.55.47 0 0 0 .55.47c.67.01 5.32-.37 4.97.87a.85.54 4.8 0 1-.77.4l-4.25.01a.58.45-89.4 0 0-.45.57Z"/><path fill="#fff" d="M462.41 343.99a.56.3 1.8 0 1 .59-.29l8.49.36q2.93.12 3.6 2.93c1.73 7.26-8.12 6.1-11.98 5.98a.54.49.7 0 1-.52-.48l-.18-8.5Z"/><rect width="1.28" height="15.56" x="-.64" y="-7.78" rx=".62" transform="rotate(-.1 204003.787 -409429.709)"/><path d="M402.52 361.49q.11-.91-.72-.23c-10.81 8.84-17.07-11.35-.28-7.06a.83.82 1.7 0 0 1.02-.95q-.83-4.11-5.04-4.03-1.44.03-1.87.11-2.76.51-3.2.07a.65.34-28.9 0 1 .46-.69c4.57-2.11 11.23-1.06 10.91 5.29q-.2 4.03.11 8.06a.99.34 85.2 0 1-.24.96q-1.36.29-1.15-1.53Zm.081-4.135a5.19 3.47-10.6 0 0-5.74-2.456 5.19 3.47-10.6 0 0-4.462 4.366 5.19 3.47-10.6 0 0 5.74 2.456 5.19 3.47-10.6 0 0 4.462-4.366Zm9.779-6.145a1.69.63-38.2 0 0-.63 1.04v10a1.13.15-53.6 0 1-.45.81q-.18.26-.55.19a.79.6-86.2 0 1-.5-.75v-14q0-1.07.51-.76.56.34.72 1.01a.76.68 68.8 0 0 1.05.53q6.24-3.87 9.43 1.12c1.82 2.86.99 8.59 1.03 12.07a.65.58 84.1 0 1-.46.64q-1.08.23-1.07-1.12.05-6.72-.14-9.8a1.62.72-84 0 0-.33-1.01q-4.17-4.33-8.61.03Zm81.5 10.12c-6.05 4.76-14.32.26-12.7-7.49 1.94-9.31 14.46-7.32 13.68 1.69a.7.54 1.7 0 1-.69.5l-10.69-.03a1.11 1.07 75.5 0 0-.92 1.63q3.79 7.14 10.7 2.39a.95.88 37.7 0 1 .88-.08q.98.41-.26 1.39Zm-.4-7.28c-1.53-6.77-9.21-6.79-10.95.07a.51.49-82.6 0 0 .47.63h10a.57.51 82.8 0 0 .48-.7Zm13.52 2.84c-2.35-.92-10.65-3.16-6.26-7.55 2.47-2.47 6.12-1.81 8.89-.16q1.17.69.09 1.03a1.56 1.13 40.8 0 1-.94-.08c-2.68-1.12-9.37-2.05-6.95 2.83a1.21 1 82.6 0 0 .64.6l5.52 1.95q2.23.79 2.3 3.05c.25 7.53-12.25 4.17-10.82 1.77a.52.44 34.1 0 1 .71-.08q2.75 1.97 6.02 1.43c2.84-.46 3.88-3.59.8-4.79Zm26.897 6.378a7.83 7.6 97.8 0 1-6.467-8.79 7.83 7.6 97.8 0 1 8.593-6.726 7.83 7.6 97.8 0 1 6.467 8.79 7.83 7.6 97.8 0 1-8.593 6.726Zm.927-1.35a6.42 6.11 91.3 0 0 6.254-6.28 6.42 6.11 91.3 0 0-5.962-6.556 6.42 6.11 91.3 0 0-6.254 6.28 6.42 6.11 91.3 0 0 5.962 6.556Z"/><path d="M550.35 350.82c.4-.52 6.89-5.53 6.1-2.03a.77.65 1.5 0 1-.65.52c-6.59.65-6.31 7.22-6.04 12.95a.71.49 89 0 1-.5.75L549 363a.53.5 1.8 0 1-.5-.5v-14a.64.52 88.1 0 1 .48-.63q.88-.06.68 2.69-.09 1.27.69.26Zm19.91 10.76c-4.46 2.65-11.88 2.65-10.67-4.51q.33-1.93 2.14-2.59 3.97-1.44 8.02-.23a.6.47 16.3 0 0 .71-.28c1.46-5.19-5.22-5.21-8.62-4.15-.46.15-1.54.16-1.29-.54a1.2.75-7 0 1 .73-.59c11.82-3.95 10.45 4.18 10.97 12.01.04.51-.46 4.62-1.44 1.1a.37.37 66.6 0 0-.55-.22Zm.728-4.082a5.24 3.48-8.8 0 0-5.71-2.637 5.24 3.48-8.8 0 0-4.646 4.24 5.24 3.48-8.8 0 0 5.71 2.638 5.24 3.48-8.8 0 0 4.646-4.24Z"/><rect width="1.5" height="15.26" x="-.75" y="-7.63" rx=".6" transform="rotate(.1 -203321.565 339511.858)"/><path d="M605.923 363.315a7.82 7.61 93.5 0 1-7.119-8.27 7.82 7.61 93.5 0 1 8.073-7.34 7.82 7.61 93.5 0 1 7.119 8.27 7.82 7.61 93.5 0 1-8.073 7.34Zm.692-1.379a6.45 6.16 88 0 0 5.931-6.661 6.45 6.16 88 0 0-6.381-6.231 6.45 6.16 88 0 0-5.931 6.661 6.45 6.16 88 0 0 6.381 6.231Z"/><path d="m620.45 363.06-.34-.06a.52.46-84.6 0 1-.36-.5v-13.75a.92.29-88.6 0 1 .33-.98q1.08.28 1.16 1.48.07 1.22 1.12.17 3.19-3.23 7.73-.74c3.26 1.78 2.5 10.15 2.38 13.5a.89.51 89.7 0 1-.47.82q-.35.04-.69-.06a1.04.4-87.7 0 1-.32-.94c.01-4.35 1.99-14.27-6.02-12.81q-3.86.71-3.83 4.26l.08 9.03a.64.6 5.9 0 1-.77.58Zm50.82-6.5c-.32 4.64 5.17 6.66 8.69 4.52q1.03-.62 2.09-1.18a.46.38-21.1 0 1 .64.22q.11.56-.52 1.08c-12.41 10.16-18.52-14.85-4.76-13.33q5.78.64 5.98 7.54a.73.63 89.5 0 1-.64.75l-11-.12a.55.47-87.6 0 0-.48.52Zm7.65-6.97q-1.32-.84-3.23-.44-4.16.86-4.51 5.08a.57.48 1.9 0 0 .57.52H681a.76.45-1.8 0 0 .78-.5q-.31-3.06-2.86-4.66Zm11.72 1.47q2.1-2.33 5.09-3.29a1.02.91-33.7 0 1 .9.13q1.15.87-.58 1.31c-7.01 1.79-5.73 7.75-5.82 13.23a.57.48-89.4 0 1-.48.56h-.5a.5.5 0 0 1-.5-.5v-13.75a1.37.49-42.5 0 1 .43-.82q.21-.24.57-.18a.79.6-86.2 0 1 .5.75l-.02 2.48q-.01.54.41.08Z"/><rect width="1.5" height="15.26" x="-.75" y="-7.63" rx=".73" transform="rotate(.1 -203267.253 421444.817)"/><path d="M755.02 360.83c-6.41 6.37-16.33-.79-12.54-8.6 2.46-5.06 7.98-6.01 12.28-2.4.45.38.84 1.21.01 1.4a1.09.73 54.1 0 1-.86-.32c-6.35-5.92-14.68 3.22-8.7 9.22q3.75 3.76 8.88-.15a.82.4-37.9 0 1 .86-.18l.23.26a.67.45-44.1 0 1-.16.77Zm15.35-9.39c-1.52-2.85-5.69-2.59-8.23-1.61a1.38.58 27.3 0 1-.88-.07q-.28-.09-.44-.31a.74.32-26.9 0 1 .55-.66q4.43-2.11 8.29-.25c3.76 1.81 2.59 10.2 2.6 13.63 0 .59-.2 1.54-.98.72a1.34.36 87.1 0 1-.28-.87q-.04-.31-.25-.51a.72.52-40.7 0 0-.83.07c-2.84 2.19-7.88 2.64-9.84-.94-2.82-5.12 3.96-7.75 7.7-6.82q4.45 1.1 2.59-2.38Zm.73 5.896a5.19 3.51-10.7 0 0-5.752-2.485 5.19 3.51-10.7 0 0-4.448 4.413 5.19 3.51-10.7 0 0 5.752 2.485 5.19 3.51-10.7 0 0 4.448-4.413Z"/><rect width="1.5" height="15.24" x="-.75" y="-7.62" rx=".43" transform="rotate(.1 -203233.399 453673.68)"/><path d="M804.773 363.298a7.8 7.59 88.8 0 1-7.751-7.639 7.8 7.59 88.8 0 1 7.425-7.957 7.8 7.59 88.8 0 1 7.751 7.639 7.8 7.59 88.8 0 1-7.425 7.957Zm.039-1.34a6.47 6.16 88.3 0 0 5.965-6.65 6.47 6.16 88.3 0 0-6.349-6.285 6.47 6.16 88.3 0 0-5.965 6.65 6.47 6.16 88.3 0 0 6.349 6.284Z"/><path d="M818.72 351.3q-.82 4.55-.37 10.19.14 1.72-1.15 1.45a.73.59-85.2 0 1-.47-.69l-.07-13.26a1.12.14 89.3 0 1 .12-1.09q1.21-.25 1.22 1.31a.53.3-21.8 0 0 .72.1c12.17-6.51 10.34 6.64 10.76 12.87a1.08.94 70.4 0 1-.33.84q-1.18 1-1.18-.77-.02-7.13-.19-10.03a1.59.59-86.4 0 0-.3-.99q-3.7-4.06-8.14-.65a1.3.37-33.2 0 0-.62.72Z"/><ellipse fill="#fff" rx="6.43" ry="5.96" transform="rotate(88.4 34.991 401.652)"/><path fill="#fff" d="M482.53 354.12c1.74-6.86 9.42-6.84 10.95-.07a.57.51 82.8 0 1-.48.7h-10a.51.49-82.6 0 1-.47-.63Z"/><ellipse fill="#fff" rx="6.42" ry="6.11" transform="rotate(91.3 93.723 439.234)"/><ellipse fill="#fff" rx="6.45" ry="6.16" transform="rotate(88 119.135 491.713)"/><path fill="#fff" d="M678.92 349.59q2.55 1.6 2.86 4.66a.76.45-1.8 0 1-.78.5h-9.25a.57.48 1.9 0 1-.57-.52q.35-4.22 4.51-5.08 1.91-.4 3.23.44Z"/><ellipse fill="#fff" rx="6.47" ry="6.16" transform="rotate(88.3 219.211 592.172)"/><ellipse fill="#04abc0" rx="14.93" ry="4.3" transform="rotate(54.8 -316.958 243.95)"/><ellipse fill="#04abc0" rx="15.04" ry="4.26" transform="rotate(125.1 62.503 262.492)"/><ellipse fill="#fff" rx="5.19" ry="3.47" transform="rotate(-10.6 2129.982 -1963.305)"/><ellipse fill="#fff" rx="5.24" ry="3.48" transform="rotate(-8.8 2611.167 -3497.529)"/><ellipse fill="#fff" rx="5.19" ry="3.51" transform="rotate(-10.7 2296.026 -3910.657)"/><ellipse fill="#24b683" rx="17.07" ry="7.83" transform="rotate(44.3 -415.355 295.982)"/><ellipse fill="#24b683" rx="17.09" ry="7.83" transform="rotate(-44.4 603.303 -167.581)"/><ellipse fill="#24b683" rx="19.12" ry="11.3" transform="rotate(29.1 -678.162 429.031)"/><ellipse fill="#24b683" rx="19.09" ry="11.3" transform="rotate(-28.9 872.612 -303.03)"/><ellipse fill="#0fabe2" rx="13.21" ry="2.14" transform="rotate(44.6 -430.289 286.037)"/><ellipse fill="#08abec" rx="13.15" ry="2.14" transform="rotate(-44.6 619.457 -174.994)"/><ellipse fill="#24b683" rx="20.39" ry="13.4" transform="rotate(9.4 -2284.985 1204.416)"/><ellipse fill="#24b683" rx="20.37" ry="13.41" transform="rotate(-9.4 2474.085 -1095.652)"/><ellipse fill="#04abc0" rx="14.98" ry="4.26" transform="rotate(34.4 -591.635 361.01)"/><ellipse fill="#04abc0" rx="14.98" ry="4.23" transform="rotate(-34.5 778.662 -248.468)"/><ellipse fill="#04abc0" rx="16.71" ry="6.38" transform="rotate(21.6 -1003.217 548.264)"/><ellipse fill="#04abc0" rx="16.71" ry="6.36" transform="rotate(-21.5 1197.451 -446.052)"/><ellipse fill="#06ace2" rx="12.63" ry="1.67" transform="rotate(-26 1023.212 -369.903)"/><ellipse fill="#06ace2" rx="12.79" ry="1.68" transform="rotate(26.2 -827.07 446.98)"/><ellipse fill="#04abc0" rx="17.8" ry="7.62" transform="rotate(6.8 -3396.257 1627.656)"/><ellipse fill="#04abc0" rx="17.78" ry="7.63" transform="rotate(-6.7 3637.343 -1581.625)"/><ellipse fill="#08abec" rx="14.02" ry="2.67" transform="rotate(16.9 -1347.016 682.84)"/><ellipse fill="#0fabe2" rx="13.99" ry="2.62" transform="rotate(-16.9 1536.095 -589.681)"/><ellipse fill="#08abec" rx="15.03" ry="3.22" transform="rotate(4.8 -4994.202 2262.79)"/><path fill="#08abec" d="M193.69 428.81q-2.2-.28-1.43-2.73a1.16 1.08-5.7 0 1 .61-.69c5.81-2.69 22.4-4.62 27.97-1.51q2.14 1.2.14 1.92-13.26 4.82-27.29 3.01Z"/></svg>