<?xml version="1.0" encoding="UTF-8"?>
<svg xmlns="http://www.w3.org/2000/svg" xmlns:xlink="http://www.w3.org/1999/xlink" width="218.43pt" height="326pt" viewBox="0 0 218.43 326" version="1.1">
<defs>
<clipPath id="clip1">
  <path d="M 0 0 L 218.429688 0 L 218.429688 326 L 0 326 Z M 0 0 "/>
</clipPath>
</defs>
<g id="surface1">
<path style=" stroke:none;fill-rule:nonzero;fill:rgb(100%,100%,100%);fill-opacity:1;" d="M 199.425781 325 L 19 325 C 9.058594 325 1 316.941406 1 307 L 1 19 C 1 9.058594 9.058594 1 19 1 L 199.425781 1 C 209.367188 1 217.425781 9.058594 217.425781 19 L 217.425781 307 C 217.425781 316.941406 209.367188 325 199.425781 325 "/>
<path style=" stroke:none;fill-rule:nonzero;fill:rgb(13.699341%,12.199402%,12.5%);fill-opacity:1;" d="M 199.238281 325 L 19.1875 325 C 9.144531 325 1 316.855469 1 306.8125 L 1 213.6875 L 217.425781 213.6875 L 217.425781 306.8125 C 217.425781 316.855469 209.28125 325 199.238281 325 "/>
<g clip-path="url(#clip1)" clip-rule="nonzero">
<path style="fill:none;stroke-width:20;stroke-linecap:butt;stroke-linejoin:miter;stroke:rgb(13.699341%,12.199402%,12.5%);stroke-opacity:1;stroke-miterlimit:10;" d="M 1994.257813 10 L 190 10 C 90.585938 10 10 90.585938 10 190 L 10 3070 C 10 3169.414063 90.585938 3250 190 3250 L 1994.257813 3250 C 2093.671875 3250 2174.257813 3169.414063 2174.257813 3070 L 2174.257813 190 C 2174.257813 90.585938 2093.671875 10 1994.257813 10 Z M 1994.257813 10 " transform="matrix(0.1,0,0,-0.1,0,326)"/>
</g>
<path style=" stroke:none;fill-rule:nonzero;fill:rgb(51.799011%,77.2995%,36.099243%);fill-opacity:1;" d="M 83.441406 149.421875 C 83.984375 155.527344 90.011719 159.792969 95.8125 160.078125 C 101.511719 160.355469 107.539063 156.535156 107.527344 150.375 C 107.527344 143.792969 101.011719 139.070313 94.851563 138.886719 L 94.5 138.886719 C 88.710938 138.875 82.898438 143.148438 83.441406 149.421875 "/>
<path style=" stroke:none;fill-rule:nonzero;fill:rgb(51.799011%,77.2995%,36.099243%);fill-opacity:1;" d="M 123.566406 138.875 C 117.417969 139.070313 110.898438 143.785156 110.898438 150.363281 C 110.898438 156.535156 116.917969 160.347656 122.613281 160.070313 C 128.414063 159.78125 134.433594 155.519531 134.984375 149.410156 C 135.527344 143.136719 129.71875 138.863281 123.917969 138.863281 C 123.792969 138.875 123.679688 138.875 123.566406 138.875 "/>
<path style=" stroke:none;fill-rule:nonzero;fill:rgb(51.799011%,77.2995%,36.099243%);fill-opacity:1;" d="M 59.644531 146.324219 C 60.585938 151.746094 65.425781 156.484375 70.835938 157.40625 C 76.074219 158.296875 80.59375 154.523438 80.050781 149.113281 C 79.445313 143.167969 73.972656 137.796875 68.046875 137.195313 C 67.742188 137.164063 67.433594 137.152344 67.148438 137.152344 C 62.226563 137.164063 58.78125 141.335938 59.644531 146.324219 "/>
<path style=" stroke:none;fill-rule:nonzero;fill:rgb(51.799011%,77.2995%,36.099243%);fill-opacity:1;" d="M 150.390625 137.203125 C 144.445313 137.808594 138.984375 143.179688 138.378906 149.125 C 137.835938 154.535156 142.355469 158.308594 147.59375 157.414063 C 152.992188 156.492188 157.832031 151.757813 158.773438 146.335938 C 159.636719 141.34375 156.203125 137.164063 151.28125 137.164063 C 150.996094 137.164063 150.699219 137.171875 150.390625 137.203125 "/>
<path style=" stroke:none;fill-rule:nonzero;fill:rgb(51.799011%,77.2995%,36.099243%);fill-opacity:1;" d="M 56.90625 121.511719 C 57.226563 127.386719 61.601563 133.359375 67.742188 133.902344 C 74.136719 134.476563 78.542969 128.523438 78.359375 122.558594 C 78.164063 116.347656 73.316406 109.878906 66.707031 109.839844 L 66.644531 109.839844 C 60.484375 109.839844 56.589844 115.792969 56.90625 121.511719 "/>
<path style=" stroke:none;fill-rule:nonzero;fill:rgb(51.799011%,77.2995%,36.099243%);fill-opacity:1;" d="M 151.722656 109.839844 C 145.101563 109.878906 140.253906 116.347656 140.070313 122.558594 C 139.886719 128.523438 144.292969 134.476563 150.6875 133.902344 C 156.828125 133.359375 161.203125 127.386719 161.519531 121.511719 C 161.828125 115.78125 157.933594 109.839844 151.773438 109.839844 L 151.722656 109.839844 "/>
<path style=" stroke:none;fill-rule:nonzero;fill:rgb(51.799011%,77.2995%,36.099243%);fill-opacity:1;" d="M 67.742188 82.71875 C 61.601563 83.273438 57.226563 89.246094 56.90625 95.101563 C 56.589844 100.851563 60.503906 106.835938 66.707031 106.792969 C 73.316406 106.765625 78.164063 100.296875 78.359375 94.066406 C 78.535156 88.367188 74.527344 82.679688 68.59375 82.679688 C 68.304688 82.679688 68.027344 82.6875 67.742188 82.71875 "/>
<path style=" stroke:none;fill-rule:nonzero;fill:rgb(51.799011%,77.2995%,36.099243%);fill-opacity:1;" d="M 140.070313 94.074219 C 140.265625 100.296875 145.113281 106.765625 151.722656 106.804688 C 157.914063 106.847656 161.828125 100.859375 161.519531 95.109375 C 161.203125 89.257813 156.828125 83.28125 150.6875 82.730469 C 150.410156 82.699219 150.113281 82.6875 149.835938 82.6875 C 143.902344 82.679688 139.886719 88.367188 140.070313 94.074219 "/>
<path style=" stroke:none;fill-rule:nonzero;fill:rgb(51.799011%,77.2995%,36.099243%);fill-opacity:1;" d="M 70.835938 59.21875 C 65.425781 60.140625 60.585938 64.894531 59.644531 70.296875 C 58.722656 75.585938 62.648438 79.980469 68.039063 79.429688 C 73.960938 78.824219 79.433594 73.453125 80.039063 67.507813 C 80.523438 62.628906 76.902344 59.085938 72.351563 59.085938 C 71.859375 59.085938 71.347656 59.125 70.835938 59.21875 "/>
<path style=" stroke:none;fill-rule:nonzero;fill:rgb(51.799011%,77.2995%,36.099243%);fill-opacity:1;" d="M 138.378906 67.507813 C 138.984375 73.453125 144.457031 78.824219 150.390625 79.429688 C 155.773438 79.980469 159.695313 75.585938 158.773438 70.296875 C 157.832031 64.894531 152.992188 60.140625 147.59375 59.21875 C 147.070313 59.125 146.566406 59.085938 146.066406 59.085938 C 141.515625 59.085938 137.886719 62.640625 138.378906 67.507813 "/>
<path style=" stroke:none;fill-rule:nonzero;fill:rgb(51.799011%,77.2995%,36.099243%);fill-opacity:1;" d="M 95.8125 56.554688 C 90.011719 56.839844 83.984375 61.105469 83.441406 67.222656 C 82.890625 73.605469 88.945313 77.921875 94.851563 77.746094 C 101.011719 77.5625 107.519531 72.839844 107.527344 66.257813 C 107.539063 60.304688 101.910156 56.53125 96.398438 56.53125 C 96.214844 56.53125 96.019531 56.53125 95.8125 56.554688 "/>
<path style=" stroke:none;fill-rule:nonzero;fill:rgb(51.799011%,77.2995%,36.099243%);fill-opacity:1;" d="M 110.890625 66.257813 C 110.890625 72.839844 117.410156 77.5625 123.558594 77.746094 C 129.472656 77.921875 135.519531 73.605469 134.976563 67.222656 C 134.421875 61.113281 128.40625 56.839844 122.605469 56.554688 C 122.410156 56.542969 122.203125 56.542969 122.019531 56.542969 C 116.515625 56.53125 110.890625 60.304688 110.890625 66.257813 "/>
<path style=" stroke:none;fill-rule:nonzero;fill:rgb(65.899658%,81.199646%,22.399902%);fill-opacity:1;" d="M 81.957031 122.671875 C 82.140625 129.484375 87.953125 135.246094 94.757813 135.410156 C 101.625 135.59375 107.519531 129.925781 107.519531 123.027344 C 107.519531 115.976563 101.449219 109.972656 94.410156 109.941406 L 94.390625 109.941406 C 87.5 109.929688 81.773438 115.78125 81.957031 122.671875 "/>
<path style=" stroke:none;fill-rule:nonzero;fill:rgb(65.899658%,81.199646%,22.399902%);fill-opacity:1;" d="M 124.019531 109.929688 C 116.96875 109.949219 110.910156 115.96875 110.910156 123.019531 C 110.910156 129.917969 116.792969 135.585938 123.660156 135.398438 C 130.464844 135.226563 136.265625 129.476563 136.472656 122.671875 C 136.65625 115.773438 130.925781 109.929688 124.050781 109.929688 L 124.019531 109.929688 "/>
<path style=" stroke:none;fill-rule:nonzero;fill:rgb(65.899658%,81.199646%,22.399902%);fill-opacity:1;" d="M 94.757813 81.210938 C 87.953125 81.398438 82.152344 87.144531 81.957031 93.953125 C 81.761719 100.851563 87.511719 106.691406 94.398438 106.691406 C 101.449219 106.683594 107.507813 100.65625 107.507813 93.59375 C 107.507813 86.808594 101.800781 81.210938 95.066406 81.210938 L 94.757813 81.210938 "/>
<path style=" stroke:none;fill-rule:nonzero;fill:rgb(65.899658%,81.199646%,22.399902%);fill-opacity:1;" d="M 110.910156 93.605469 C 110.910156 100.65625 116.976563 106.683594 124.019531 106.691406 C 130.90625 106.691406 136.65625 100.851563 136.472656 93.953125 C 136.277344 87.144531 130.476563 81.398438 123.671875 81.210938 L 123.363281 81.210938 C 116.621094 81.210938 110.898438 86.808594 110.910156 93.605469 "/>
<path style=" stroke:none;fill-rule:nonzero;fill:rgb(10.198975%,71.398926%,51.399231%);fill-opacity:1;" d="M 85.984375 169.816406 C 86.835938 174.726563 92.921875 177.054688 97.28125 177.351563 C 101.203125 177.605469 107.570313 176.089844 107.558594 171.109375 C 107.550781 165.625 100.507813 162.949219 95.976563 162.703125 C 95.78125 162.703125 95.578125 162.695313 95.371094 162.695313 C 91.242188 162.683594 85.113281 164.722656 85.984375 169.816406 "/>
<path style=" stroke:none;fill-rule:nonzero;fill:rgb(10.198975%,71.398926%,51.399231%);fill-opacity:1;" d="M 122.441406 162.695313 C 117.921875 162.941406 110.878906 165.625 110.871094 171.097656 C 110.859375 176.078125 117.222656 177.597656 121.160156 177.339844 C 125.496094 177.042969 131.59375 174.714844 132.445313 169.808594 C 133.324219 164.714844 127.1875 162.671875 123.054688 162.671875 C 122.839844 162.683594 122.636719 162.695313 122.441406 162.695313 "/>
<path style=" stroke:none;fill-rule:nonzero;fill:rgb(10.198975%,71.398926%,51.399231%);fill-opacity:1;" d="M 64.359375 165.605469 C 65.84375 170.042969 70.773438 173.15625 75.140625 174.171875 C 78.535156 174.941406 83.8125 174.007813 82.917969 169.40625 C 81.925781 164.355469 76.042969 160.765625 71.339844 159.914063 C 70.816406 159.835938 70.292969 159.78125 69.761719 159.78125 C 66.398438 159.792969 63.027344 161.636719 64.359375 165.605469 "/>
<path style=" stroke:none;fill-rule:nonzero;fill:rgb(10.198975%,71.398926%,51.399231%);fill-opacity:1;" d="M 147.089844 159.9375 C 142.375 160.777344 136.492188 164.363281 135.507813 169.40625 C 134.605469 174.007813 139.886719 174.941406 143.277344 174.152344 C 147.644531 173.15625 152.585938 170.03125 154.058594 165.605469 C 155.390625 161.636719 152.019531 159.792969 148.667969 159.792969 C 148.136719 159.792969 147.601563 159.835938 147.089844 159.9375 "/>
<path style=" stroke:none;fill-rule:nonzero;fill:rgb(10.198975%,71.398926%,51.399231%);fill-opacity:1;" d="M 48.277344 159.507813 C 49.96875 163.339844 53.484375 166.804688 57.308594 168.453125 C 60.382813 169.796875 63.179688 168.484375 61.917969 164.886719 C 60.402344 160.59375 56.230469 156.503906 51.9375 155.015625 C 51.3125 154.800781 50.757813 154.6875 50.277344 154.6875 C 47.960938 154.699219 47.140625 156.914063 48.277344 159.507813 "/>
<path style=" stroke:none;fill-rule:nonzero;fill:rgb(10.198975%,71.398926%,51.399231%);fill-opacity:1;" d="M 166.480469 155.007813 C 162.199219 156.503906 158.007813 160.59375 156.5 164.886719 C 155.226563 168.484375 158.027344 169.796875 161.101563 168.453125 C 164.933594 166.792969 168.46875 163.328125 170.140625 159.507813 C 171.289063 156.914063 170.460938 154.6875 168.140625 154.6875 C 167.648438 154.699219 167.085938 154.789063 166.480469 155.007813 "/>
<path style=" stroke:none;fill-rule:nonzero;fill:rgb(10.198975%,71.398926%,51.399231%);fill-opacity:1;" d="M 42.519531 141.90625 C 43.5625 146.316406 46.78125 151.195313 51.238281 152.671875 C 55.8125 154.175781 57.707031 149.625 57 145.792969 C 56.128906 141.035156 52.429688 135.246094 47.355469 134.222656 C 46.984375 134.160156 46.636719 134.128906 46.308594 134.128906 C 42.597656 134.128906 41.78125 138.730469 42.519531 141.90625 "/>
<path style=" stroke:none;fill-rule:nonzero;fill:rgb(10.198975%,71.398926%,51.399231%);fill-opacity:1;" d="M 171.0625 134.222656 C 165.988281 135.234375 162.289063 141.027344 161.410156 145.804688 C 160.710938 149.636719 162.609375 154.1875 167.167969 152.671875 C 171.636719 151.175781 174.855469 146.316406 175.890625 141.90625 C 176.640625 138.730469 175.820313 134.128906 172.089844 134.128906 C 171.769531 134.128906 171.421875 134.160156 171.0625 134.222656 "/>
<path style=" stroke:none;fill-rule:nonzero;fill:rgb(10.198975%,71.398926%,51.399231%);fill-opacity:1;" d="M 39.226563 119.894531 C 39.546875 124.332031 42.015625 130.386719 46.964844 131.25 C 52.347656 132.203125 54.40625 125.5 54.160156 121.316406 C 53.894531 116.695313 51.066406 109.695313 45.53125 109.644531 L 45.460938 109.644531 C 40.476563 109.652344 38.921875 115.925781 39.226563 119.894531 "/>
<path style=" stroke:none;fill-rule:nonzero;fill:rgb(10.198975%,71.398926%,51.399231%);fill-opacity:1;" d="M 172.898438 109.652344 C 167.363281 109.726563 164.535156 116.703125 164.269531 121.328125 C 164.03125 125.507813 166.070313 132.210938 171.472656 131.257813 C 176.414063 130.398438 178.894531 124.332031 179.199219 119.914063 C 179.496094 115.9375 177.941406 109.664063 172.96875 109.664063 L 172.898438 109.664063 L 172.898438 109.652344 "/>
<path style=" stroke:none;fill-rule:nonzero;fill:rgb(10.198975%,71.398926%,51.399231%);fill-opacity:1;" d="M 46.957031 85.363281 C 42.015625 86.246094 39.546875 92.300781 39.226563 96.730469 C 38.929688 100.726563 40.488281 107.050781 45.53125 106.980469 C 51.066406 106.917969 53.882813 99.917969 54.160156 95.296875 C 54.386719 91.398438 52.613281 85.269531 47.96875 85.269531 C 47.652344 85.269531 47.316406 85.300781 46.957031 85.363281 "/>
<path style=" stroke:none;fill-rule:nonzero;fill:rgb(10.198975%,71.398926%,51.399231%);fill-opacity:1;" d="M 164.269531 95.296875 C 164.523438 99.925781 167.363281 106.917969 172.898438 106.980469 C 177.941406 107.039063 179.496094 100.726563 179.199219 96.730469 C 178.882813 92.300781 176.414063 86.246094 171.472656 85.371094 C 171.113281 85.3125 170.785156 85.28125 170.46875 85.28125 C 165.816406 85.269531 164.042969 91.398438 164.269531 95.296875 "/>
<path style=" stroke:none;fill-rule:nonzero;fill:rgb(10.198975%,71.398926%,51.399231%);fill-opacity:1;" d="M 51.238281 63.964844 C 46.78125 65.4375 43.550781 70.316406 42.527344 74.714844 C 41.707031 78.167969 42.753906 83.3125 47.367188 82.402344 C 52.4375 81.398438 56.140625 75.585938 57.011719 70.820313 C 57.613281 67.519531 56.28125 63.65625 52.953125 63.65625 C 52.429688 63.65625 51.855469 63.746094 51.238281 63.964844 "/>
<path style=" stroke:none;fill-rule:nonzero;fill:rgb(10.198975%,71.398926%,51.399231%);fill-opacity:1;" d="M 161.410156 70.820313 C 162.28125 75.585938 165.988281 81.398438 171.0625 82.402344 C 175.664063 83.3125 176.710938 78.167969 175.902344 74.714844 C 174.855469 70.316406 171.636719 65.4375 167.167969 63.964844 C 166.554688 63.746094 165.980469 63.664063 165.46875 63.664063 C 162.148438 63.65625 160.804688 67.519531 161.410156 70.820313 "/>
<path style=" stroke:none;fill-rule:nonzero;fill:rgb(10.198975%,71.398926%,51.399231%);fill-opacity:1;" d="M 57.316406 48.167969 C 53.496094 49.828125 49.957031 53.292969 48.277344 57.105469 C 46.894531 60.253906 48.402344 62.855469 51.9375 61.617188 C 56.230469 60.121094 60.402344 56.019531 61.917969 51.726563 C 62.851563 49.0625 61.550781 47.65625 59.5625 47.65625 C 58.886719 47.664063 58.105469 47.828125 57.316406 48.167969 "/>
<path style=" stroke:none;fill-rule:nonzero;fill:rgb(10.198975%,71.398926%,51.399231%);fill-opacity:1;" d="M 156.5 51.734375 C 158.007813 56.039063 162.1875 60.128906 166.480469 61.625 C 170.027344 62.867188 171.535156 60.273438 170.140625 57.117188 C 168.460938 53.292969 164.933594 49.828125 161.101563 48.167969 C 160.3125 47.828125 159.542969 47.664063 158.855469 47.664063 C 156.867188 47.664063 155.554688 49.070313 156.5 51.734375 "/>
<path style=" stroke:none;fill-rule:nonzero;fill:rgb(10.198975%,71.398926%,51.399231%);fill-opacity:1;" d="M 75.140625 42.460938 C 70.773438 43.464844 65.84375 46.578125 64.359375 51.019531 C 62.820313 55.621094 67.585938 57.363281 71.328125 56.695313 C 76.042969 55.84375 81.925781 52.269531 82.910156 47.214844 C 83.636719 43.558594 80.429688 42.214844 77.375 42.214844 C 76.605469 42.214844 75.839844 42.304688 75.140625 42.460938 "/>
<path style=" stroke:none;fill-rule:nonzero;fill:rgb(10.198975%,71.398926%,51.399231%);fill-opacity:1;" d="M 135.507813 47.214844 C 136.503906 52.269531 142.375 55.84375 147.089844 56.695313 C 150.832031 57.371094 155.597656 55.628906 154.058594 51.027344 C 152.574219 46.589844 147.644531 43.464844 143.277344 42.46875 C 142.589844 42.316406 141.8125 42.222656 141.042969 42.222656 C 137.988281 42.214844 134.789063 43.546875 135.507813 47.214844 "/>
<path style=" stroke:none;fill-rule:nonzero;fill:rgb(10.198975%,71.398926%,51.399231%);fill-opacity:1;" d="M 97.269531 39.28125 C 92.921875 39.578125 86.835938 41.925781 85.984375 46.816406 C 85.0625 52.164063 91.886719 54.144531 95.988281 53.929688 C 100.507813 53.683594 107.550781 50.988281 107.558594 45.523438 C 107.570313 40.890625 102.085938 39.261719 98.152344 39.261719 C 97.851563 39.261719 97.554688 39.273438 97.269531 39.28125 "/>
<path style=" stroke:none;fill-rule:nonzero;fill:rgb(10.198975%,71.398926%,51.399231%);fill-opacity:1;" d="M 110.859375 45.523438 C 110.871094 50.996094 117.910156 53.683594 122.429688 53.929688 C 126.53125 54.144531 133.347656 52.164063 132.425781 46.804688 C 131.574219 41.917969 125.496094 39.570313 121.140625 39.28125 C 120.851563 39.273438 120.566406 39.253906 120.257813 39.253906 C 116.332031 39.253906 110.847656 40.902344 110.859375 45.523438 "/>
<path style=" stroke:none;fill-rule:nonzero;fill:rgb(5.099487%,67.098999%,76.098633%);fill-opacity:1;" d="M 88.96875 182.710938 C 90.0625 186.121094 95.835938 186.972656 98.828125 187.199219 C 101.039063 187.363281 107.601563 187.484375 107.589844 184.074219 C 107.570313 180.210938 100.222656 179.164063 97.453125 178.980469 C 97.175781 178.960938 96.796875 178.9375 96.347656 178.9375 C 93.488281 178.9375 87.933594 179.492188 88.96875 182.710938 "/>
<path style=" stroke:none;fill-rule:nonzero;fill:rgb(5.099487%,67.098999%,76.098633%);fill-opacity:1;" d="M 120.945313 178.96875 C 118.1875 179.164063 110.847656 180.21875 110.828125 184.054688 C 110.816406 187.476563 117.378906 187.363281 119.59375 187.199219 C 122.585938 186.972656 128.355469 186.121094 129.453125 182.710938 C 130.488281 179.503906 124.933594 178.9375 122.070313 178.9375 C 121.621094 178.9375 121.230469 178.960938 120.945313 178.96875 "/>
<path style=" stroke:none;fill-rule:nonzero;fill:rgb(5.099487%,67.098999%,76.098633%);fill-opacity:1;" d="M 69.964844 178.242188 C 71.890625 181.429688 76.371094 183.171875 79.792969 184.074219 C 81.28125 184.453125 87.480469 185.496094 86.300781 182.28125 C 84.949219 178.578125 79.210938 176.59375 75.734375 175.78125 C 75.121094 175.636719 74.003906 175.484375 72.886719 175.484375 C 70.765625 175.484375 68.644531 176.039063 69.964844 178.242188 "/>
<path style=" stroke:none;fill-rule:nonzero;fill:rgb(5.099487%,67.098999%,76.098633%);fill-opacity:1;" d="M 142.683594 175.78125 C 139.210938 176.59375 133.46875 178.578125 132.117188 182.289063 C 130.949219 185.507813 137.136719 184.464844 138.625 184.074219 C 142.058594 183.191406 146.535156 181.4375 148.453125 178.242188 C 149.777344 176.027344 147.644531 175.484375 145.523438 175.484375 C 144.414063 175.484375 143.296875 175.648438 142.683594 175.78125 "/>
<path style=" stroke:none;fill-rule:nonzero;fill:rgb(5.099487%,67.098999%,76.098633%);fill-opacity:1;" d="M 55.238281 171.691406 C 57.398438 174.582031 60.730469 176.839844 63.960938 178.375 C 65.3125 179.03125 69.535156 180.269531 67.78125 177.484375 C 65.691406 174.140625 61.683594 171.570313 58.15625 170.011719 C 57.390625 169.671875 56.46875 169.4375 55.75 169.425781 C 54.613281 169.4375 53.996094 170.023438 55.238281 171.691406 "/>
<path style=" stroke:none;fill-rule:nonzero;fill:rgb(5.099487%,67.098999%,76.098633%);fill-opacity:1;" d="M 160.269531 170.023438 C 156.746094 171.589844 152.738281 174.152344 150.648438 177.472656 C 148.894531 180.269531 153.117188 179.03125 154.480469 178.375 C 157.699219 176.839844 161.027344 174.570313 163.203125 171.683594 C 164.441406 170.023438 163.816406 169.449219 162.691406 169.4375 C 161.960938 169.4375 161.050781 169.683594 160.269531 170.023438 "/>
<path style=" stroke:none;fill-rule:nonzero;fill:rgb(5.099487%,67.098999%,76.098633%);fill-opacity:1;" d="M 38.089844 152.792969 C 39.65625 156.019531 41.972656 159.3125 44.90625 161.464844 C 47.621094 163.460938 47.582031 160.726563 46.636719 158.65625 C 45.039063 155.117188 42.40625 151.164063 39.054688 149.070313 C 38.5625 148.773438 38.203125 148.640625 37.925781 148.640625 C 36.613281 148.640625 37.515625 151.613281 38.089844 152.792969 "/>
<path style=" stroke:none;fill-rule:nonzero;fill:rgb(5.099487%,67.098999%,76.098633%);fill-opacity:1;" d="M 179.375 149.0625 C 176.015625 151.152344 173.390625 155.109375 171.78125 158.644531 C 170.859375 160.726563 170.808594 163.453125 173.523438 161.453125 C 176.445313 159.3125 178.761719 156.019531 180.339844 152.792969 C 180.914063 151.59375 181.816406 148.632813 180.503906 148.632813 C 180.226563 148.640625 179.867188 148.765625 179.375 149.0625 "/>
<path style=" stroke:none;fill-rule:nonzero;fill:rgb(5.099487%,67.098999%,76.098633%);fill-opacity:1;" d="M 32.300781 137.132813 C 33.230469 140.585938 35.066406 145.054688 38.285156 146.972656 C 41.699219 149 41.257813 143.128906 40.816406 141.292969 C 39.964844 137.746094 37.894531 132.089844 34.132813 130.695313 C 33.847656 130.582031 33.582031 130.542969 33.355469 130.542969 C 31.039063 130.542969 31.929688 135.738281 32.300781 137.132813 "/>
<path style=" stroke:none;fill-rule:nonzero;fill:rgb(5.099487%,67.098999%,76.098633%);fill-opacity:1;" d="M 184.285156 130.695313 C 180.535156 132.089844 178.453125 137.746094 177.601563 141.28125 C 177.160156 143.128906 176.710938 148.988281 180.132813 146.972656 C 183.363281 145.035156 185.1875 140.585938 186.117188 137.132813 C 186.5 135.738281 187.390625 130.53125 185.074219 130.53125 C 184.839844 130.53125 184.582031 130.582031 184.285156 130.695313 "/>
<path style=" stroke:none;fill-rule:nonzero;fill:rgb(5.099487%,67.098999%,76.098633%);fill-opacity:1;" d="M 29.03125 118.152344 C 29.296875 121.234375 30.25 126.964844 33.714844 128.101563 C 37.507813 129.351563 37.660156 121.777344 37.496094 119.667969 C 37.28125 116.796875 36.121094 109.5 32.195313 109.417969 L 32.125 109.417969 C 28.710938 109.429688 28.84375 115.925781 29.03125 118.152344 "/>
<path style=" stroke:none;fill-rule:nonzero;fill:rgb(5.099487%,67.098999%,76.098633%);fill-opacity:1;" d="M 186.230469 109.429688 C 182.308594 109.511719 181.148438 116.808594 180.921875 119.679688 C 180.769531 121.789063 180.921875 129.363281 184.714844 128.113281 C 188.179688 126.976563 189.132813 121.246094 189.398438 118.160156 C 189.585938 115.945313 189.726563 109.4375 186.304688 109.4375 C 186.273438 109.429688 186.242188 109.429688 186.230469 109.429688 "/>
<path style=" stroke:none;fill-rule:nonzero;fill:rgb(5.099487%,67.098999%,76.098633%);fill-opacity:1;" d="M 33.703125 88.519531 C 30.238281 89.65625 29.285156 95.386719 29.019531 98.472656 C 28.824219 100.707031 28.703125 107.277344 32.175781 107.203125 C 36.113281 107.121094 37.269531 99.835938 37.484375 96.964844 C 37.640625 95.007813 37.507813 88.386719 34.492188 88.386719 C 34.257813 88.378906 34 88.417969 33.703125 88.519531 "/>
<path style=" stroke:none;fill-rule:nonzero;fill:rgb(5.099487%,67.098999%,76.098633%);fill-opacity:1;" d="M 180.933594 96.953125 C 181.148438 99.835938 182.308594 107.101563 186.230469 107.203125 C 189.71875 107.277344 189.585938 100.707031 189.390625 98.472656 C 189.121094 95.40625 188.179688 89.65625 184.703125 88.53125 C 184.429688 88.429688 184.160156 88.386719 183.90625 88.386719 C 180.890625 88.378906 180.78125 94.996094 180.933594 96.953125 "/>
<path style=" stroke:none;fill-rule:nonzero;fill:rgb(5.099487%,67.098999%,76.098633%);fill-opacity:1;" d="M 38.292969 69.660156 C 35.066406 71.589844 33.230469 76.046875 32.308594 79.511719 C 31.898438 81.027344 30.863281 87.144531 34.132813 85.9375 C 37.894531 84.554688 39.964844 78.875 40.816406 75.328125 C 41.195313 73.761719 41.574219 69.230469 39.546875 69.230469 C 39.195313 69.230469 38.785156 69.363281 38.292969 69.660156 "/>
<path style=" stroke:none;fill-rule:nonzero;fill:rgb(5.099487%,67.098999%,76.098633%);fill-opacity:1;" d="M 177.601563 75.328125 C 178.453125 78.875 180.535156 84.53125 184.285156 85.917969 C 187.554688 87.144531 186.527344 81.027344 186.117188 79.5 C 185.1875 76.058594 183.351563 71.597656 180.132813 69.671875 C 179.640625 69.363281 179.222656 69.242188 178.882813 69.242188 C 176.84375 69.242188 177.222656 73.761719 177.601563 75.328125 "/>
<path style=" stroke:none;fill-rule:nonzero;fill:rgb(5.099487%,67.098999%,76.098633%);fill-opacity:1;" d="M 44.894531 55.160156 C 41.972656 57.300781 39.65625 60.589844 38.089844 63.828125 C 37.394531 65.253906 36.222656 69.3125 39.054688 67.5625 C 42.40625 65.480469 45.039063 61.523438 46.636719 57.976563 C 47.34375 56.410156 47.53125 54.472656 46.414063 54.472656 C 46.0625 54.472656 45.550781 54.667969 44.894531 55.160156 "/>
<path style=" stroke:none;fill-rule:nonzero;fill:rgb(5.099487%,67.098999%,76.098633%);fill-opacity:1;" d="M 171.78125 57.976563 C 173.378906 61.523438 176.015625 65.480469 179.375 67.5625 C 182.203125 69.324219 181.035156 65.253906 180.339844 63.828125 C 178.761719 60.589844 176.445313 57.300781 173.523438 55.160156 C 172.867188 54.667969 172.363281 54.472656 171.996094 54.472656 C 170.890625 54.472656 171.085938 56.410156 171.78125 57.976563 "/>
<path style=" stroke:none;fill-rule:nonzero;fill:rgb(5.099487%,67.098999%,76.098633%);fill-opacity:1;" d="M 63.960938 38.238281 C 60.730469 39.773438 57.398438 42.050781 55.246094 44.929688 C 53.207031 47.664063 56.160156 47.480469 58.148438 46.601563 C 61.683594 45.03125 65.691406 42.480469 67.78125 39.140625 C 68.613281 37.816406 68.097656 37.40625 67.175781 37.40625 C 66.164063 37.40625 64.65625 37.910156 63.960938 38.238281 "/>
<path style=" stroke:none;fill-rule:nonzero;fill:rgb(5.099487%,67.098999%,76.098633%);fill-opacity:1;" d="M 150.648438 39.148438 C 152.746094 42.480469 156.746094 45.03125 160.269531 46.609375 C 162.269531 47.480469 165.222656 47.664063 163.183594 44.941406 C 161.027344 42.050781 157.699219 39.796875 154.460938 38.246094 C 153.753906 37.910156 152.246094 37.417969 151.242188 37.417969 C 150.320313 37.40625 149.816406 37.816406 150.648438 39.148438 "/>
<path style=" stroke:none;fill-rule:nonzero;fill:rgb(5.099487%,67.098999%,76.098633%);fill-opacity:1;" d="M 79.792969 32.550781 C 76.371094 33.441406 71.882813 35.191406 69.964844 38.390625 C 67.945313 41.761719 73.972656 41.261719 75.734375 40.851563 C 79.210938 40.03125 84.949219 38.054688 86.3125 34.34375 C 86.957031 32.550781 85.328125 32.089844 83.503906 32.089844 C 82.039063 32.089844 80.449219 32.386719 79.792969 32.550781 "/>
<path style=" stroke:none;fill-rule:nonzero;fill:rgb(5.099487%,67.098999%,76.098633%);fill-opacity:1;" d="M 132.117188 34.332031 C 133.46875 38.054688 139.210938 40.03125 142.683594 40.839844 C 144.445313 41.269531 150.484375 41.753906 148.453125 38.382813 C 146.535156 35.191406 142.046875 33.441406 138.625 32.558594 C 137.96875 32.386719 136.378906 32.089844 134.925781 32.089844 C 133.089844 32.089844 131.472656 32.558594 132.117188 34.332031 "/>
<path style=" stroke:none;fill-rule:nonzero;fill:rgb(5.099487%,67.098999%,76.098633%);fill-opacity:1;" d="M 98.828125 29.433594 C 95.835938 29.660156 90.054688 30.507813 88.96875 33.921875 C 87.769531 37.644531 95.402344 37.796875 97.464844 37.664063 C 100.230469 37.46875 107.578125 36.414063 107.601563 32.570313 C 107.601563 29.863281 103.480469 29.371094 100.660156 29.371094 C 99.933594 29.371094 99.289063 29.390625 98.828125 29.433594 "/>
<path style=" stroke:none;fill-rule:nonzero;fill:rgb(5.099487%,67.098999%,76.098633%);fill-opacity:1;" d="M 110.828125 32.558594 C 110.847656 36.402344 118.1875 37.46875 120.945313 37.652344 C 123.003906 37.785156 130.652344 37.632813 129.453125 33.910156 C 128.355469 30.507813 122.585938 29.660156 119.59375 29.421875 C 119.140625 29.382813 118.496094 29.359375 117.765625 29.359375 C 114.949219 29.371094 110.808594 29.84375 110.828125 32.558594 "/>
<path style=" stroke:none;fill-rule:nonzero;fill:rgb(14.498901%,67.498779%,88.598633%);fill-opacity:1;" d="M 91.878906 189.207031 C 92.523438 190.4375 98.058594 191.269531 100.261719 191.441406 C 100.742188 191.472656 102.15625 191.617188 103.625 191.617188 L 103.695313 191.617188 C 105.632813 191.617188 107.632813 191.390625 107.621094 190.4375 C 107.609375 188.46875 100.488281 188.113281 99.023438 188 C 98.796875 187.976563 98.179688 187.957031 97.390625 187.957031 C 95.074219 187.957031 91.335938 188.152344 91.878906 189.207031 "/>
<path style=" stroke:none;fill-rule:nonzero;fill:rgb(14.498901%,67.498779%,88.598633%);fill-opacity:1;" d="M 119.398438 188 C 117.929688 188.113281 110.808594 188.460938 110.796875 190.449219 C 110.789063 191.390625 112.785156 191.617188 114.722656 191.617188 L 114.785156 191.617188 C 116.261719 191.617188 117.664063 191.484375 118.15625 191.441406 C 120.359375 191.269531 125.894531 190.4375 126.53125 189.207031 C 127.085938 188.140625 123.332031 187.957031 121.015625 187.957031 C 120.238281 187.957031 119.621094 187.976563 119.398438 188 "/>
<path style=" stroke:none;fill-rule:nonzero;fill:rgb(14.498901%,67.498779%,88.598633%);fill-opacity:1;" d="M 76.042969 185.386719 C 77.078125 186.832031 81.792969 188.328125 84.652344 189.003906 C 90.585938 190.417969 90.15625 189.105469 90.15625 189.105469 C 89.601563 187.867188 83.65625 185.90625 80.921875 185.199219 C 80.398438 185.058594 78.246094 184.546875 76.925781 184.546875 C 76.085938 184.535156 75.59375 184.75 76.042969 185.386719 "/>
<path style=" stroke:none;fill-rule:nonzero;fill:rgb(14.498901%,67.498779%,88.598633%);fill-opacity:1;" d="M 137.488281 185.191406 C 134.75 185.898438 128.804688 187.867188 128.261719 189.117188 C 128.261719 189.117188 127.832031 190.40625 133.765625 189.015625 C 136.636719 188.328125 141.351563 186.832031 142.375 185.386719 C 142.835938 184.75 142.335938 184.546875 141.492188 184.546875 C 140.171875 184.546875 138.03125 185.046875 137.488281 185.191406 "/>
<path style=" stroke:none;fill-rule:nonzero;fill:rgb(14.498901%,67.498779%,88.598633%);fill-opacity:1;" d="M 62.074219 179.308594 C 64.554688 181.203125 67.445313 182.609375 70.28125 183.816406 C 70.988281 184.113281 75.132813 185.507813 73.695313 184.359375 C 71.039063 182.230469 67.71875 180.785156 64.65625 179.441406 C 63.988281 179.152344 62.257813 178.519531 61.644531 178.519531 C 61.304688 178.519531 61.316406 178.722656 62.074219 179.308594 "/>
<path style=" stroke:none;fill-rule:nonzero;fill:rgb(14.498901%,67.498779%,88.598633%);fill-opacity:1;" d="M 153.761719 179.441406 C 150.6875 180.792969 147.367188 182.238281 144.714844 184.359375 C 143.296875 185.507813 147.429688 184.125 148.136719 183.828125 C 150.964844 182.609375 153.855469 181.203125 156.335938 179.308594 C 157.105469 178.722656 157.113281 178.519531 156.765625 178.519531 C 156.152344 178.519531 154.417969 179.152344 153.761719 179.441406 "/>
<path style=" stroke:none;fill-rule:nonzero;fill:rgb(14.498901%,67.498779%,88.598633%);fill-opacity:1;" d="M 44.589844 164.425781 C 46.597656 167.027344 49.015625 169.425781 51.640625 171.414063 C 53.269531 172.644531 54.703125 172.953125 53.09375 170.832031 C 50.890625 167.921875 48.15625 165.226563 45.234375 163.042969 C 44.566406 162.558594 44.128906 162.335938 43.882813 162.335938 C 43.359375 162.335938 43.71875 163.289063 44.589844 164.425781 "/>
<path style=" stroke:none;fill-rule:nonzero;fill:rgb(14.498901%,67.498779%,88.598633%);fill-opacity:1;" d="M 173.183594 163.050781 C 170.273438 165.214844 167.527344 167.929688 165.324219 170.84375 C 163.714844 172.953125 165.148438 172.636719 166.777344 171.394531 C 169.414063 169.417969 171.832031 167.027344 173.832031 164.414063 C 174.710938 163.277344 175.0625 162.324219 174.539063 162.324219 C 174.300781 162.335938 173.859375 162.558594 173.183594 163.050781 "/>
<path style=" stroke:none;fill-rule:nonzero;fill:rgb(14.498901%,67.498779%,88.598633%);fill-opacity:1;" d="M 32.402344 146.460938 C 33.722656 149.234375 35.25 152.054688 37.207031 154.410156 C 38.898438 156.460938 37.507813 152.976563 36.992188 151.933594 C 35.527344 148.917969 33.949219 145.679688 31.746094 143.148438 C 31.5625 142.933594 31.4375 142.839844 31.367188 142.839844 C 30.945313 142.839844 32.125 145.863281 32.402344 146.460938 "/>
<path style=" stroke:none;fill-rule:nonzero;fill:rgb(14.498901%,67.498779%,88.598633%);fill-opacity:1;" d="M 186.671875 143.148438 C 184.480469 145.691406 182.890625 148.929688 181.425781 151.941406 C 180.921875 152.976563 179.519531 156.472656 181.210938 154.421875 C 183.179688 152.066406 184.695313 149.234375 186.015625 146.460938 C 186.3125 145.875 187.472656 142.851563 187.050781 142.851563 C 186.980469 142.839844 186.855469 142.941406 186.671875 143.148438 "/>
<path style=" stroke:none;fill-rule:nonzero;fill:rgb(14.498901%,67.498779%,88.598633%);fill-opacity:1;" d="M 27.164063 133.0625 C 27.839844 135.859375 28.96875 139.4375 30.414063 140.871094 C 31.949219 142.390625 31.242188 137.605469 30.90625 136.105469 C 30.25 133.246094 28.917969 128.695313 27.308594 127.722656 C 27.195313 127.652344 27.101563 127.621094 27.019531 127.621094 C 26.066406 127.609375 26.898438 131.9375 27.164063 133.0625 "/>
<path style=" stroke:none;fill-rule:nonzero;fill:rgb(14.498901%,67.498779%,88.598633%);fill-opacity:1;" d="M 191.101563 127.714844 C 189.492188 128.695313 188.148438 133.246094 187.503906 136.117188 C 187.164063 137.605469 186.457031 142.390625 187.996094 140.871094 C 189.449219 139.429688 190.578125 135.859375 191.242188 133.0625 C 191.519531 131.925781 192.351563 127.621094 191.386719 127.621094 C 191.304688 127.609375 191.222656 127.640625 191.101563 127.714844 "/>
<path style=" stroke:none;fill-rule:nonzero;fill:rgb(14.498901%,67.498779%,88.598633%);fill-opacity:1;" d="M 24.210938 114.082031 L 24.210938 114.226563 C 24.210938 115.035156 24.242188 115.761719 24.273438 116.242188 C 24.417969 118.695313 24.859375 123.273438 26.230469 124.15625 C 27.726563 125.128906 27.707031 119.082031 27.613281 117.390625 C 27.503906 115.097656 26.960938 109.296875 25.410156 109.253906 L 25.402344 109.242188 C 24.425781 109.242188 24.210938 111.917969 24.210938 114.082031 "/>
<path style=" stroke:none;fill-rule:nonzero;fill:rgb(14.498901%,67.498779%,88.598633%);fill-opacity:1;" d="M 193.015625 109.265625 C 191.480469 109.316406 190.9375 115.117188 190.8125 117.402344 C 190.730469 119.09375 190.699219 125.140625 192.207031 124.167969 C 193.582031 123.285156 194.011719 118.703125 194.15625 116.253906 C 194.257813 114.472656 194.378906 109.265625 193.039063 109.253906 L 193.015625 109.265625 "/>
<path style=" stroke:none;fill-rule:nonzero;fill:rgb(14.498901%,67.498779%,88.598633%);fill-opacity:1;" d="M 26.222656 92.457031 C 24.847656 93.347656 24.40625 97.917969 24.265625 100.378906 C 24.242188 100.871094 24.210938 101.609375 24.210938 102.4375 L 24.210938 102.5 C 24.210938 104.683594 24.425781 107.398438 25.410156 107.378906 C 26.949219 107.316406 27.503906 101.515625 27.613281 99.230469 C 27.707031 97.660156 27.726563 92.363281 26.550781 92.363281 C 26.4375 92.351563 26.335938 92.382813 26.222656 92.457031 "/>
<path style=" stroke:none;fill-rule:nonzero;fill:rgb(14.498901%,67.498779%,88.598633%);fill-opacity:1;" d="M 190.8125 99.21875 C 190.925781 101.507813 191.480469 107.316406 193.007813 107.367188 C 194.378906 107.410156 194.257813 102.152344 194.15625 100.378906 C 194.011719 97.917969 193.570313 93.335938 192.207031 92.457031 C 192.09375 92.382813 191.992188 92.351563 191.898438 92.351563 C 190.691406 92.351563 190.730469 97.652344 190.8125 99.21875 "/>
<path style=" stroke:none;fill-rule:nonzero;fill:rgb(14.498901%,67.498779%,88.598633%);fill-opacity:1;" d="M 30.421875 75.761719 C 28.96875 77.203125 27.851563 80.761719 27.175781 83.570313 C 26.878906 84.800781 25.914063 89.761719 27.316406 88.910156 C 28.925781 87.9375 30.261719 83.375 30.914063 80.515625 C 31.203125 79.222656 31.777344 75.460938 30.925781 75.460938 C 30.78125 75.460938 30.628906 75.554688 30.421875 75.761719 "/>
<path style=" stroke:none;fill-rule:nonzero;fill:rgb(14.498901%,67.498779%,88.598633%);fill-opacity:1;" d="M 187.503906 80.515625 C 188.148438 83.375 189.492188 87.9375 191.101563 88.910156 C 192.496094 89.761719 191.539063 84.800781 191.242188 83.570313 C 190.578125 80.761719 189.449219 77.195313 187.996094 75.75 C 187.789063 75.546875 187.625 75.453125 187.492188 75.453125 C 186.640625 75.460938 187.214844 79.222656 187.503906 80.515625 "/>
<path style=" stroke:none;fill-rule:nonzero;fill:rgb(14.498901%,67.498779%,88.598633%);fill-opacity:1;" d="M 37.207031 62.210938 C 35.25 64.589844 33.722656 67.394531 32.402344 70.175781 C 32.0625 70.871094 30.515625 74.898438 31.746094 73.484375 C 33.949219 70.933594 35.527344 67.695313 36.992188 64.691406 C 37.394531 63.882813 38.324219 61.574219 37.914063 61.574219 C 37.804688 61.585938 37.578125 61.757813 37.207031 62.210938 "/>
<path style=" stroke:none;fill-rule:nonzero;fill:rgb(14.498901%,67.498779%,88.598633%);fill-opacity:1;" d="M 181.425781 64.691406 C 182.902344 67.695313 184.480469 70.933594 186.671875 73.472656 C 187.914063 74.898438 186.363281 70.859375 186.015625 70.164063 C 184.714844 67.386719 183.179688 64.578125 181.210938 62.199219 C 180.839844 61.75 180.625 61.5625 180.511719 61.5625 C 180.09375 61.585938 181.027344 63.882813 181.425781 64.691406 "/>
<path style=" stroke:none;fill-rule:nonzero;fill:rgb(14.498901%,67.498779%,88.598633%);fill-opacity:1;" d="M 51.640625 45.21875 C 49.015625 47.203125 46.585938 49.605469 44.589844 52.207031 C 43.296875 53.886719 43.132813 55.136719 45.222656 53.578125 C 48.144531 51.40625 50.890625 48.691406 53.09375 45.789063 C 53.933594 44.695313 53.945313 44.242188 53.535156 44.242188 C 53.15625 44.253906 52.429688 44.621094 51.640625 45.21875 "/>
<path style=" stroke:none;fill-rule:nonzero;fill:rgb(14.498901%,67.498779%,88.598633%);fill-opacity:1;" d="M 165.324219 45.800781 C 167.527344 48.703125 170.265625 51.40625 173.183594 53.578125 C 175.296875 55.136719 175.121094 53.886719 173.832031 52.207031 C 171.820313 49.59375 169.402344 47.203125 166.777344 45.21875 C 166 44.621094 165.261719 44.242188 164.882813 44.242188 C 164.484375 44.242188 164.492188 44.695313 165.324219 45.800781 "/>
<path style=" stroke:none;fill-rule:nonzero;fill:rgb(14.498901%,67.498779%,88.598633%);fill-opacity:1;" d="M 70.28125 32.804688 C 67.445313 34.015625 64.554688 35.429688 62.074219 37.324219 C 59.953125 38.945313 63.621094 37.644531 64.65625 37.191406 C 67.71875 35.839844 71.039063 34.402344 73.695313 32.273438 C 74.105469 31.933594 74.054688 31.832031 73.769531 31.832031 C 73.050781 31.8125 70.785156 32.578125 70.28125 32.804688 "/>
<path style=" stroke:none;fill-rule:nonzero;fill:rgb(14.498901%,67.498779%,88.598633%);fill-opacity:1;" d="M 144.722656 32.261719 C 147.367188 34.394531 150.699219 35.839844 153.761719 37.183594 C 154.796875 37.632813 158.457031 38.933594 156.34375 37.316406 C 153.855469 35.417969 150.976563 34.003906 148.136719 32.796875 C 147.632813 32.578125 145.359375 31.8125 144.640625 31.8125 C 144.355469 31.820313 144.3125 31.933594 144.722656 32.261719 "/>
<path style=" stroke:none;fill-rule:nonzero;fill:rgb(14.498901%,67.498779%,88.598633%);fill-opacity:1;" d="M 84.664063 27.628906 C 81.800781 28.316406 77.078125 29.800781 76.054688 31.257813 C 74.863281 32.898438 80.058594 31.667969 80.929688 31.441406 C 83.65625 30.726563 89.613281 28.757813 90.15625 27.527344 C 90.15625 27.527344 90.339844 26.972656 88.84375 26.972656 C 88.035156 26.984375 86.742188 27.136719 84.664063 27.628906 "/>
<path style=" stroke:none;fill-rule:nonzero;fill:rgb(14.498901%,67.498779%,88.598633%);fill-opacity:1;" d="M 128.261719 27.527344 C 128.824219 28.757813 134.769531 30.726563 137.496094 31.433594 C 138.359375 31.667969 143.554688 32.898438 142.375 31.246094 C 141.339844 29.792969 136.625 28.304688 133.757813 27.628906 C 131.6875 27.136719 130.382813 26.972656 129.574219 26.972656 C 128.078125 26.972656 128.261719 27.527344 128.261719 27.527344 "/>
<path style=" stroke:none;fill-rule:nonzero;fill:rgb(14.498901%,67.498779%,88.598633%);fill-opacity:1;" d="M 103.625 25.015625 C 102.15625 25.015625 100.734375 25.148438 100.261719 25.191406 C 98.058594 25.363281 92.523438 26.195313 91.878906 27.425781 C 91.140625 28.839844 98.121094 28.703125 99.023438 28.632813 C 100.488281 28.519531 107.609375 28.171875 107.609375 26.195313 C 107.621094 25.253906 105.621094 25.027344 103.683594 25.027344 L 103.625 25.027344 L 103.625 25.015625 "/>
<path style=" stroke:none;fill-rule:nonzero;fill:rgb(14.498901%,67.498779%,88.598633%);fill-opacity:1;" d="M 114.722656 25.015625 C 112.785156 25.015625 110.777344 25.242188 110.789063 26.183594 C 110.796875 28.160156 117.929688 28.511719 119.386719 28.621094 C 120.289063 28.683594 127.277344 28.828125 126.53125 27.414063 C 125.886719 26.183594 120.351563 25.355469 118.148438 25.179688 C 117.664063 25.140625 116.25 25.003906 114.773438 25.003906 L 114.722656 25.003906 L 114.722656 25.015625 "/>
<path style=" stroke:none;fill-rule:nonzero;fill:rgb(100%,100%,100%);fill-opacity:1;" d="M 48.847656 234.800781 L 55.417969 234.800781 L 55.417969 264.722656 L 48.847656 264.722656 L 48.847656 234.800781 "/>
<path style=" stroke:none;fill-rule:nonzero;fill:rgb(100%,100%,100%);fill-opacity:1;" d="M 62.734375 234.800781 L 69.304688 234.800781 L 69.304688 264.722656 L 62.734375 264.722656 L 62.734375 234.800781 "/>
<path style=" stroke:none;fill-rule:nonzero;fill:rgb(100%,100%,100%);fill-opacity:1;" d="M 76.683594 250.527344 L 76.683594 250.441406 C 76.683594 241.929688 83.035156 234.957031 92.148438 234.957031 C 97.742188 234.957031 101.09375 236.839844 103.84375 239.574219 L 99.691406 244.410156 C 97.40625 242.308594 95.070313 241.027344 92.101563 241.027344 C 87.105469 241.027344 83.503906 245.226563 83.503906 250.363281 L 83.503906 250.441406 C 83.503906 255.582031 87.015625 259.863281 92.101563 259.863281 C 95.503906 259.863281 97.566406 258.492188 99.902344 256.351563 L 104.058594 260.589844 C 101.003906 263.886719 97.609375 265.9375 91.890625 265.9375 C 83.15625 265.9375 76.683594 259.136719 76.683594 250.527344 "/>
<path style=" stroke:none;fill-rule:nonzero;fill:rgb(100%,100%,100%);fill-opacity:1;" d="M 109.878906 235.464844 L 123.445313 235.464844 C 127.210938 235.464844 130.136719 236.535156 132.089844 238.5 C 133.738281 240.167969 134.628906 242.523438 134.628906 245.351563 L 134.628906 245.4375 C 134.628906 250.277344 132.042969 253.308594 128.273438 254.726563 L 135.519531 265.421875 L 127.898438 265.421875 L 121.535156 255.839844 L 116.410156 255.839844 L 116.410156 265.421875 L 109.878906 265.421875 Z M 123.015625 250.015625 C 126.203125 250.015625 128.015625 248.3125 128.015625 245.785156 L 128.015625 245.695313 C 128.015625 242.867188 126.066406 241.410156 122.890625 241.410156 L 116.410156 241.410156 L 116.410156 250.011719 L 123.015625 250.011719 L 123.015625 250.015625 "/>
<path style=" stroke:none;fill-rule:nonzero;fill:rgb(100%,100%,100%);fill-opacity:1;" d="M 141.363281 250.527344 L 141.363281 250.441406 C 141.363281 241.929688 147.722656 234.957031 156.847656 234.957031 C 162.433594 234.957031 165.773438 236.839844 168.53125 239.574219 L 164.375 244.410156 C 162.09375 242.308594 159.753906 241.027344 156.800781 241.027344 C 151.792969 241.027344 148.191406 245.226563 148.191406 250.363281 L 148.191406 250.441406 C 148.191406 255.582031 151.707031 259.863281 156.800781 259.863281 C 160.183594 259.863281 162.261719 258.492188 164.59375 256.351563 L 168.75 260.589844 C 165.695313 263.886719 162.308594 265.9375 156.578125 265.9375 C 147.847656 265.9375 141.363281 259.136719 141.363281 250.527344 "/>
<path style=" stroke:none;fill-rule:nonzero;fill:rgb(100%,100%,100%);fill-opacity:1;" d="M 71.085938 290.082031 C 73.171875 290.082031 75.210938 290.210938 77.21875 290.039063 C 78.757813 289.90625 79.679688 288.605469 79.714844 287.070313 C 79.75 285.433594 79.03125 284.210938 77.382813 284.027344 C 75.308594 283.792969 73.191406 283.96875 71.011719 283.96875 C 71.011719 285.769531 71.011719 287.554688 71.015625 289.339844 C 71.015625 289.558594 71.054688 289.777344 71.085938 290.082031 Z M 70.992188 294.679688 C 70.992188 297.175781 70.992188 299.496094 70.992188 301.886719 C 69.308594 301.886719 67.777344 301.886719 66.121094 301.886719 C 66.121094 294.375 66.121094 286.867188 66.121094 279.402344 C 70.375 279.402344 74.609375 279.148438 78.800781 279.484375 C 82.152344 279.75 84.226563 282.171875 84.6875 285.277344 C 85.242188 289.054688 83.964844 291.773438 80.832031 293.484375 C 80.632813 293.59375 80.4375 293.699219 80.085938 293.894531 C 81.851563 296.515625 83.59375 299.109375 85.507813 301.953125 C 83.515625 301.953125 81.808594 301.996094 80.109375 301.914063 C 79.761719 301.898438 79.355469 301.46875 79.121094 301.128906 C 77.972656 299.472656 76.804688 297.816406 75.777344 296.085938 C 75.144531 295.015625 74.40625 294.488281 73.152344 294.664063 C 72.496094 294.757813 71.8125 294.679688 70.992188 294.679688 "/>
<path style=" stroke:none;fill-rule:nonzero;fill:rgb(100%,100%,100%);fill-opacity:1;" d="M 183.09375 297.316406 C 184.742188 297.316406 186.242188 297.402344 187.730469 297.300781 C 190.742188 297.09375 193.136719 294.746094 193.476563 291.789063 C 193.902344 288.117188 192.335938 285.023438 189.261719 284.21875 C 187.296875 283.707031 185.179688 283.792969 183.09375 283.609375 C 183.09375 288.367188 183.09375 292.765625 183.09375 297.316406 Z M 178.121094 279.011719 C 182.273438 279.214844 186.328125 279.003906 190.226563 279.699219 C 195.648438 280.664063 199.019531 285.460938 198.808594 290.878906 C 198.582031 296.574219 194.816406 301.078125 189.222656 301.675781 C 185.59375 302.0625 181.890625 301.75 178.121094 301.75 C 178.121094 294.335938 178.121094 286.867188 178.121094 279.011719 "/>
<path style=" stroke:none;fill-rule:nonzero;fill:rgb(100%,100%,100%);fill-opacity:1;" d="M 173.113281 301.882813 C 167.429688 301.882813 161.839844 301.882813 156.132813 301.882813 C 156.132813 294.378906 156.132813 286.863281 156.132813 279.277344 C 161.703125 279.277344 167.246094 279.277344 172.902344 279.277344 C 172.902344 280.691406 172.902344 282.09375 172.902344 283.6875 C 168.996094 283.6875 165.0625 283.6875 161.058594 283.6875 C 161.058594 285.273438 161.058594 286.671875 161.058594 288.222656 C 164.570313 288.222656 168.011719 288.222656 171.523438 288.222656 C 171.523438 289.773438 171.523438 291.175781 171.523438 292.734375 C 168.027344 292.734375 164.589844 292.734375 161.066406 292.734375 C 161.066406 294.34375 161.066406 295.792969 161.066406 297.429688 C 165.0625 297.429688 169.046875 297.429688 173.113281 297.429688 C 173.113281 298.980469 173.113281 300.347656 173.113281 301.882813 "/>
<path style=" stroke:none;fill-rule:nonzero;fill:rgb(100%,100%,100%);fill-opacity:1;" d="M 43.851563 279.277344 C 49.519531 279.277344 55.015625 279.277344 60.609375 279.277344 C 60.609375 280.753906 60.609375 282.148438 60.609375 283.6875 C 56.648438 283.6875 52.75 283.6875 48.765625 283.6875 C 48.765625 285.234375 48.765625 286.640625 48.765625 288.214844 C 52.234375 288.214844 55.667969 288.214844 59.171875 288.214844 C 59.171875 289.785156 59.171875 291.183594 59.171875 292.714844 C 55.699219 292.714844 52.300781 292.714844 48.792969 292.714844 C 48.792969 294.289063 48.792969 295.738281 48.792969 297.363281 C 52.730469 297.363281 56.710938 297.363281 60.789063 297.363281 C 60.789063 298.941406 60.789063 300.347656 60.789063 301.855469 C 55.183594 301.855469 49.566406 301.855469 43.851563 301.855469 C 43.851563 294.332031 43.851563 286.859375 43.851563 279.277344 "/>
<path style=" stroke:none;fill-rule:nonzero;fill:rgb(100%,100%,100%);fill-opacity:1;" d="M 18.9375 271.484375 C 18.566406 270.453125 18.851563 269.996094 19.875 270.078125 C 20.148438 270.101563 20.421875 270.082031 20.695313 270.082031 C 79.015625 270.082031 137.335938 270.082031 195.652344 270.082031 C 196.324219 270.082031 196.992188 270.082031 197.714844 270.082031 C 197.714844 270.652344 197.714844 271.035156 197.714844 271.484375 C 138.097656 271.484375 78.5625 271.484375 18.9375 271.484375 "/>
<path style=" stroke:none;fill-rule:nonzero;fill:rgb(100%,100%,100%);fill-opacity:1;" d="M 39.570313 298.027344 C 35.65625 302.789063 27.542969 303.386719 22.863281 299.148438 C 17.910156 294.660156 17.621094 286.625 22.238281 281.839844 C 26.703125 277.214844 35.046875 277.230469 39.582031 281.984375 C 38.570313 283.171875 37.542969 284.375 36.457031 285.652344 C 34.441406 283.910156 32.257813 282.5625 29.613281 283.257813 C 28.285156 283.605469 26.871094 284.382813 25.941406 285.386719 C 23.46875 288.058594 23.648438 292.59375 26.078125 295.21875 C 28.761719 298.117188 32.078125 297.96875 36.527344 294.769531 C 37.519531 295.828125 38.503906 296.886719 39.570313 298.027344 "/>
<path style=" stroke:none;fill-rule:nonzero;fill:rgb(100%,100%,100%);fill-opacity:1;" d="M 127.078125 293.113281 C 127.078125 296.148438 127.078125 298.945313 127.078125 301.851563 C 125.421875 301.851563 123.855469 301.851563 122.195313 301.851563 C 122.195313 294.371094 122.195313 286.894531 122.195313 279.3125 C 127.816406 279.3125 133.4375 279.3125 139.171875 279.3125 C 139.171875 280.753906 139.171875 282.1875 139.171875 283.726563 C 135.1875 283.726563 131.234375 283.726563 127.179688 283.726563 C 127.179688 285.3125 127.179688 286.804688 127.179688 288.507813 C 128.519531 288.507813 129.867188 288.507813 131.210938 288.507813 C 133.078125 288.507813 134.945313 288.523438 136.8125 288.496094 C 137.46875 288.488281 137.851563 288.636719 137.832031 289.402344 C 137.796875 290.59375 137.824219 291.785156 137.824219 293.113281 C 134.242188 293.113281 130.753906 293.113281 127.078125 293.113281 "/>
<path style=" stroke:none;fill-rule:nonzero;fill:rgb(100%,100%,100%);fill-opacity:1;" d="M 99.679688 301.882813 C 97.933594 301.882813 96.40625 301.882813 94.617188 301.882813 C 94.617188 298.890625 94.617188 295.925781 94.617188 292.960938 C 94.617188 289.976563 94.617188 286.992188 94.617188 283.859375 C 92.335938 283.859375 90.175781 283.859375 87.902344 283.859375 C 87.902344 282.277344 87.902344 280.84375 87.902344 279.304688 C 94.050781 279.304688 100.171875 279.304688 106.378906 279.304688 C 106.378906 280.757813 106.378906 282.164063 106.378906 283.761719 C 104.191406 283.761719 101.992188 283.761719 99.679688 283.761719 C 99.679688 289.871094 99.679688 295.789063 99.679688 301.882813 "/>
<path style=" stroke:none;fill-rule:nonzero;fill:rgb(100%,100%,100%);fill-opacity:1;" d="M 145.378906 279.28125 C 147.066406 279.28125 148.597656 279.28125 150.199219 279.28125 C 150.199219 286.835938 150.199219 294.3125 150.199219 301.875 C 148.582031 301.875 147.019531 301.875 145.378906 301.875 C 145.378906 294.328125 145.378906 286.855469 145.378906 279.28125 "/>
<path style=" stroke:none;fill-rule:nonzero;fill:rgb(100%,100%,100%);fill-opacity:1;" d="M 111.46875 279.277344 C 113.15625 279.277344 114.6875 279.277344 116.289063 279.277344 C 116.289063 286.832031 116.289063 294.308594 116.289063 301.871094 C 114.675781 301.871094 113.113281 301.871094 111.46875 301.871094 C 111.46875 294.332031 111.46875 286.859375 111.46875 279.277344 "/>
</g>
</svg>
