<svg xmlns="http://www.w3.org/2000/svg" viewBox="0 0 400 262"><g fill="none" stroke="#80a3c2" stroke-width="2"><path d="M317.39 130.87A117.52 117.52 0 0 0 199.87 13.35 117.52 117.52 0 0 0 82.35 130.87a117.52 117.52 0 0 0 117.52 117.52 117.52 117.52 0 0 0 117.52-117.52" vector-effect="non-scaling-stroke"/><path d="M189.86 27.66a.41.41 0 0 1 .35-.45l5.62-.75a.41.41 0 0 0 .35-.48l-.57-3.47a.41.41 0 0 0-.45-.34l-17.12 2.08a.41.41 0 0 0-.35.48l.61 3.47a.41.41 0 0 0 .45.33l5.43-.54a.41.41 0 0 1 .45.36l2.2 18.04a.41.41 0 0 0 .46.36l4.44-.53a.41.41 0 0 0 .36-.46l-2.23-18.1m17.782-4.803a.34.34 0 0 0-.322-.357l-4.535-.23a.34.34 0 0 0-.356.323l-1.15 22.71a.34.34 0 0 0 .322.357l4.534.23a.34.34 0 0 0 .356-.322l1.15-22.711M219.75 34.12a.41.41 0 0 1-.31-.48l.88-4.6a.41.41 0 0 1 .49-.32l8.03 1.78a.41.41 0 0 0 .49-.3l.84-3.34a.41.41 0 0 0-.31-.5l-13.31-2.93a.41.41 0 0 0-.49.31l-4.74 22.17a.41.41 0 0 0 .31.49l4.3.93a.41.41 0 0 0 .49-.31l1.9-8.47a.41.41 0 0 1 .49-.31l7.37 1.61a.41.41 0 0 0 .49-.3l.85-3.35a.41.41 0 0 0-.31-.5l-7.46-1.58m-48.31 3.82.28-.38c2.18-2.86.64-7.08-1.93-8.55q-2.45-1.39-6.26-.49-4.36 1.03-8.34 3.37a.99.99 0 0 0-.43 1.21l7.48 19.9a1 1 0 0 0 1.29.59l3.06-1.16a1 1 0 0 0 .58-1.3l-2.58-6.6a1.01 1.01 0 0 1 .45-1.25c4.29-2.34 6 2.43 8.57 5.77a1.01.98-28.6 0 0 1.14.32l3.14-1.16a1 1 0 0 0 .45-1.54q-2.21-2.96-4.4-5.87-.66-.88-2.01-1.31a1 1 0 0 1-.49-1.55m71.28-6.64a.26.26 0 0 0-.144-.337l-4.42-1.768a.26.26 0 0 0-.338.145l-8.519 21.3a.26.26 0 0 0 .145.337l4.42 1.768a.26.26 0 0 0 .338-.145l8.519-21.3m5.369 17.86a.31.31 0 0 1 .42-.1l6.79 4.24a.31.31 0 0 0 .42-.1l1.96-3.13a.31.31 0 0 0-.1-.42l-6.9-4.27a.31.31 0 0 1-.1-.42l2.24-3.66a.31.31 0 0 1 .42-.1l7.36 4.49a.31.31 0 0 0 .43-.11l1.86-3.15a.31.31 0 0 0-.1-.42l-11.77-7.27a.31.31 0 0 0-.42.11l-11.97 19.53a.31.31 0 0 0 .11.43l12.21 7.44a.31.31 0 0 0 .42-.1l2.08-3.09a.31.31 0 0 0-.1-.44l-7.88-4.7a.31.31 0 0 1-.1-.43l2.72-4.33m-104.48.05a.36.36 0 0 1-.5-.1l-2.38-3.53a.36.36 0 0 1 .1-.5l7.17-4.73a.36.36 0 0 0 .09-.51l-2.1-2.94a.36.36 0 0 0-.49-.09l-11.43 7.66a.36.36 0 0 0-.1.5l12.71 18.89a.36.36 0 0 0 .5.1l11.84-7.88a.36.36 0 0 0 .1-.5l-1.98-3.1a.36.36 0 0 0-.51-.1l-7.41 5.12a.36.36 0 0 1-.5-.1l-2.84-4.13a.36.36 0 0 1 .1-.5l6.65-4.41a.36.36 0 0 0 .1-.5l-2-3.02a.36.36 0 0 0-.5-.1l-6.62 4.47m126.69-.22-15.27 14.83a1.01 1-40.9 0 0-.1 1.32q3.42 4.57 8.25 7.68c9.2 5.91 22.27-4.58 16.83-14.57q-3.12-5.75-8.45-9.37a1 .99 39.7 0 0-1.26.11M142.68 65.23l-1.9-1.25a1.01 1.01 0 0 0-1.43.36c-7.47 13.82-23.66-2.7-10.59-9.82a1 1 0 0 0 .35-1.44l-1.4-2.07a1.01.99 57.1 0 0-1.35-.3c-20.31 12.54 5.4 37.65 16.66 15.81a1.01.99 30.6 0 0-.34-1.29" vector-effect="non-scaling-stroke"/><path d="M279.89 131.13a80.02 80.02 0 0 0-80.02-80.02 80.02 80.02 0 0 0-80.02 80.02 80.02 80.02 0 0 0 80.02 80.02 80.02 80.02 0 0 0 80.02-80.02" vector-effect="non-scaling-stroke"/><path d="m268.42 196.2-7.95-2.99a1.01 1.01 0 0 0-1.08.25l-2.52 2.68a1 1 0 0 0 .45 1.64q5.63 1.62 11.3 3.14c3.51.93 6.1 4.17 8.72 6.54a1.01 1.01 0 0 0 1.42-.08l2.14-2.4a1 1 0 0 0-.05-1.39q-2.42-2.3-4.86-4.61-1.54-1.46-2.17-3.48-1.76-5.64-3.52-11.35a1.01 1-31.1 0 0-1.67-.41l-2.53 2.53a1.02 1 55.5 0 0-.2 1.13l3.53 7.72q.8 1.76-1.01 1.08m-139.96 12.09c-13.05-9.47 3.92-22.72 10.55-9.95a.99.99 0 0 0 1.35.42l2.14-1.14a1 .99-28.7 0 0 .4-1.36q-1.99-3.62-5.36-6.03c-13.24-9.45-28.63 10.98-11.56 21.53a1.01 1-55.6 0 0 1.32-.25l1.37-1.81a1 1 0 0 0-.21-1.41m119.25 5.41 13.4 7.71a.98.97 44.2 0 0 1.01-.01l3.51-2.12a.99.99 0 0 0 .33-1.38l-11.46-18.25a1 1 0 0 0-1.37-.32l-2.46 1.52a1 1 0 0 0-.31 1.4l6.42 9.78q1.85 2.81-1.06 1.13l-12.36-7.1a.99.97-45.6 0 0-1.02.02l-4.01 2.5a1 1 0 0 0-.32 1.38l11.43 18.25a1.01 1 57.7 0 0 1.39.32l2.45-1.56a1 .99-32.6 0 0 .31-1.38l-6.95-10.77q-1.8-2.77 1.07-1.12m-107.079 10.036a12.23 11.37 126.7 0 0 16.425-3.011 12.23 11.37 126.7 0 0-1.807-16.6 12.23 11.37 126.7 0 0-16.425 3.01 12.23 11.37 126.7 0 0 1.807 16.6m35.259 6.085a.1.1 0 0 1-.19-.04l-.36-16.03a.1.1 0 0 0-.07-.1l-6.77-1.75a.1.1 0 0 0-.12.07l-6.93 22.27a.1.1 0 0 0 .07.13l4.53 1.16a.1.1 0 0 0 .12-.07l4.78-16.64a.1.1 0 0 1 .1-.07h.17a.1.1 0 0 1 .1.1l.18 17.42a.1.1 0 0 0 .07.1l4.02 1.1a.1.1 0 0 0 .11-.05l9.49-15.96a.1.1 0 0 1 .18.07l-3.8 17.61a.1.1 0 0 0 .07.11l4.83 1.31a.1.1 0 0 0 .12-.08l4.29-23.01a.1.1 0 0 0-.07-.11l-6.65-1.6a.1.1 0 0 0-.11.04l-8.16 14.02m55.58-.15a.35.35 0 0 1 .39.15l3.14 4.86a.35.35 0 0 0 .39.15l4.76-1.41a.35.35 0 0 0 .19-.52l-13.18-19.96a.35.35 0 0 0-.39-.14l-6.17 1.87a.35.35 0 0 0-.25.33l-.28 23.85a.35.35 0 0 0 .45.34l4.46-1.38a.35.35 0 0 0 .25-.34l.03-5.75a.35.35 0 0 1 .25-.33l5.96-1.72m-27.79 2.65q4.68-.07 7.25-2.11c5.58-4.41 3-12.21-3.95-13.21q-3.42-.49-9.42.61a.99.99 0 0 0-.81 1.03l1.07 21.19a.99.99 0 0 0 1.04.94l3.23-.13a.99.99 0 0 0 .95-1.05l-.34-6.22a.99.99 0 0 1 .98-1.05M163.77 39.54c7.57-2.2 3.1-10.2-2.53-6a1.02 1.01-29 0 0-.34 1.17l1.65 4.23a1.02 1.01 71.2 0 0 1.22.6m97.84 26.59c6.73 9.55 21.05-3.23 11.02-10.65a1 1 0 0 0-1.29.08l-9.61 9.27a1.01 1.01 0 0 0-.12 1.3" vector-effect="non-scaling-stroke"/><path d="M277.29 130.87a77.42 77.42 0 0 0-77.42-77.42 77.42 77.42 0 0 0-77.42 77.42 77.42 77.42 0 0 0 77.42 77.42 77.42 77.42 0 0 0 77.42-77.42" vector-effect="non-scaling-stroke"/><path d="M274.37 131A74.37 74.37 0 0 0 200 56.63 74.37 74.37 0 0 0 125.63 131 74.37 74.37 0 0 0 200 205.37 74.37 74.37 0 0 0 274.37 131" vector-effect="non-scaling-stroke"/><path d="M190.06 129.44q-7.88-.98-9.79-8.33a1.01 1 80.9 0 0-1.03-.75l-2.8.16a1 1 0 0 0-.94 1v11.99a1 1 0 0 0 1.01 1l3.15-.04a1.01 1.01 0 0 0 .93-.66c.58-1.6 1.83-1.78 3.34-1.08 10.67 4.93 28.16 3.09 25.87-12.85-1.36-9.42-14.17-9.75-21.36-11.53-2.94-.73-7.03-3.6-3.46-6.56 5.31-4.42 16.31-.8 17.92 6.21a1.01 1-8.4 0 0 1.05.78l2.85-.21a1.01 1-1.9 0 0 .93-.99l.07-11.07a1 .99 1.8 0 0-.95-1l-2.44-.12a.98.98 0 0 0-.92.53c-.92 1.7-2.32 1.85-4.06 1-8.03-3.91-23.01-3.79-23.88 7.73-1.06 13.99 13.89 13.91 23.23 16.22q2.64.65 2.83 3.36c.42 5.92-7.87 5.66-11.55 5.21m62.47-6.18c3.31-10.64.88-26.16-12.86-28.21-12.98-1.94-24.43 2.21-25.24 16.96-.63 11.66 1.55 21.32 14.98 22.96 9.89 1.21 20.06-1.87 23.12-11.71m-83.2 6.88q-2.82-1.04-2.82-1.45l-.01-27.07a1 .99 81.9 0 1 .71-.96l3.21-.93a1.02 1.01-8.5 0 0 .72-.97l-.02-2.01a.99.99 0 0 0-.99-.99l-18.03-.02a1 1 0 0 0-1.01.97l-.05 2.17a1 1 0 0 0 1.02 1.03q2.03-.04 3.4 1.33a1.04 1.01 23.5 0 1 .29.71v26.13a1.04 1.01-23.5 0 1-.29.71q-1.41 1.39-3.47 1.41a1 1 0 0 0-.99 1v2.3a1 1 0 0 0 1 1h18.18a1 .99.9 0 0 1-.96l.09-2.23a1 1 0 0 0-1.05-1.04q-.46.02-.89-.13m-23.34 33.17q-1.41 1.04-3.45.96a1 1 0 0 0-1.04 1v.69a1 1 0 0 0 .95 1c6.97.36 10.95-6.06 8.65-12.23-3.32-8.87-15.85-.05-9.29 5.7q1.47 1.29 3.48 1.08 3.63-.38.7 1.8m14.033 3.779a8.09 5.92 90.9 0 0 6.046-7.996 8.09 5.92 90.9 0 0-5.792-8.182 8.09 5.92 90.9 0 0-6.046 7.996 8.09 5.92 90.9 0 0 5.792 8.182m14.782.001a8.1 5.91 90.6 0 0 5.995-8.038 8.1 5.91 90.6 0 0-5.825-8.162 8.1 5.91 90.6 0 0-5.995 8.038 8.1 5.91 90.6 0 0 5.825 8.162M188 155.97V166a1 1 0 0 0 1.05 1l1.49-.07a1 .99-1.2 0 0 .96-.99v-13.98a1 .99 88.6 0 0-1.04-1q-3 .12-5.51 1.88a1 .99-23.5 0 0-.41 1.03q.5 2.29 1.87 1.29 1.59-1.14 1.59.81m23.92 6.58q1.29-.98 2.27-2.25c5.33-6.83-1.54-10.88-7.99-8.24a1.01.99 75.1 0 0-.61 1.07q.42 2.82 2.65 1.02a.99.98 25.2 0 1 .62-.22c8.17-.08-.04 7.74-2.63 9.99-5.14 4.44 7.87 3.07 9.03 3.07a1 1 0 0 0 .99-1v-.98a1 .99-90 0 0-.99-1l-2.86-.02q-2.34-.02-.48-1.44m13.857 4.55a8.1 5.9 90.8 0 0 6.012-8.018 8.1 5.9 90.8 0 0-5.786-8.181 8.1 5.9 90.8 0 0-6.012 8.017 8.1 5.9 90.8 0 0 5.786 8.181M239 155.97V166a1 1 0 0 0 1 1h1.5a1 1 0 0 0 1-1v-14.04a.99.99 0 0 0-1.06-.99q-2.93.19-5.43 1.81a.99.98-21.7 0 0-.44 1.01q.44 2.39 1.84 1.37 1.59-1.15 1.59.81m17.31 7.22q-2.73 1.75-5.58.75a.99.99 0 0 0-1.31.77l-.11.65a.99.98-75.7 0 0 .65 1.11c10.12 3.5 14.08-9.33 4.14-9.49a1.01 1 4.1 0 1-.98-1.13l.13-.98a1 .99 3.6 0 1 .99-.87h4.01a1 1 0 0 0 1-1v-1a1 1 0 0 0-1-1h-6.5a1.01 1 3.5 0 0-1 .88l-.79 6.8a1 1 0 0 0 1.17 1.1q3.24-.57 5.4 1.91a1 1 0 0 1-.22 1.5m-54.05-6a2.12 2.12 0 0 0-2.12-2.12 2.12 2.12 0 0 0-2.12 2.12 2.12 2.12 0 0 0 2.12 2.12 2.12 2.12 0 0 0 2.12-2.12m-1.84 9.779a2.16 2.03 82 0 0 1.71-2.421 2.16 2.03 82 0 0-2.31-1.857 2.16 2.03 82 0 0-1.71 2.422 2.16 2.03 82 0 0 2.31 1.856" vector-effect="non-scaling-stroke"/><path d="M242.51 122.23c1.23-6.65 2.47-22.43-8.52-21.94-11.44.52-10.11 15.12-8.15 22.72 2.41 9.35 14.99 8.19 16.67-.78m-96.438 36.83a2.65 2.12 85.2 0 0 1.89-2.817 2.65 2.12 85.2 0 0-2.334-2.464 2.65 2.12 85.2 0 0-1.89 2.818 2.65 2.12 85.2 0 0 2.334 2.464m14.078 5.289a5.35 2.19 90 0 0 2.19-5.35 5.35 2.19 90 0 0-2.19-5.35 5.35 2.19 90 0 0-2.19 5.35 5.35 2.19 90 0 0 2.19 5.35m14.72.01a5.35 2.2 90.1 0 0 2.21-5.346 5.35 2.2 90.1 0 0-2.19-5.354 5.35 2.2 90.1 0 0-2.21 5.346 5.35 2.2 90.1 0 0 2.19 5.354m50.982-.05a5.34 2.17 90.3 0 0 2.198-5.329 5.34 2.17 90.3 0 0-2.142-5.35 5.34 2.17 90.3 0 0-2.198 5.328 5.34 2.17 90.3 0 0 2.142 5.35m-82.219 56.304a7.96 5.73 122.5 0 0 9.11-3.634 7.96 5.73 122.5 0 0-.556-9.792 7.96 5.73 122.5 0 0-9.11 3.634 7.96 5.73 122.5 0 0 .556 9.792m81.167 6.717a.15.15 0 0 0 .19.14l4.62-1.38a.15.15 0 0 0 .09-.23l-4.56-7.54a.15.15 0 0 0-.12-.07h-.23a.15.15 0 0 0-.15.15l.16 8.93m-21.35.86c6.88.39 6.93-8.54-.42-7.16a1 1 0 0 0-.82 1.04l.3 5.18a1 1 0 0 0 .94.94" vector-effect="non-scaling-stroke"/></g><path fill="#004685" d="M189.8 253.65c-75.65-6.84-129.19-79.12-109.38-153.76C96.11 40.73 153.44.63 214.69 8.46c65.73 8.4 113.25 66.17 108.77 132.84-.03.48-.14.68-.47.99a1.03.98 72.2 0 0-.3.62c-6.05 58.1-50.1 102.53-107.94 110.32-8.57 1.16-13.63 1.88-24.76 1.22a.5.47 71.5 0 1-.36-.19q-.33-.39.12-.49.38-.09.05-.12Zm127.59-122.78A117.52 117.52 0 0 0 199.87 13.35 117.52 117.52 0 0 0 82.35 130.87a117.52 117.52 0 0 0 117.52 117.52 117.52 117.52 0 0 0 117.52-117.52Z"/><path fill="#fff" d="M317.39 130.87a117.52 117.52 0 0 1-117.52 117.52A117.52 117.52 0 0 1 82.35 130.87 117.52 117.52 0 0 1 199.87 13.35a117.52 117.52 0 0 1 117.52 117.52ZM189.86 27.66a.41.41 0 0 1 .35-.45l5.62-.75a.41.41 0 0 0 .35-.48l-.57-3.47a.41.41 0 0 0-.45-.34l-17.12 2.08a.41.41 0 0 0-.35.48l.61 3.47a.41.41 0 0 0 .45.33l5.43-.54a.41.41 0 0 1 .45.36l2.2 18.04a.41.41 0 0 0 .46.36l4.44-.53a.41.41 0 0 0 .36-.46l-2.23-18.1Zm17.782-4.803a.34.34 0 0 0-.322-.357l-4.535-.23a.34.34 0 0 0-.356.323l-1.15 22.71a.34.34 0 0 0 .322.357l4.534.23a.34.34 0 0 0 .356-.322l1.15-22.711ZM219.75 34.12a.41.41 0 0 1-.31-.48l.88-4.6a.41.41 0 0 1 .49-.32l8.03 1.78a.41.41 0 0 0 .49-.3l.84-3.34a.41.41 0 0 0-.31-.5l-13.31-2.93a.41.41 0 0 0-.49.31l-4.74 22.17a.41.41 0 0 0 .31.49l4.3.93a.41.41 0 0 0 .49-.31l1.9-8.47a.41.41 0 0 1 .49-.31l7.37 1.61a.41.41 0 0 0 .49-.3l.85-3.35a.41.41 0 0 0-.31-.5l-7.46-1.58Zm-48.31 3.82.28-.38c2.18-2.86.64-7.08-1.93-8.55q-2.45-1.39-6.26-.49-4.36 1.03-8.34 3.37a.99.99 0 0 0-.43 1.21l7.48 19.9a1 1 0 0 0 1.29.59l3.06-1.16a1 1 0 0 0 .58-1.3l-2.58-6.6a1.01 1.01 0 0 1 .45-1.25c4.29-2.34 6 2.43 8.57 5.77a1.01.98-28.6 0 0 1.14.32l3.14-1.16a1 1 0 0 0 .45-1.54q-2.21-2.96-4.4-5.87-.66-.88-2.01-1.31a1 1 0 0 1-.49-1.55Zm71.28-6.64a.26.26 0 0 0-.144-.337l-4.42-1.768a.26.26 0 0 0-.338.145l-8.519 21.3a.26.26 0 0 0 .145.337l4.42 1.768a.26.26 0 0 0 .338-.145l8.519-21.3Zm5.37 17.86a.31.31 0 0 1 .42-.1l6.79 4.24a.31.31 0 0 0 .42-.1l1.96-3.13a.31.31 0 0 0-.1-.42l-6.9-4.27a.31.31 0 0 1-.1-.42l2.24-3.66a.31.31 0 0 1 .42-.1l7.36 4.49a.31.31 0 0 0 .43-.11l1.86-3.15a.31.31 0 0 0-.1-.42l-11.77-7.27a.31.31 0 0 0-.42.11l-11.97 19.53a.31.31 0 0 0 .11.43l12.21 7.44a.31.31 0 0 0 .42-.1l2.08-3.09a.31.31 0 0 0-.1-.44l-7.88-4.7a.31.31 0 0 1-.1-.43l2.72-4.33Zm-104.48.05a.36.36 0 0 1-.5-.1l-2.38-3.53a.36.36 0 0 1 .1-.5l7.17-4.73a.36.36 0 0 0 .09-.51l-2.1-2.94a.36.36 0 0 0-.49-.09l-11.43 7.66a.36.36 0 0 0-.1.5l12.71 18.89a.36.36 0 0 0 .5.1l11.84-7.88a.36.36 0 0 0 .1-.5l-1.98-3.1a.36.36 0 0 0-.51-.1l-7.41 5.12a.36.36 0 0 1-.5-.1l-2.84-4.13a.36.36 0 0 1 .1-.5l6.65-4.41a.36.36 0 0 0 .1-.5l-2-3.02a.36.36 0 0 0-.5-.1l-6.62 4.47Zm126.69-.22-15.27 14.83a1.01 1-40.9 0 0-.1 1.32q3.42 4.57 8.25 7.68c9.2 5.91 22.27-4.58 16.83-14.57q-3.12-5.75-8.45-9.37a1 .99 39.7 0 0-1.26.11ZM142.68 65.23l-1.9-1.25a1.01 1.01 0 0 0-1.43.36c-7.47 13.82-23.66-2.7-10.59-9.82a1 1 0 0 0 .35-1.44l-1.4-2.07a1.01.99 57.1 0 0-1.35-.3c-20.31 12.54 5.4 37.65 16.66 15.81a1.01.99 30.6 0 0-.34-1.29Zm137.21 65.9a80.02 80.02 0 0 0-80.02-80.02 80.02 80.02 0 0 0-80.02 80.02 80.02 80.02 0 0 0 80.02 80.02 80.02 80.02 0 0 0 80.02-80.02Zm-11.47 65.07-7.95-2.99a1.01 1.01 0 0 0-1.08.25l-2.52 2.68a1 1 0 0 0 .45 1.64q5.63 1.62 11.3 3.14c3.51.93 6.1 4.17 8.72 6.54a1.01 1.01 0 0 0 1.42-.08l2.14-2.4a1 1 0 0 0-.05-1.39q-2.42-2.3-4.86-4.61-1.54-1.46-2.17-3.48-1.76-5.64-3.52-11.35a1.01 1-31.1 0 0-1.67-.41l-2.53 2.53a1.02 1 55.5 0 0-.2 1.13l3.53 7.72q.8 1.76-1.01 1.08Zm-139.96 12.09c-13.05-9.47 3.92-22.72 10.55-9.95a.99.99 0 0 0 1.35.42l2.14-1.14a1 .99-28.7 0 0 .4-1.36q-1.99-3.62-5.36-6.03c-13.24-9.45-28.63 10.98-11.56 21.53a1.01 1-55.6 0 0 1.32-.25l1.37-1.81a1 1 0 0 0-.21-1.41Zm119.25 5.41 13.4 7.71a.98.97 44.2 0 0 1.01-.01l3.51-2.12a.99.99 0 0 0 .33-1.38l-11.46-18.25a1 1 0 0 0-1.37-.32l-2.46 1.52a1 1 0 0 0-.31 1.4l6.42 9.78q1.85 2.81-1.06 1.13l-12.36-7.1a.99.97-45.6 0 0-1.02.02l-4.01 2.5a1 1 0 0 0-.32 1.38l11.43 18.25a1.01 1 57.7 0 0 1.39.32l2.45-1.56a1 .99-32.6 0 0 .31-1.38l-6.95-10.77q-1.8-2.77 1.07-1.12Zm-107.079 10.036a12.23 11.37 126.7 0 0 16.425-3.011 12.23 11.37 126.7 0 0-1.807-16.6 12.23 11.37 126.7 0 0-16.425 3.01 12.23 11.37 126.7 0 0 1.807 16.6Zm35.259 6.084a.1.1 0 0 1-.19-.04l-.36-16.03a.1.1 0 0 0-.07-.1l-6.77-1.75a.1.1 0 0 0-.12.07l-6.93 22.27a.1.1 0 0 0 .07.13l4.53 1.16a.1.1 0 0 0 .12-.07l4.78-16.64a.1.1 0 0 1 .1-.07h.17a.1.1 0 0 1 .1.1l.18 17.42a.1.1 0 0 0 .07.1l4.02 1.1a.1.1 0 0 0 .11-.05l9.49-15.96a.1.1 0 0 1 .18.07l-3.8 17.61a.1.1 0 0 0 .07.11l4.83 1.31a.1.1 0 0 0 .12-.08l4.29-23.01a.1.1 0 0 0-.07-.11l-6.65-1.6a.1.1 0 0 0-.11.04l-8.16 14.02Zm55.58-.15a.35.35 0 0 1 .39.15l3.14 4.86a.35.35 0 0 0 .39.15l4.76-1.41a.35.35 0 0 0 .19-.52l-13.18-19.96a.35.35 0 0 0-.39-.14l-6.17 1.87a.35.35 0 0 0-.25.33l-.28 23.85a.35.35 0 0 0 .45.34l4.46-1.38a.35.35 0 0 0 .25-.34l.03-5.75a.35.35 0 0 1 .25-.33l5.96-1.72Zm-27.79 2.65q4.68-.07 7.25-2.11c5.58-4.41 3-12.21-3.95-13.21q-3.42-.49-9.42.61a.99.99 0 0 0-.81 1.03l1.07 21.19a.99.99 0 0 0 1.04.94l3.23-.13a.99.99 0 0 0 .95-1.05l-.34-6.22a.99.99 0 0 1 .98-1.05Z"/><path fill="#004685" d="m189.86 27.66 2.23 18.1a.41.41 0 0 1-.36.46l-4.44.53a.41.41 0 0 1-.46-.36l-2.2-18.04a.41.41 0 0 0-.45-.36l-5.43.54a.41.41 0 0 1-.45-.33l-.61-3.47a.41.41 0 0 1 .35-.48l17.12-2.08a.41.41 0 0 1 .45.34l.57 3.47a.41.41 0 0 1-.35.48l-5.62.75a.41.41 0 0 0-.35.45Z"/><rect width="5.22" height="23.42" x="-2.61" y="-11.71" fill="#004685" rx=".34" transform="rotate(2.9 -570.95 4055.728)"/><path fill="#004685" d="m219.75 34.12 7.46 1.58a.41.41 0 0 1 .31.5l-.85 3.35a.41.41 0 0 1-.49.3l-7.37-1.61a.41.41 0 0 0-.49.31l-1.9 8.47a.41.41 0 0 1-.49.31l-4.3-.93a.41.41 0 0 1-.31-.49l4.74-22.17a.41.41 0 0 1 .49-.31l13.31 2.93a.41.41 0 0 1 .31.5l-.84 3.34a.41.41 0 0 1-.49.3l-8.03-1.78a.41.41 0 0 0-.49.32l-.88 4.6a.41.41 0 0 0 .31.48Zm-47.82 5.37q1.35.43 2.01 1.31 2.19 2.91 4.4 5.87a1 1 0 0 1-.45 1.54l-3.14 1.16a1.01.98-28.6 0 1-1.14-.32c-2.57-3.34-4.28-8.11-8.57-5.77a1.01 1.01 0 0 0-.45 1.25l2.58 6.6a1 1 0 0 1-.58 1.3l-3.06 1.16a1 1 0 0 1-1.29-.59l-7.48-19.9a.99.99 0 0 1 .43-1.21q3.98-2.34 8.34-3.37 3.81-.9 6.26.49c2.57 1.47 4.11 5.69 1.93 8.55l-.28.38a1 1 0 0 0 .49 1.55Zm-8.16.05c7.57-2.2 3.1-10.2-2.53-6a1.02 1.01-29 0 0-.34 1.17l1.65 4.23a1.02 1.01 71.2 0 0 1.22.6Z"/><rect width="5.28" height="23.46" x="-2.64" y="-11.73" fill="#004685" rx=".26" transform="rotate(21.8 11.628 633.276)"/><path fill="#fff" d="M161.24 33.54c5.63-4.2 10.1 3.8 2.53 6a1.02 1.01 71.2 0 1-1.22-.6l-1.65-4.23a1.02 1.01-29 0 1 .34-1.17Z"/><path fill="#004685" d="m248.09 49.16-2.72 4.33a.31.31 0 0 0 .1.43l7.88 4.7a.31.31 0 0 1 .1.44l-2.08 3.09a.31.31 0 0 1-.42.1l-12.21-7.44a.31.31 0 0 1-.11-.43l11.97-19.53a.31.31 0 0 1 .42-.11l11.77 7.27a.31.31 0 0 1 .1.42l-1.86 3.15a.31.31 0 0 1-.43.11l-7.36-4.49a.31.31 0 0 0-.42.1l-2.24 3.66a.31.31 0 0 0 .1.42l6.9 4.27a.31.31 0 0 1 .1.42l-1.96 3.13a.31.31 0 0 1-.42.1l-6.79-4.24a.31.31 0 0 0-.42.1Zm-104.48.05 6.62-4.47a.36.36 0 0 1 .5.1l2 3.02a.36.36 0 0 1-.1.5l-6.65 4.41a.36.36 0 0 0-.1.5l2.84 4.13a.36.36 0 0 0 .5.1l7.41-5.12a.36.36 0 0 1 .51.1l1.98 3.1a.36.36 0 0 1-.1.5l-11.84 7.88a.36.36 0 0 1-.5-.1l-12.71-18.89a.36.36 0 0 1 .1-.5l11.43-7.66a.36.36 0 0 1 .49.09l2.1 2.94a.36.36 0 0 1-.09.51l-7.17 4.73a.36.36 0 0 0-.1.5l2.38 3.53a.36.36 0 0 0 .5.1Zm126.69-.22a1 .99 39.7 0 1 1.26-.11q5.33 3.62 8.45 9.37c5.44 9.99-7.63 20.48-16.83 14.57q-4.83-3.11-8.25-7.68a1.01 1-40.9 0 1 .1-1.32l15.27-14.83Zm-8.69 17.14c6.73 9.55 21.05-3.23 11.02-10.65a1 1 0 0 0-1.29.08l-9.61 9.27a1.01 1.01 0 0 0-.12 1.3Zm-118.93-.9a1.01.99 30.6 0 1 .34 1.29c-11.26 21.84-36.97-3.27-16.66-15.81a1.01.99 57.1 0 1 1.35.3l1.4 2.07a1 1 0 0 1-.35 1.44c-13.07 7.12 3.12 23.64 10.59 9.82a1.01 1.01 0 0 1 1.43-.36l1.9 1.25Z"/><path fill="#004685" d="M279.89 131.13a80.02 80.02 0 0 1-80.02 80.02 80.02 80.02 0 0 1-80.02-80.02 80.02 80.02 0 0 1 80.02-80.02 80.02 80.02 0 0 1 80.02 80.02Zm-2.6-.26a77.42 77.42 0 0 0-77.42-77.42 77.42 77.42 0 0 0-77.42 77.42 77.42 77.42 0 0 0 77.42 77.42 77.42 77.42 0 0 0 77.42-77.42Z"/><path fill="#fff" d="M277.29 130.87a77.42 77.42 0 0 1-77.42 77.42 77.42 77.42 0 0 1-77.42-77.42 77.42 77.42 0 0 1 77.42-77.42 77.42 77.42 0 0 1 77.42 77.42Zm-2.92.13A74.37 74.37 0 0 0 200 56.63 74.37 74.37 0 0 0 125.63 131 74.37 74.37 0 0 0 200 205.37 74.37 74.37 0 0 0 274.37 131Zm-1.74-75.52c10.03 7.42-4.29 20.2-11.02 10.65a1.01 1.01 0 0 1 .12-1.3l9.61-9.27a1 1 0 0 1 1.29-.08Z"/><path fill="#004685" d="M274.37 131A74.37 74.37 0 0 1 200 205.37 74.37 74.37 0 0 1 125.63 131 74.37 74.37 0 0 1 200 56.63 74.37 74.37 0 0 1 274.37 131Zm-84.31-1.56q-7.88-.98-9.79-8.33a1.01 1 80.9 0 0-1.03-.75l-2.8.16a1 1 0 0 0-.94 1v11.99a1 1 0 0 0 1.01 1l3.15-.04a1.01 1.01 0 0 0 .93-.66c.58-1.6 1.83-1.78 3.34-1.08 10.67 4.93 28.16 3.09 25.87-12.85-1.36-9.42-14.17-9.75-21.36-11.53-2.94-.73-7.03-3.6-3.46-6.56 5.31-4.42 16.31-.8 17.92 6.21a1.01 1-8.4 0 0 1.05.78l2.85-.21a1.01 1-1.9 0 0 .93-.99l.07-11.07a1 .99 1.8 0 0-.95-1l-2.44-.12a.98.98 0 0 0-.92.53c-.92 1.7-2.32 1.85-4.06 1-8.03-3.91-23.01-3.79-23.88 7.73-1.06 13.99 13.89 13.91 23.23 16.22q2.64.65 2.83 3.36c.42 5.92-7.87 5.66-11.55 5.21Zm62.47-6.18c3.31-10.64.88-26.16-12.86-28.21-12.98-1.94-24.43 2.21-25.24 16.96-.63 11.66 1.55 21.32 14.98 22.96 9.89 1.21 20.06-1.87 23.12-11.71Zm-83.2 6.88q-2.82-1.04-2.82-1.45l-.01-27.07a1 .99 81.9 0 1 .71-.96l3.21-.93a1.02 1.01-8.5 0 0 .72-.97l-.02-2.01a.99.99 0 0 0-.99-.99l-18.03-.02a1 1 0 0 0-1.01.97l-.05 2.17a1 1 0 0 0 1.02 1.03q2.03-.04 3.4 1.33a1.04 1.01 23.5 0 1 .29.71v26.13a1.04 1.01-23.5 0 1-.29.71q-1.41 1.39-3.47 1.41a1 1 0 0 0-.99 1v2.3a1 1 0 0 0 1 1h18.18a1 .99.9 0 0 1-.96l.09-2.23a1 1 0 0 0-1.05-1.04q-.46.02-.89-.13Zm-23.34 33.17q-1.41 1.04-3.45.96a1 1 0 0 0-1.04 1v.69a1 1 0 0 0 .95 1c6.97.36 10.95-6.06 8.65-12.23-3.32-8.87-15.85-.05-9.29 5.7q1.47 1.29 3.48 1.08 3.63-.38.7 1.8Zm14.033 3.779a8.09 5.92 90.9 0 0 6.046-7.996 8.09 5.92 90.9 0 0-5.792-8.182 8.09 5.92 90.9 0 0-6.046 7.996 8.09 5.92 90.9 0 0 5.792 8.182Zm14.782 0a8.1 5.91 90.6 0 0 5.995-8.037 8.1 5.91 90.6 0 0-5.825-8.162 8.1 5.91 90.6 0 0-5.995 8.038 8.1 5.91 90.6 0 0 5.825 8.162ZM188 155.97V166a1 1 0 0 0 1.05 1l1.49-.07a1 .99-1.2 0 0 .96-.99v-13.98a1 .99 88.6 0 0-1.04-1q-3 .12-5.51 1.88a1 .99-23.5 0 0-.41 1.03q.5 2.29 1.87 1.29 1.59-1.14 1.59.81Zm23.92 6.58q1.29-.98 2.27-2.25c5.33-6.83-1.54-10.88-7.99-8.24a1.01.99 75.1 0 0-.61 1.07q.42 2.82 2.65 1.02a.99.98 25.2 0 1 .62-.22c8.17-.08-.04 7.74-2.63 9.99-5.14 4.44 7.87 3.07 9.03 3.07a1 1 0 0 0 .99-1v-.98a1 .99-90 0 0-.99-1l-2.86-.02q-2.34-.02-.48-1.44Zm13.857 4.55a8.1 5.9 90.8 0 0 6.012-8.018 8.1 5.9 90.8 0 0-5.786-8.181 8.1 5.9 90.8 0 0-6.012 8.017 8.1 5.9 90.8 0 0 5.786 8.181ZM239 155.97V166a1 1 0 0 0 1 1h1.5a1 1 0 0 0 1-1v-14.04a.99.99 0 0 0-1.06-.99q-2.93.19-5.43 1.81a.99.98-21.7 0 0-.44 1.01q.44 2.39 1.84 1.37 1.59-1.15 1.59.81Zm17.31 7.22q-2.73 1.75-5.58.75a.99.99 0 0 0-1.31.77l-.11.65a.99.98-75.7 0 0 .65 1.11c10.12 3.5 14.08-9.33 4.14-9.49a1.01 1 4.1 0 1-.98-1.13l.13-.98a1 .99 3.6 0 1 .99-.87h4.01a1 1 0 0 0 1-1v-1a1 1 0 0 0-1-1h-6.5a1.01 1 3.5 0 0-1 .88l-.79 6.8a1 1 0 0 0 1.17 1.1q3.24-.57 5.4 1.91a1 1 0 0 1-.22 1.5Zm-54.05-6a2.12 2.12 0 0 0-2.12-2.12 2.12 2.12 0 0 0-2.12 2.12 2.12 2.12 0 0 0 2.12 2.12 2.12 2.12 0 0 0 2.12-2.12Zm-1.84 9.779a2.16 2.03 82 0 0 1.71-2.421 2.16 2.03 82 0 0-2.31-1.857 2.16 2.03 82 0 0-1.71 2.422 2.16 2.03 82 0 0 2.31 1.856Z"/><path fill="#fff" d="M190.06 129.44c3.68.45 11.97.71 11.55-5.21q-.19-2.71-2.83-3.36c-9.34-2.31-24.29-2.23-23.23-16.22.87-11.52 15.85-11.64 23.88-7.73 1.74.85 3.14.7 4.06-1a.98.98 0 0 1 .92-.53l2.44.12a1 .99 1.8 0 1 .95 1l-.07 11.07a1.01 1-1.9 0 1-.93.99l-2.85.21a1.01 1-8.4 0 1-1.05-.78c-1.61-7.01-12.61-10.63-17.92-6.21-3.57 2.96.52 5.83 3.46 6.56 7.19 1.78 20 2.11 21.36 11.53 2.29 15.94-15.2 17.78-25.87 12.85-1.51-.7-2.76-.52-3.34 1.08a1.01 1.01 0 0 1-.93.66l-3.15.04a1 1 0 0 1-1.01-1v-11.99a1 1 0 0 1 .94-1l2.8-.16a1.01 1 80.9 0 1 1.03.75q1.91 7.35 9.79 8.33Zm49.61-34.39c13.74 2.05 16.17 17.57 12.86 28.21-3.06 9.84-13.23 12.92-23.12 11.71-13.43-1.64-15.61-11.3-14.98-22.96.81-14.75 12.26-18.9 25.24-16.96Zm2.84 27.18c1.23-6.65 2.47-22.43-8.52-21.94-11.44.52-10.11 15.12-8.15 22.72 2.41 9.35 14.99 8.19 16.67-.78Zm-73.18 7.91q.43.15.89.13a1 1 0 0 1 1.05 1.04l-.09 2.23a1 .99.9 0 1-1 .96H152a1 1 0 0 1-1-1v-2.3a1 1 0 0 1 .99-1q2.06-.02 3.47-1.41a1.04 1.01-23.5 0 0 .29-.71v-26.13a1.04 1.01 23.5 0 0-.29-.71q-1.37-1.37-3.4-1.33a1 1 0 0 1-1.02-1.03l.05-2.17a1 1 0 0 1 1.01-.97l18.03.02a.99.99 0 0 1 .99.99l.02 2.01a1.02 1.01-8.5 0 1-.72.97l-3.21.93a1 .99 81.9 0 0-.71.96l.01 27.07q0 .41 2.82 1.45Z"/><path fill="#004685" d="M233.99 100.29c10.99-.49 9.75 15.29 8.52 21.94-1.68 8.97-14.26 10.13-16.67.78-1.96-7.6-3.29-22.2 8.15-22.72Z"/><path fill="#fff" d="M145.29 161.51q-2.01.21-3.48-1.08c-6.56-5.75 5.97-14.57 9.29-5.7 2.3 6.17-1.68 12.59-8.65 12.23a1 1 0 0 1-.95-1v-.69a1 1 0 0 1 1.04-1q2.04.08 3.45-.96 2.93-2.18-.7-1.8Zm.782-2.45a2.65 2.12 85.2 0 0 1.89-2.817 2.65 2.12 85.2 0 0-2.334-2.464 2.65 2.12 85.2 0 0-1.89 2.818 2.65 2.12 85.2 0 0 2.334 2.464Z"/><path fill="#fff" d="M160.023 167.089a8.09 5.92 90.9 0 1-5.792-8.182 8.09 5.92 90.9 0 1 6.046-7.996 8.09 5.92 90.9 0 1 5.792 8.182 8.09 5.92 90.9 0 1-6.046 7.996Zm.127-2.739a5.35 2.19 90 0 0 2.19-5.35 5.35 2.19 90 0 0-2.19-5.35 5.35 2.19 90 0 0-2.19 5.35 5.35 2.19 90 0 0 2.19 5.35Z"/><path fill="#fff" d="M174.805 167.09a8.1 5.91 90.6 0 1-5.825-8.162 8.1 5.91 90.6 0 1 5.995-8.038 8.1 5.91 90.6 0 1 5.825 8.162 8.1 5.91 90.6 0 1-5.995 8.038Zm.066-2.73a5.35 2.2 90.1 0 0 2.209-5.346 5.35 2.2 90.1 0 0-2.19-5.354 5.35 2.2 90.1 0 0-2.21 5.346 5.35 2.2 90.1 0 0 2.19 5.354Z"/><path fill="#fff" d="M186.41 155.16q-1.37 1-1.87-1.29a1 .99-23.5 0 1 .41-1.03q2.51-1.76 5.51-1.88a1 .99 88.6 0 1 1.04 1v13.98a1 .99-1.2 0 1-.96.99l-1.49.07a1 1 0 0 1-1.05-1v-10.03q0-1.95-1.59-.81Zm25.51 7.39q-1.86 1.42.48 1.44l2.86.02a1 .99 90 0 1 .99 1v.98a1 1 0 0 1-.99 1c-1.16 0-14.17 1.37-9.03-3.07 2.59-2.25 10.8-10.07 2.63-9.99a.99.98 25.2 0 0-.62.22q-2.23 1.8-2.65-1.02a1.01.99 75.1 0 1 .61-1.07c6.45-2.64 13.32 1.41 7.99 8.24q-.98 1.27-2.27 2.25Z"/><path fill="#fff" d="M225.777 167.1a8.1 5.9 90.8 0 1-5.786-8.182 8.1 5.9 90.8 0 1 6.012-8.017 8.1 5.9 90.8 0 1 5.786 8.181 8.1 5.9 90.8 0 1-6.012 8.017Zm.075-2.79a5.34 2.17 90.3 0 0 2.198-5.329 5.34 2.17 90.3 0 0-2.142-5.35 5.34 2.17 90.3 0 0-2.198 5.328 5.34 2.17 90.3 0 0 2.142 5.35Z"/><path fill="#fff" d="M237.41 155.16q-1.4 1.02-1.84-1.37a.99.98-21.7 0 1 .44-1.01q2.5-1.62 5.43-1.81a.99.99 0 0 1 1.06.99V166a1 1 0 0 1-1 1H240a1 1 0 0 1-1-1v-10.03q0-1.96-1.59-.81Zm18.9 8.03a1 1 0 0 0 .22-1.5q-2.16-2.48-5.4-1.91a1 1 0 0 1-1.17-1.1l.79-6.8a1.01 1 3.5 0 1 1-.88h6.5a1 1 0 0 1 1 1v1a1 1 0 0 1-1 1h-4.01a1 .99 3.6 0 0-.99.87l-.13.98a1.01 1 4.1 0 0 .98 1.13c9.94.16 5.98 12.99-4.14 9.49a.99.98-75.7 0 1-.65-1.11l.11-.65a.99.99 0 0 1 1.31-.77q2.85 1 5.58-.75Z"/><ellipse fill="#004685" rx="2.65" ry="2.12" transform="rotate(85.2 -12.128 157.515)"/><ellipse fill="#004685" rx="5.35" ry="2.19" transform="rotate(90 .575 159.575)"/><ellipse fill="#004685" rx="5.35" ry="2.2" transform="rotate(90.1 8.074 166.793)"/><ellipse fill="#004685" rx="5.34" ry="2.17" transform="rotate(90.3 33.87 191.835)"/><circle cx="200.14" cy="157.19" r="2.12" fill="#fff"/><ellipse fill="#fff" rx="2.16" ry="2.03" transform="rotate(82 5.252 197.52)"/><path fill="#004685" d="m269.43 195.12-3.53-7.72a1.02 1 55.5 0 1 .2-1.13l2.53-2.53a1.01 1-31.1 0 1 1.67.41q1.76 5.71 3.52 11.35.63 2.02 2.17 3.48 2.44 2.31 4.86 4.61a1 1 0 0 1 .05 1.39l-2.14 2.4a1.01 1.01 0 0 1-1.42.08c-2.62-2.37-5.21-5.61-8.72-6.54q-5.67-1.52-11.3-3.14a1 1 0 0 1-.45-1.64l2.52-2.68a1.01 1.01 0 0 1 1.08-.25l7.95 2.99q1.81.68 1.01-1.08Zm-140.97 13.17a1 1 0 0 1 .21 1.41l-1.37 1.81a1.01 1-55.6 0 1-1.32.25c-17.07-10.55-1.68-30.98 11.56-21.53q3.37 2.41 5.36 6.03a1 .99-28.7 0 1-.4 1.36l-2.14 1.14a.99.99 0 0 1-1.35-.42c-6.63-12.77-23.6.48-10.55 9.95Zm118.18 6.53 6.95 10.77a1 .99-32.6 0 1-.31 1.38l-2.45 1.56a1.01 1 57.7 0 1-1.39-.32l-11.43-18.25a1 1 0 0 1 .32-1.38l4.01-2.5a.99.97-45.6 0 1 1.02-.02l12.36 7.1q2.91 1.68 1.06-1.13l-6.42-9.78a1 1 0 0 1 .31-1.4l2.46-1.52a1 1 0 0 1 1.37.32l11.46 18.25a.99.99 0 0 1-.33 1.38l-3.51 2.12a.98.97 44.2 0 1-1.01.01l-13.4-7.71q-2.87-1.65-1.07 1.12Z"/><path fill="#004685" d="M140.631 223.736a12.23 11.37 126.7 0 1-1.807-16.601 12.23 11.37 126.7 0 1 16.425-3.01 12.23 11.37 126.7 0 1 1.807 16.6 12.23 11.37 126.7 0 1-16.425 3.01Zm3.002-3.123a7.96 5.73 122.5 0 0 9.11-3.634 7.96 5.73 122.5 0 0-.556-9.792 7.96 5.73 122.5 0 0-9.11 3.634 7.96 5.73 122.5 0 0 .556 9.792Z"/><ellipse fill="#fff" rx="7.96" ry="5.73" transform="rotate(122.5 15.28 147.523)"/><path fill="#004685" d="m175.89 229.82 8.16-14.02a.1.1 0 0 1 .11-.04l6.65 1.6a.1.1 0 0 1 .07.11l-4.29 23.01a.1.1 0 0 1-.12.08l-4.83-1.31a.1.1 0 0 1-.07-.11l3.8-17.61a.1.1 0 0 0-.18-.07l-9.49 15.96a.1.1 0 0 1-.11.05l-4.02-1.1a.1.1 0 0 1-.07-.1l-.18-17.42a.1.1 0 0 0-.1-.1h-.17a.1.1 0 0 0-.1.07l-4.78 16.64a.1.1 0 0 1-.12.07l-4.53-1.16a.1.1 0 0 1-.07-.13l6.93-22.27a.1.1 0 0 1 .12-.07l6.77 1.75a.1.1 0 0 1 .07.1l.36 16.03a.1.1 0 0 0 .19.04Zm55.58-.15-5.96 1.72a.35.35 0 0 0-.25.33l-.03 5.75a.35.35 0 0 1-.25.34l-4.46 1.38a.35.35 0 0 1-.45-.34l.28-23.85a.35.35 0 0 1 .25-.33l6.17-1.87a.35.35 0 0 1 .39.14l13.18 19.96a.35.35 0 0 1-.19.52l-4.76 1.41a.35.35 0 0 1-.39-.15l-3.14-4.86a.35.35 0 0 0-.39-.15Zm-6.67-2.34a.15.15 0 0 0 .19.14l4.62-1.38a.15.15 0 0 0 .09-.23l-4.56-7.54a.15.15 0 0 0-.12-.07h-.23a.15.15 0 0 0-.15.15l.16 8.93Zm-22.1 6.04.34 6.22a.99.99 0 0 1-.95 1.05l-3.23.13a.99.99 0 0 1-1.04-.94l-1.07-21.19a.99.99 0 0 1 .81-1.03q6-1.1 9.42-.61c6.95 1 9.53 8.8 3.95 13.21q-2.57 2.04-7.25 2.11a.99.99 0 0 0-.98 1.05Zm.75-5.18c6.88.39 6.93-8.54-.42-7.16a1 1 0 0 0-.82 1.04l.3 5.18a1 1 0 0 0 .94.94Z"/><path fill="#fff" d="m224.8 227.33-.16-8.93a.15.15 0 0 1 .15-.15h.23a.15.15 0 0 1 .12.07l4.56 7.54a.15.15 0 0 1-.09.23l-4.62 1.38a.15.15 0 0 1-.19-.14Zm-21.77-6.3c7.35-1.38 7.3 7.55.42 7.16a1 1 0 0 1-.94-.94l-.3-5.18a1 1 0 0 1 .82-1.04Z"/></svg>